<svg xmlns="http://www.w3.org/2000/svg" width="15" height="20" viewBox="0 0 15 20"><defs><style>.cls-1{fill:#fff;fill-rule:evenodd}</style></defs><path id="Shape_1_copy_4" data-name="Shape 1 copy 4" class="cls-1" d="M849,1497.33l-1.08-12.97a0.479,0.479,0,0,0-.467-0.45h-2.277a3.683,3.683,0,1,0-7.352,0h-2.277a0.484,0.484,0,0,0-.466.45L834,1497.33v0.05a2.71,2.71,0,0,0,2.779,2.62h9.443a2.709,2.709,0,0,0,2.778-2.62v-0.05Zm-7.5-16.34a2.843,2.843,0,0,1,2.744,2.92h-5.487A2.843,2.843,0,0,1,841.5,1480.99Zm4.722,18.01h-9.443a1.745,1.745,0,0,1-1.846-1.61l1.041-12.49h1.85v1.75a0.467,0.467,0,1,0,.933,0v-1.75h5.487v1.75a0.467,0.467,0,1,0,.932,0v-1.75h1.85l1.041,12.5A1.744,1.744,0,0,1,846.221,1499Zm-2.782-8.66-2.752,2.93-1.123-1.19a0.439,0.439,0,0,0-.661,0,0.517,0.517,0,0,0,0,.7l1.454,1.55a0.469,0.469,0,0,0,.33.14,0.474,0.474,0,0,0,.33-0.14l3.082-3.29a0.515,0.515,0,0,0,0-.7A0.453,0.453,0,0,0,843.439,1490.34Z" transform="translate(-834 -1480)"/></svg>