<svg xmlns="http://www.w3.org/2000/svg" width="12" height="12" viewBox="0 0 12 12"><defs><style>.cls-1{fill:#9fa0a2;fill-rule:evenodd}</style></defs><path class="cls-1" d="M1020.23,3473h-10.46a0.773,0.773,0,0,1-.77-0.78v-9.45a0.773,0.773,0,0,1,.77-0.78h1.31v1.33a0.86,0.86,0,0,0,.85.87h0.17a0.862,0.862,0,0,0,.86-0.87v-1.33h4.18v1.31a0.869,0.869,0,0,0,.85.88h0.17a0.767,0.767,0,0,0,.86-0.75v-1.44h1.21a0.773,0.773,0,0,1,.77.78v9.45A0.773,0.773,0,0,1,1020.23,3473Zm0-7.92h-10.46v7.14h10.46v-7.14Zm-1.2,6.38h-1.38a0.1,0.1,0,0,1-.1-0.1v-1.22a0.094,0.094,0,0,1,.1-0.1h1.38a0.092,0.092,0,0,1,.09.1v1.22A0.1,0.1,0,0,1,1019.03,3471.46Zm0-1.99h-1.38a0.1,0.1,0,0,1-.1-0.1v-1.22a0.094,0.094,0,0,1,.1-0.1h1.38a0.092,0.092,0,0,1,.09.1v1.22A0.1,0.1,0,0,1,1019.03,3469.47Zm0-1.99h-1.38a0.1,0.1,0,0,1-.1-0.1v-1.22a0.094,0.094,0,0,1,.1-0.1h1.38a0.092,0.092,0,0,1,.09.1v1.22A0.1,0.1,0,0,1,1019.03,3467.48Zm-2.25,3.98h-1.38a0.1,0.1,0,0,1-.1-0.1v-1.22a0.094,0.094,0,0,1,.1-0.1h1.38a0.092,0.092,0,0,1,.09.1v1.22A0.1,0.1,0,0,1,1016.78,3471.46Zm0-1.99h-1.38a0.1,0.1,0,0,1-.1-0.1v-1.22a0.094,0.094,0,0,1,.1-0.1h1.38a0.092,0.092,0,0,1,.09.1v1.22A0.1,0.1,0,0,1,1016.78,3469.47Zm0-1.99h-1.38a0.1,0.1,0,0,1-.1-0.1v-1.22a0.094,0.094,0,0,1,.1-0.1h1.38a0.092,0.092,0,0,1,.09.1v1.22A0.1,0.1,0,0,1,1016.78,3467.48Zm-2.26,3.98h-1.37a0.1,0.1,0,0,1-.1-0.1v-1.22a0.094,0.094,0,0,1,.1-0.1h1.37a0.094,0.094,0,0,1,.1.1v1.22A0.1,0.1,0,0,1,1014.52,3471.46Zm0-1.99h-1.37a0.1,0.1,0,0,1-.1-0.1v-1.22a0.094,0.094,0,0,1,.1-0.1h1.37a0.094,0.094,0,0,1,.1.1v1.22A0.1,0.1,0,0,1,1014.52,3469.47Zm-2.25,1.99h-1.37a0.1,0.1,0,0,1-.1-0.1v-1.22a0.094,0.094,0,0,1,.1-0.1h1.37a0.094,0.094,0,0,1,.1.1v1.22A0.1,0.1,0,0,1,1012.27,3471.46Zm0-1.99h-1.37a0.1,0.1,0,0,1-.1-0.1v-1.22a0.094,0.094,0,0,1,.1-0.1h1.37a0.094,0.094,0,0,1,.1.1v1.22A0.1,0.1,0,0,1,1012.27,3469.47Zm5.89-5.69h-0.17a0.472,0.472,0,0,1-.47-0.48v-1.82a0.472,0.472,0,0,1,.47-0.48h0.17a0.48,0.48,0,0,1,.48.48v1.82A0.48,0.48,0,0,1,1018.16,3463.78Zm-6.06.02h-0.17a0.478,0.478,0,0,1-.47-0.48v-1.83a0.478,0.478,0,0,1,.47-0.48h0.17a0.487,0.487,0,0,1,.48.48v1.83A0.487,0.487,0,0,1,1012.1,3463.8Z" transform="translate(-1009 -3461)"/></svg>