<svg xmlns="http://www.w3.org/2000/svg" width="26" height="26" viewBox="0 0 26 26"><defs><style>.cls-1{fill:#fff;fill-rule:evenodd}</style></defs><path id="Forma_1" data-name="Forma 1" class="cls-1" d="M537,149a13,13,0,1,0,13,13A13.015,13.015,0,0,0,537,149Zm0,25.072A12.072,12.072,0,1,1,549.071,162,12.086,12.086,0,0,1,537,174.071Zm5.571-17.643H531.428a0.464,0.464,0,1,0,0,.928h11.143A0.464,0.464,0,0,0,542.571,156.428Zm0,5.107H531.428a0.465,0.465,0,0,0,0,.929h11.143A0.465,0.465,0,0,0,542.571,161.535Zm0,5.107H531.428a0.465,0.465,0,0,0,0,.929h11.143A0.465,0.465,0,0,0,542.571,166.642Z" transform="translate(-524 -149)"/></svg>