<svg xmlns="http://www.w3.org/2000/svg" width="17" height="17" viewBox="0 0 17 17"><defs><style>.cls-1{fill:#008c82;fill-rule:evenodd}</style></defs><path class="cls-1" d="M791.5,400a8.5,8.5,0,1,1,8.5-8.5A8.5,8.5,0,0,1,791.5,400Zm0-15.407a6.907,6.907,0,1,0,6.906,6.907A6.908,6.908,0,0,0,791.5,384.593Zm3.752,5.345L791,394.188h0a0.8,0.8,0,0,1-1.127,0h0l-2.39-2.391h0a0.8,0.8,0,1,1,1.126-1.126h0l1.827,1.827,3.687-3.687h0a0.8,0.8,0,0,1,1.128,1.127h0Zm-0.033-1.36h0Zm-6.64,6.64h0Zm5.843,0h0Zm0.8-.8h0Z" transform="translate(-783 -383)"/></svg>