<svg xmlns="http://www.w3.org/2000/svg" width="241" height="94" viewBox="0 0 241 94"><defs><style>.cls-1{fill:#008c82;fill-rule:evenodd}</style></defs><path class="cls-1" d="M512.893,88.512c12.022,0.031,31.949.033,43.971,0.028v-46.9H513.535a23.437,23.437,0,0,0-.642,46.87m86.872-58.525H513.771a34.965,34.965,0,0,0-.795,69.924c23.753,0.062,63.037.01,86.789,0.01A35.1,35.1,0,0,0,635,64.955C635,45.642,621.238,29.988,599.765,29.988ZM460.439,94.111a5.856,5.856,0,0,0,11.711,0h0.016V35.8H472.15a5.856,5.856,0,0,0-11.711,0h-0.017V59.127H405.745V35.8h-0.017a5.856,5.856,0,0,0-11.711,0H394V94.111h0.017a5.856,5.856,0,0,0,11.711,0h0.017V70.783h54.677V94.111h0.017ZM620.894,123.9l1.319-9.76a3.266,3.266,0,0,1,.745-1.847,1.966,1.966,0,0,1,1.515-.647,2.032,2.032,0,0,1,1.467.574,3.342,3.342,0,0,1,.858,1.669l0.79,3.348a11.528,11.528,0,0,1,.354,2.26,12.758,12.758,0,0,1,.355-2.26l0.8-3.348a3.342,3.342,0,0,1,.857-1.669,2.032,2.032,0,0,1,1.467-.574,1.958,1.958,0,0,1,1.518.653,3.249,3.249,0,0,1,.743,1.841L635,123.9h-2.9l-0.678-7.55q-0.093-1.113-.152-2.21c-0.053.274-.127,0.634-0.216,1.083s-0.163.8-.219,1.043l-1.265,5.876a3.409,3.409,0,0,1-.591,1.415,1.414,1.414,0,0,1-2.058,0,3.409,3.409,0,0,1-.59-1.415l-1.265-5.876c-0.1-.485-0.186-0.9-0.25-1.23s-0.13-.631-0.186-0.9c0,0.522-.045,1.261-0.135,2.21l-0.677,7.55h-2.919Zm-19.059,0V116.15a4.85,4.85,0,0,1,.543-2.291,4.03,4.03,0,0,1,1.56-1.632,4.542,4.542,0,0,1,2.35-.6,4.253,4.253,0,0,1,2.153.583,4.345,4.345,0,0,1,1.583,1.557,4.092,4.092,0,0,1,.582,2.129,4.451,4.451,0,0,1-.573,2.238,4.133,4.133,0,0,1-1.634,1.587,5,5,0,0,1-2.432.578l-0.556-3.2a1.06,1.06,0,0,0,.877.318,1.216,1.216,0,0,0,.933-0.416,1.444,1.444,0,0,0,.383-1.021,1.645,1.645,0,0,0-.335-1.057,1.259,1.259,0,0,0-1.052-.419,1.243,1.243,0,0,0-.651.187,1.376,1.376,0,0,0-.5.561,1.905,1.905,0,0,0-.191.876V123.9h-3.036Zm-15.872-9.341a1.441,1.441,0,0,0-1.2.527,2.391,2.391,0,0,0-.419,1.515v1.356H587.6v-1.49a2.066,2.066,0,0,0-.445-1.392A1.488,1.488,0,0,0,585.963,114.56Zm-4.621,9.341v-7.132a6.5,6.5,0,0,1,.334-2.145,4.635,4.635,0,0,1,.956-1.63,4.093,4.093,0,0,1,1.464-1.015,5.184,5.184,0,0,1,3.74,0,4.094,4.094,0,0,1,1.47,1.018,4.631,4.631,0,0,1,.961,1.629,6.481,6.481,0,0,1,.335,2.143V123.9h-3v-3.114h-3.256V123.9h-3Zm-19.755,0v-7.768a1.871,1.871,0,0,0-.191-0.873,1.38,1.38,0,0,0-.5-0.561,1.4,1.4,0,0,0-1.707.232,1.64,1.64,0,0,0-.334,1.054,1.445,1.445,0,0,0,.385,1.021,1.224,1.224,0,0,0,.93.416,1.055,1.055,0,0,0,.878-0.318l-0.56,3.2a4.99,4.99,0,0,1-2.429-.578,4.124,4.124,0,0,1-1.633-1.587,4.442,4.442,0,0,1-.574-2.238,4.074,4.074,0,0,1,.582-2.126,4.33,4.33,0,0,1,1.583-1.557,4.243,4.243,0,0,1,2.153-.586,4.8,4.8,0,0,0,5.87,0,4.232,4.232,0,0,1,2.148.583,4.384,4.384,0,0,1,1.583,1.554,4.071,4.071,0,0,1,.587,2.132,4.451,4.451,0,0,1-.573,2.238,4.1,4.1,0,0,1-1.633,1.587,5.01,5.01,0,0,1-2.432.578l-0.557-3.2a1.062,1.062,0,0,0,.877.318,1.217,1.217,0,0,0,.934-0.416,1.443,1.443,0,0,0,.382-1.021,1.639,1.639,0,0,0-.335-1.057,1.373,1.373,0,0,0-1.993.017,1.679,1.679,0,0,0-.4,1.188V123.9h-3.037Zm-36.166-9.341a1.44,1.44,0,0,0-1.2.527,2.389,2.389,0,0,0-.419,1.515v1.356h3.255v-1.49a2.065,2.065,0,0,0-.444-1.392A1.488,1.488,0,0,0,525.421,114.56ZM520.8,123.9v-7.132a6.5,6.5,0,0,1,.335-2.145,4.62,4.62,0,0,1,.956-1.63,4.088,4.088,0,0,1,1.465-1.015,5.182,5.182,0,0,1,3.739,0,4.094,4.094,0,0,1,1.47,1.018,4.631,4.631,0,0,1,.961,1.629,6.455,6.455,0,0,1,.335,2.143V123.9h-3v-3.114H523.8V123.9h-3Zm-14.522-2.947v-4.338a2.316,2.316,0,0,0-.424-1.5,1.47,1.47,0,0,0-1.212-.522,1.446,1.446,0,0,0-1.2.522,2.328,2.328,0,0,0-.422,1.5v4.338h3.255Zm-1.633-9.307a4.639,4.639,0,0,1,2.4.619,4.176,4.176,0,0,1,1.636,1.783,6.064,6.064,0,0,1,.582,2.737v4.168h0.843V123.9H499.092v-2.947h0.927v-4.168a6.064,6.064,0,0,1,.583-2.737,4.168,4.168,0,0,1,1.635-1.783A4.653,4.653,0,0,1,504.644,111.647Zm-24.983.2h3.019v4.8l3.256-4.818h3.289l-3.509,4.818a2.6,2.6,0,0,1,1.406.377,2.56,2.56,0,0,1,.914.971,2.589,2.589,0,0,1,.312,1.217V123.9h-2.986v-4.068a1.541,1.541,0,0,0-.376-1.044,1.288,1.288,0,0,0-1.024-.429,1.153,1.153,0,0,0-.942.407,1.613,1.613,0,0,0-.34,1.066V123.9h-3.019v-4.068a1.626,1.626,0,0,0-.337-1.068,1.159,1.159,0,0,0-.945-0.405,1.292,1.292,0,0,0-1.021.429,1.529,1.529,0,0,0-.379,1.044V123.9h-2.985v-4.687a2.6,2.6,0,0,1,.311-1.219,2.541,2.541,0,0,1,.917-0.972,2.622,2.622,0,0,1,1.4-.374l-3.509-4.818h3.29l3.255,4.818v-4.8Zm-23.344,0h6.41v2.829h-3.39v1.573h3.39v2.813h-3.39v0.787a1.114,1.114,0,0,0,1.281,1.238h2.109V123.9h-2.16a4.514,4.514,0,0,1-3.2-.991,4,4,0,0,1-1.048-3.043v-8.019Zm-14.539,9.106v-4.338a2.316,2.316,0,0,0-.425-1.5,1.47,1.47,0,0,0-1.212-.522,1.448,1.448,0,0,0-1.2.522,2.334,2.334,0,0,0-.421,1.5v4.338h3.255Zm-1.633-9.307a4.642,4.642,0,0,1,2.4.619,4.174,4.174,0,0,1,1.635,1.783,6.064,6.064,0,0,1,.582,2.737v4.168h0.844V123.9H434.592v-2.947h0.928v-4.168a6.064,6.064,0,0,1,.582-2.737,4.176,4.176,0,0,1,1.636-1.783A4.651,4.651,0,0,1,440.145,111.647Zm-20.834,2.913a1.44,1.44,0,0,0-1.2.527,2.4,2.4,0,0,0-.419,1.515v1.356h3.255v-1.49a2.071,2.071,0,0,0-.444-1.392A1.489,1.489,0,0,0,419.311,114.56Zm-4.622,9.341v-7.132a6.5,6.5,0,0,1,.335-2.145,4.62,4.62,0,0,1,.956-1.63,4.093,4.093,0,0,1,1.464-1.015,5.182,5.182,0,0,1,3.739,0A4.1,4.1,0,0,1,422.654,113a4.631,4.631,0,0,1,.961,1.629,6.481,6.481,0,0,1,.335,2.143V123.9h-3v-3.114h-3.255V123.9h-3Zm-20.611,0V111.848H397.1v4.268h3.222v-4.268h3V123.9h-3v-4.872H397.1V123.9h-3.019Z" transform="translate(-394 -30)"/></svg>