<svg xmlns="http://www.w3.org/2000/svg" width="227" height="88.78" viewBox="0 0 227 88.78"><defs><style>.cls-1{fill:#fff;fill-rule:evenodd}</style></defs><path id="Shape_722_copy_2" data-name="Shape 722 copy 2" class="cls-1" d="M503.986,4510.48c11.324,0.03,30.093.03,41.417,0.03v-44.3H504.591a22.138,22.138,0,0,0-.605,44.27m81.826-55.28h-81a33.028,33.028,0,0,0-.749,66.05c22.372,0.06,59.374.01,81.747,0.01A33.11,33.11,0,0,0,619,4488.23C619,4469.99,606.037,4455.2,585.812,4455.2Zm-131.233,60.57a5.516,5.516,0,0,0,11.031,0h0.016v-55.08H465.61a5.516,5.516,0,0,0-11.031,0h-0.016v22.04h-51.5v-22.04h-0.015a5.516,5.516,0,0,0-11.031,0H392v55.08h0.016a5.516,5.516,0,0,0,11.031,0h0.015v-22.03h51.5v22.03h0.016Zm151.135,28.14,1.242-9.22a3.1,3.1,0,0,1,.7-1.75,1.844,1.844,0,0,1,1.427-.61,1.882,1.882,0,0,1,1.382.55,3.128,3.128,0,0,1,.808,1.57l0.744,3.16a11.037,11.037,0,0,1,.333,2.14,12.162,12.162,0,0,1,.334-2.14l0.75-3.16a3.127,3.127,0,0,1,.807-1.57,1.882,1.882,0,0,1,1.382-.55,1.852,1.852,0,0,1,1.43.62,3.084,3.084,0,0,1,.7,1.74l1.242,9.22h-2.732l-0.639-7.13c-0.058-.71-0.106-1.4-0.143-2.09-0.05.26-.119,0.6-0.2,1.02s-0.153.75-.206,0.99l-1.192,5.55a3.176,3.176,0,0,1-.556,1.33,1.328,1.328,0,0,1-1.938,0,3.189,3.189,0,0,1-.556-1.33l-1.192-5.55c-0.1-.46-0.175-0.85-0.235-1.17s-0.122-.59-0.175-0.84c0,0.49-.043,1.19-0.127,2.09l-0.638,7.13h-2.749Zm-17.952,0v-7.32a4.606,4.606,0,0,1,.511-2.17,3.776,3.776,0,0,1,1.469-1.54,4.241,4.241,0,0,1,2.214-.56,3.917,3.917,0,0,1,2.028.55,4.043,4.043,0,0,1,1.491,1.47,3.833,3.833,0,0,1,.548,2.01,4.194,4.194,0,0,1-.54,2.11,3.824,3.824,0,0,1-1.538,1.5,4.634,4.634,0,0,1-2.291.55l-0.524-3.02a1,1,0,0,0,.826.3,1.123,1.123,0,0,0,.879-0.4,1.358,1.358,0,0,0,.36-0.96,1.559,1.559,0,0,0-.315-1,1.194,1.194,0,0,0-.99-0.39,1.146,1.146,0,0,0-.615.17,1.334,1.334,0,0,0-.474.53,1.825,1.825,0,0,0-.18.83v7.34h-2.859Zm-14.95-8.83a1.363,1.363,0,0,0-1.131.5,2.263,2.263,0,0,0-.394,1.43v1.28h3.066v-1.4a1.982,1.982,0,0,0-.418-1.32A1.421,1.421,0,0,0,572.812,4535.08Zm-4.353,8.83v-6.74a6.2,6.2,0,0,1,.315-2.03,4.35,4.35,0,0,1,.9-1.53,3.656,3.656,0,0,1,1.38-.96,4.864,4.864,0,0,1,3.522,0,3.678,3.678,0,0,1,1.384.96,4.275,4.275,0,0,1,.906,1.54,6.1,6.1,0,0,1,.315,2.02v6.74h-2.828v-2.94h-3.066v2.94h-2.828Zm-18.607,0v-7.34a1.754,1.754,0,0,0-.18-0.82,1.26,1.26,0,0,0-.472-0.53,1.151,1.151,0,0,0-.619-0.18,1.193,1.193,0,0,0-.988.39,1.579,1.579,0,0,0-.315,1,1.361,1.361,0,0,0,.363.96,1.13,1.13,0,0,0,.876.4,0.992,0.992,0,0,0,.827-0.3l-0.527,3.02a4.62,4.62,0,0,1-2.288-.55,3.82,3.82,0,0,1-1.539-1.5,4.194,4.194,0,0,1-.54-2.11,3.842,3.842,0,0,1,.548-2.01,4.028,4.028,0,0,1,1.491-1.47,3.932,3.932,0,0,1,2.028-.55,4.535,4.535,0,0,0,5.529,0,3.9,3.9,0,0,1,2.023.55,4.058,4.058,0,0,1,1.491,1.47,3.82,3.82,0,0,1,.554,2.01,4.194,4.194,0,0,1-.54,2.11,3.808,3.808,0,0,1-1.539,1.5,4.638,4.638,0,0,1-2.29.55l-0.525-3.02a1,1,0,0,0,.826.3,1.127,1.127,0,0,0,.88-0.4,1.363,1.363,0,0,0,.36-0.96,1.554,1.554,0,0,0-.316-1,1.187,1.187,0,0,0-.984-0.39,1.156,1.156,0,0,0-.893.41,1.581,1.581,0,0,0-.381,1.12v7.34h-2.86Zm-34.065-8.83a1.361,1.361,0,0,0-1.131.5,2.263,2.263,0,0,0-.394,1.43v1.28h3.066v-1.4a1.982,1.982,0,0,0-.418-1.32A1.419,1.419,0,0,0,515.787,4535.08Zm-4.353,8.83v-6.74a6.2,6.2,0,0,1,.315-2.03,4.35,4.35,0,0,1,.9-1.53,3.656,3.656,0,0,1,1.38-.96,4.861,4.861,0,0,1,3.521,0,3.674,3.674,0,0,1,1.385.96,4.275,4.275,0,0,1,.906,1.54,6.1,6.1,0,0,1,.315,2.02v6.74h-2.828v-2.94h-3.066v2.94h-2.828Zm-13.679-2.79v-4.09a2.177,2.177,0,0,0-.4-1.42,1.378,1.378,0,0,0-1.141-.49,1.359,1.359,0,0,0-1.128.49,2.195,2.195,0,0,0-.4,1.42v4.09h3.066Zm-1.538-8.79a4.363,4.363,0,0,1,2.261.59,3.944,3.944,0,0,1,1.541,1.68,5.778,5.778,0,0,1,.548,2.59v3.93h0.8v2.79H490.987v-2.79h0.874v-3.93a5.778,5.778,0,0,1,.548-2.59,3.944,3.944,0,0,1,1.541-1.68A4.372,4.372,0,0,1,496.217,4532.33Zm-23.532.19h2.844v4.54l3.066-4.55h3.1l-3.3,4.55a2.506,2.506,0,0,1,1.324.35,2.465,2.465,0,0,1,1.154,2.07v4.43h-2.812v-3.85a1.445,1.445,0,0,0-.355-0.98,1.215,1.215,0,0,0-.964-0.41,1.083,1.083,0,0,0-.887.39,1.515,1.515,0,0,0-.32,1v3.85h-2.844v-3.85a1.507,1.507,0,0,0-.318-1,1.083,1.083,0,0,0-.89-0.39,1.221,1.221,0,0,0-.961.41,1.437,1.437,0,0,0-.358.98v3.85h-2.811v-4.43a2.445,2.445,0,0,1,.293-1.15,2.386,2.386,0,0,1,.863-0.92,2.5,2.5,0,0,1,1.322-.35l-3.305-4.55h3.1l3.066,4.55v-4.54Zm-21.988,0h6.037v2.67h-3.193v1.49h3.193v2.66h-3.193v0.74a1.051,1.051,0,0,0,1.207,1.17h1.986v2.66H454.7a4.22,4.22,0,0,1-3.016-.94,3.769,3.769,0,0,1-.988-2.87v-7.58ZM437,4541.12v-4.09a2.183,2.183,0,0,0-.4-1.42,1.38,1.38,0,0,0-1.142-.49,1.36,1.36,0,0,0-1.128.49,2.195,2.195,0,0,0-.4,1.42v4.09H437Zm-1.538-8.79a4.367,4.367,0,0,1,2.262.59,3.942,3.942,0,0,1,1.54,1.68,5.765,5.765,0,0,1,.549,2.59v3.93h0.794v2.79H430.234v-2.79h0.874v-3.93a5.778,5.778,0,0,1,.548-2.59,3.95,3.95,0,0,1,1.541-1.68A4.378,4.378,0,0,1,435.464,4532.33Zm-19.623,2.75a1.361,1.361,0,0,0-1.131.5,2.263,2.263,0,0,0-.394,1.43v1.28h3.066v-1.4a1.977,1.977,0,0,0-.419-1.32A1.417,1.417,0,0,0,415.841,4535.08Zm-4.353,8.83v-6.74a6.177,6.177,0,0,1,.315-2.03,4.335,4.335,0,0,1,.9-1.53,3.661,3.661,0,0,1,1.379-.96,4.864,4.864,0,0,1,3.522,0,3.682,3.682,0,0,1,1.385.96,4.275,4.275,0,0,1,.906,1.54,6.1,6.1,0,0,1,.315,2.02v6.74h-2.828v-2.94h-3.066v2.94h-2.828Zm-19.415,0v-11.39h2.845v4.03h3.034v-4.03h2.828v11.39h-2.828v-4.6h-3.034v4.6h-2.845Z" transform="translate(-392 -4455.22)"/></svg>