<svg xmlns="http://www.w3.org/2000/svg" width="13" height="10" viewBox="0 0 13 10"><defs><style>.cls-1{fill:#008c82;fill-rule:evenodd}</style></defs><path class="cls-1" d="M432.655,510.667a1.124,1.124,0,0,1-.818.333H421.158a1.124,1.124,0,0,1-.818-0.333,1.081,1.081,0,0,1-.343-0.8v-5.641a3.851,3.851,0,0,0,.732.618q2.628,1.749,3.607,2.451c0.275,0.2.5,0.354,0.67,0.466a4.214,4.214,0,0,0,.687.34,2.118,2.118,0,0,0,.8.174H426.5a2.126,2.126,0,0,0,.8-0.174,4.3,4.3,0,0,0,.687-0.34c0.171-.112.4-0.267,0.67-0.466q1.233-.873,3.612-2.451a3.817,3.817,0,0,0,.725-0.618v5.641A1.079,1.079,0,0,1,432.655,510.667Zm-0.9-6.586q-2.728,1.855-3.395,2.309c-0.048.033-.152,0.105-0.31,0.217s-0.288.2-.391,0.27-0.229.145-.377,0.231a2.315,2.315,0,0,1-.417.191,1.17,1.17,0,0,1-.364.064h-0.013a1.16,1.16,0,0,1-.364-0.064,2.254,2.254,0,0,1-.417-0.191q-0.222-.129-0.377-0.231c-0.105-.069-0.234-0.159-0.391-0.27l-0.308-.217q-0.662-.454-1.9-1.3t-1.486-1.013a3.529,3.529,0,0,1-.849-0.82,1.641,1.641,0,0,1-.4-0.97,1.411,1.411,0,0,1,.3-0.923,1.047,1.047,0,0,1,.86-0.37h10.679a1.132,1.132,0,0,1,.815.334,1.073,1.073,0,0,1,.344.8,1.868,1.868,0,0,1-.353,1.072A3.438,3.438,0,0,1,431.758,504.081Z" transform="translate(-420 -501)"/></svg>