<svg xmlns="http://www.w3.org/2000/svg" width="39" height="28" viewBox="0 0 39 28"><defs><style>.cls-1{fill:#008c82;fill-rule:evenodd}</style></defs><path class="cls-1" d="M449.851,3989H417.137a3.16,3.16,0,0,1-3.142-3.17v-21.66a3.16,3.16,0,0,1,3.142-3.17h32.714a3.158,3.158,0,0,1,3.143,3.17v21.66A3.158,3.158,0,0,1,449.851,3989Zm-34.6-3.17a1.893,1.893,0,0,0,1.884,1.9h32.714a1.9,1.9,0,0,0,1.89-1.9v-21.66a1.942,1.942,0,0,0-.149-0.73L438.8,3974.71l7.2,6.82a0.633,0.633,0,0,1,.027.89,0.614,0.614,0,0,1-.458.21,0.608,0.608,0,0,1-.43-0.18l-7.238-6.85a0.535,0.535,0,0,1-.031-0.07l-2.071,1.82a3.595,3.595,0,0,1-4.619,0l-2.067-1.82a0.535,0.535,0,0,1-.031.07l-7.239,6.85a0.605,0.605,0,0,1-.889-0.03,0.632,0.632,0,0,1,.027-0.89l7.2-6.82L415.4,3963.44a1.9,1.9,0,0,0-.145.73v21.66Zm1.884-23.56a1.856,1.856,0,0,0-.875.24l15.75,13.88a2.327,2.327,0,0,0,2.963,0l15.755-13.87a1.774,1.774,0,0,0-.879-0.25H417.137Z" transform="translate(-414 -3961)"/></svg>