<svg id="Слой_1" xmlns="http://www.w3.org/2000/svg" viewBox="0 0 41 41"><style>.st0,.st1{fill-rule:evenodd;clip-rule:evenodd;fill:#ff8533}.st1{fill:#fff}</style><path class="st0" d="M20.5,0C31.8,0,41,9.2,41,20.5S31.8,41,20.5,41S0,31.8,0,20.5S9.2,0,20.5,0z"/><path class="st1" d="M29.8,11C24.6,5.9,16.2,5.9,11,11c-1.8,1.8-3.1,4.1-3.6,6.6c-0.5,2.4-0.3,5,0.5,7.3c0.1,0.3,0.4,0.4,0.7,0.3 c0.3-0.1,0.4-0.4,0.3-0.7c-0.8-2.1-0.9-4.5-0.5-6.7c0.5-2.3,1.6-4.4,3.3-6.1C16.6,7,24.3,7,29,11.8c2.3,2.3,3.5,5.3,3.6,8.5 c0,3.2-1.2,6.2-3.3,8.5c0,0-0.1,0.1-0.1,0.1c0,0-0.1,0.1-0.1,0.1c-4.8,4.8-12.5,4.8-17.2,0c0,0,0-0.1-0.1-0.1c0,0,0-0.1,0-0.1 c0-0.1,0-0.2,0-0.3c0,0,0-0.1,0-0.1c0-0.1,0-0.1,0-0.2c0,0,0-0.1,0-0.1c0-0.1,0-0.1,0-0.2c0,0,0-0.1,0-0.1c0-0.1,0-0.1,0-0.2 c0,0,0-0.1,0-0.1c0-0.1,0-0.1,0-0.2c0,0,0-0.1,0-0.1c0-0.1,0-0.1,0-0.2c0,0,0-0.1,0-0.1c0-0.1,0-0.1,0-0.2c0,0,0-0.1,0-0.1 c0-0.1,0-0.1,0-0.2c0,0,0-0.1,0-0.1c0-0.1,0-0.1,0.1-0.2c0,0,0-0.1,0-0.1c0-0.1,0-0.1,0.1-0.2c0,0,0-0.1,0.1-0.1 c0-0.1,0-0.1,0.1-0.2c0,0,0-0.1,0.1-0.1c0-0.1,0-0.1,0.1-0.2c0,0,0-0.1,0.1-0.1c0-0.1,0-0.1,0.1-0.2c0,0,0-0.1,0.1-0.1 c0,0,0.1-0.1,0.1-0.1c0,0,0-0.1,0.1-0.1c0,0,0.1-0.1,0.1-0.1c0,0,0-0.1,0.1-0.1c0,0,0.1-0.1,0.1-0.1c0,0,0.1-0.1,0.1-0.1 c0,0,0.1-0.1,0.1-0.1c0,0,0.1-0.1,0.1-0.1c0,0,0.1-0.1,0.1-0.1c0,0,0.1-0.1,0.1-0.1c0,0,0.1-0.1,0.1-0.1c0,0,0.1-0.1,0.1-0.1 c0,0,0.1-0.1,0.1-0.1c0,0,0.1-0.1,0.1-0.1c0,0,0.1-0.1,0.1-0.1c0,0,0.1-0.1,0.1-0.1c0,0,0.1-0.1,0.1-0.1c0,0,0.1-0.1,0.1-0.1 c0,0,0.1-0.1,0.1-0.1c0,0,0.1-0.1,0.1-0.1c0,0,0.1-0.1,0.1-0.1c0,0,0.1-0.1,0.1-0.1c0,0,0.1-0.1,0.1-0.1c0,0,0.1-0.1,0.1-0.1 c0.1,0,0.1-0.1,0.2-0.1c0,0,0.1,0,0.1-0.1c0.1,0,0.1-0.1,0.2-0.1c0,0,0.1,0,0.1-0.1c0.1,0,0.2-0.1,0.2-0.1c0,0,0,0,0,0 c0.1-0.1,0.2-0.1,0.3-0.2c0,0,0.1,0,0.1-0.1c0.1,0,0.1-0.1,0.2-0.1c0,0,0.1,0,0.1-0.1c0.1,0,0.1-0.1,0.2-0.1 c1,0.9,2.3,1.5,3.6,1.5c1.4,0,2.7-0.5,3.6-1.5c1.9,0.9,3.5,2.5,4.3,4.4c0.1,0.3,0.4,0.4,0.7,0.3c0.3-0.1,0.4-0.4,0.3-0.7 c-0.9-2.1-2.5-3.8-4.6-4.8c0.6-0.9,0.9-1.9,0.9-3c0-2.9-2.4-5.3-5.3-5.3c-0.3,0-0.5,0.2-0.5,0.5c0,0.3,0.2,0.5,0.5,0.5 c2.3,0,4.2,1.9,4.2,4.2c0,1-0.4,2-1.1,2.8c0,0,0,0,0,0c-0.8,0.9-1.9,1.4-3.1,1.4c-1.2,0-2.3-0.5-3.1-1.4c0,0,0,0,0,0 c-0.7-0.8-1.1-1.8-1.1-2.8c0-1.1,0.4-2.2,1.2-3c0.2-0.2,0.2-0.6,0-0.8c-0.2-0.2-0.6-0.2-0.8,0c-1,1-1.6,2.3-1.6,3.7 c0,1.1,0.3,2.1,0.9,3c0,0,0,0,0,0c0,0-0.1,0-0.1,0.1c-0.1,0-0.1,0.1-0.2,0.1c0,0-0.1,0-0.1,0.1c-0.1,0-0.1,0.1-0.2,0.1 c0,0-0.1,0.1-0.1,0.1c-0.1,0-0.1,0.1-0.2,0.1c0,0-0.1,0.1-0.1,0.1c-0.1,0-0.1,0.1-0.2,0.1c0,0-0.1,0.1-0.1,0.1 c-0.1,0-0.1,0.1-0.2,0.1c0,0-0.1,0.1-0.1,0.1c0,0-0.1,0.1-0.1,0.1c0,0-0.1,0.1-0.1,0.1c0,0-0.1,0.1-0.1,0.1c0,0-0.1,0.1-0.1,0.1 c0,0-0.1,0.1-0.1,0.1c0,0-0.1,0.1-0.1,0.1c0,0-0.1,0.1-0.1,0.1c0,0-0.1,0.1-0.1,0.1c0,0-0.1,0.1-0.1,0.1c0,0-0.1,0.1-0.1,0.1 c0,0-0.1,0.1-0.1,0.1c0,0-0.1,0.1-0.1,0.1c0,0.1-0.1,0.1-0.1,0.2c0,0-0.1,0.1-0.1,0.1c0,0.1-0.1,0.1-0.1,0.2c0,0-0.1,0.1-0.1,0.1 c-0.1,0.1-0.1,0.1-0.2,0.2c0,0,0,0,0,0.1c-0.1,0.1-0.1,0.2-0.2,0.3c0,0,0,0.1-0.1,0.1c0,0.1-0.1,0.1-0.1,0.2c0,0,0,0.1-0.1,0.1 c0,0.1-0.1,0.1-0.1,0.2c0,0,0,0.1-0.1,0.1c0,0.1-0.1,0.1-0.1,0.2c0,0,0,0.1-0.1,0.1c0,0.1-0.1,0.1-0.1,0.2c0,0,0,0.1-0.1,0.1 c0,0.1,0,0.1-0.1,0.2c0,0,0,0.1-0.1,0.1c0,0.1,0,0.1-0.1,0.2c0,0.1,0,0.1-0.1,0.2c0,0.1,0,0.1-0.1,0.2c0,0.1,0,0.1,0,0.2 c0,0.1,0,0.1-0.1,0.2c0,0.1,0,0.1,0,0.2c0,0.1,0,0.1,0,0.2c0,0.1,0,0.1,0,0.2c0,0.1,0,0.1,0,0.2c0,0.1,0,0.1,0,0.2 c0,0.1,0,0.1,0,0.2c0,0.1,0,0.1,0,0.2c0,0.1,0,0.1,0,0.2c0,0,0,0.1,0,0.2c0,0.1,0,0.1,0,0.2c0,0,0,0.1,0,0.1c0,0.1,0,0.2,0,0.2 c0,0,0,0.1,0,0.1c0,0.1,0,0.2,0,0.4c0,0.1,0,0.3,0,0.4c0,0,0,0.1,0,0.1c0,0,0,0,0,0c0,0,0,0.1,0,0.1c0,0,0,0,0,0c0,0,0,0.1,0,0.1 c0,0,0,0,0,0c0,0,0,0,0.1,0.1c0,0,0,0,0,0l0.1,0.1c0.1,0.1,0.1,0.1,0.2,0.2c2.6,2.6,6,3.9,9.4,3.9c3.4,0,6.8-1.3,9.4-3.9 c0.1-0.1,0.1-0.1,0.2-0.2l0.1-0.1c2.4-2.5,3.7-5.8,3.6-9.3C33.6,16.8,32.3,13.5,29.8,11z M21,29.4v-2.1h2.1v-1.1H21v-2.1h-1.1v2.1 h-2.1v1.1h2.1v2.1H21z"/></svg>