<svg xmlns="http://www.w3.org/2000/svg" width="19.32" height="15.87" viewBox="0 0 19.32 15.87"><defs><style>.cls-1{fill:#008c82;fill-rule:evenodd}</style></defs><path id="_" data-name="“" class="cls-1" d="M1015.02,3500.96c-1.15-.83-1.72-1.62-1.72-2.38a8.172,8.172,0,0,1,1.81-4.13,3.929,3.929,0,0,0,.66-1.1,1.193,1.193,0,0,0-.62-0.66l-0.24-.14a2.672,2.672,0,0,0-1.02-.59,4.5,4.5,0,0,0-1.7,1.32,14.462,14.462,0,0,0-2.6,3.87,10.814,10.814,0,0,0-1.27,4.82,6.836,6.836,0,0,0,1.29,4.06,3.961,3.961,0,0,0,3.37,1.82,3.624,3.624,0,0,0,2.7-1.07,3.513,3.513,0,0,0,1.06-2.56A3.806,3.806,0,0,0,1015.02,3500.96Zm10.88,0c-1.16-.83-1.74-1.62-1.74-2.38,0-1.01.61-2.39,1.83-4.13a3.929,3.929,0,0,0,.66-1.1,1.161,1.161,0,0,0-.61-0.66l-0.24-.14a2.611,2.611,0,0,0-1.03-.59q-0.855,0-3.21,3.37a11.583,11.583,0,0,0-2.35,6.64,6.836,6.836,0,0,0,1.29,4.06,3.949,3.949,0,0,0,3.37,1.82,3.648,3.648,0,0,0,2.69-1.07,3.522,3.522,0,0,0,1.07-2.56A3.815,3.815,0,0,0,1025.9,3500.96Z" transform="translate(-1008.31 -3491.97)"/></svg>