<svg xmlns="http://www.w3.org/2000/svg" width="20" height="20" viewBox="0 0 20 20"><defs><style>.cls-1{fill:#fff;fill-rule:evenodd}</style></defs><path class="cls-1" d="M1522.45,112.45a1.873,1.873,0,0,1-2.65,0l-4.59-4.589a8.816,8.816,0,0,0,2.65-2.651l4.59,4.589A1.878,1.878,0,0,1,1522.45,112.45ZM1510.5,108a7.5,7.5,0,1,1,7.5-7.5A7.5,7.5,0,0,1,1510.5,108Zm0-13.125a5.625,5.625,0,1,0,5.62,5.625A5.637,5.637,0,0,0,1510.5,94.874Zm-3.13,5.625h-1.25a4.386,4.386,0,0,1,4.38-4.375v1.25A3.135,3.135,0,0,0,1507.37,100.5Z" transform="translate(-1503 -93)"/></svg>