<svg xmlns="http://www.w3.org/2000/svg" width="53.78" height="21" viewBox="0 0 53.78 21"><defs><style>.cls-1{fill:#fff;fill-rule:evenodd;opacity:.5}</style></defs><path class="cls-1" d="M1507.95,4703.64a0.7,0.7,0,0,0-.74-0.64,0.719,0.719,0,0,0-.74.66v5.35a5.768,5.768,0,0,0-4.74-1.48,5.113,5.113,0,0,0-4.36,5.51,5.3,5.3,0,0,0,7.4,4.16,5.049,5.049,0,0,0,3.17-4.92C1507.95,4710.86,1507.95,4704.61,1507.95,4703.64Zm-5.32,12.64a3.808,3.808,0,0,1-3.86-3.75,3.853,3.853,0,0,1,3.91-3.72A3.736,3.736,0,1,1,1502.63,4716.28Zm-6.4-3.96a5.338,5.338,0,0,0-5.22-4.85,5.15,5.15,0,1,0,1.13,10.18h0.01a5.433,5.433,0,0,0,2.73-1.53,0.639,0.639,0,0,0,.02-0.96,0.717,0.717,0,0,0-1-.01c-0.16.14-.32,0.28-0.5,0.42a4.041,4.041,0,0,1-6.15-1.77c-0.16-.44-0.15-0.46.35-0.46h7.62A0.838,0.838,0,0,0,1496.23,4712.32Zm-1.92-.37h-6.82c-0.32,0-.41-0.08-0.33-0.39a3.9,3.9,0,0,1,7.49-.04C1494.74,4711.85,1494.66,4711.95,1494.31,4711.95Zm35.47,0.95a5.093,5.093,0,0,0-3.18-4.93,5.306,5.306,0,0,0-7.4,4.17,5.177,5.177,0,0,0,4.36,5.51,5.38,5.38,0,0,0,4.15-1.01c0.16-.12.59-0.47,0.59-0.47v0.98a0.732,0.732,0,0,0,.74.66,0.766,0.766,0,0,0,.53-0.21,0.73,0.73,0,0,0,.21-0.44C1529.78,4716.19,1529.79,4714.32,1529.78,4712.9Zm-1.48-.29a3.781,3.781,0,0,1-3.79,3.76,3.738,3.738,0,1,1-.05-7.47A3.751,3.751,0,0,1,1528.3,4712.61Zm-10.37,4.36a0.728,0.728,0,0,1-.77.67,4.585,4.585,0,0,1-3.47-1.46,4.949,4.949,0,0,1-1.28-3.65c-0.01-1.13,0-8.82,0-8.82a0.735,0.735,0,0,1,1.47.01v4.78c0,0.37-.04.55,0.33,0.55h3.08a0.65,0.65,0,0,1,.67.63,0.674,0.674,0,0,1-.2.47,0.692,0.692,0,0,1-.43.2h-3.15c-0.21,0-.3.14-0.3,0.41,0.01,0.9,0,.96,0,2.26a3.237,3.237,0,0,0,2.91,3.19l0.46,0.06A0.706,0.706,0,0,1,1517.93,4716.97Zm-32.49-9.07a0.626,0.626,0,0,1-.06.27l-4.09,8.98a0.673,0.673,0,0,1-.56.28,0.758,0.758,0,0,1-.72-0.5c-0.03-.06-3.94-8.82-3.94-8.82a0.706,0.706,0,0,1-.06-0.28,0.673,0.673,0,0,1,.42-0.63,0.716,0.716,0,0,1,.93.35l3.39,7.4,0.01,0.01,3.32-7.34a0.718,0.718,0,0,1,.93-0.35A0.7,0.7,0,0,1,1485.44,4707.9Zm17.19,5.58a1.1,1.1,0,0,1-1.05-1.06,1.12,1.12,0,0,1,1.12-1.01,1.093,1.093,0,0,1,1.03,1.04A1.1,1.1,0,0,1,1502.63,4713.48Zm8.12,9.92a0.613,0.613,0,0,1-.62.6h-0.11a0.6,0.6,0,0,1-.61-0.6v-19.81a0.6,0.6,0,0,1,.61-0.6h0.11a0.613,0.613,0,0,1,.62.6v19.81Z" transform="translate(-1476 -4703)"/></svg>