<svg xmlns="http://www.w3.org/2000/svg" width="48" height="60" viewBox="0 0 48 60"><defs><style>.cls-1 { fill: #fff; fill-rule: evenodd; }</style></defs><path id="Forma_1" class="cls-1" d="M815 531a1 1 0 0 0 2 0 4 4 0 0 0-8 0 1 1 0 0 0 2 0 2 2 0 0 1 4 0zm14-4a4 4 0 0 0-4 4 1 1 0 0 0 2 0 2 2 0 0 1 4 0 1 1 0 0 0 2 0 4 4 0 0 0-4-4zm15-4v-14h-46v14h-1v46h48v-46h-1zm-2.5 0l-5.18-6.906 5.094-5.094h.586v12h-.5zm-33.5 0v-7l-.014-.07a1.1 1.1 0 0 0-.036-.187.868.868 0 0 0-.027-.125l-.037-.061a.946.946 0 0 0-.1-.152.977.977 0 0 0-.077-.113l-4.295-4.292h35.172l-4.292 4.292a1.122 1.122 0 0 0-.077.113.939.939 0 0 0-.1.152l-.038.061a.9.9 0 0 0-.027.125.922.922 0 0 0-.036.187l-.014.07v7h-26.002zm-5 0l3-4v4h-3zm33-4l3 4h-3v-4zm-36-8h.586l5.094 5.094-5.18 6.906h-.5v-12zm43 56h-44v-42h44v42zm-14-37a1 1 0 0 0-1 1v6a7 7 0 0 1-14 0v-6a1 1 0 0 0-2 0v6a9 9 0 0 0 18 0v-6a1 1 0 0 0-1-1z" transform="translate(-797 -509)"/></svg>