<svg xmlns="http://www.w3.org/2000/svg" width="46" height="52" viewBox="0 0 46 52"><defs><style>.cls-1 { fill: #fff; fill-rule: evenodd; }</style></defs><path id="Forma_1" class="cls-1" d="M1394.08 553.809c4.35-7.269 9.85-17.489 9.85-22.742a15.941 15.941 0 1 0-31.88 0c0 5.253 5.5 15.473 9.84 22.742-5.15.393-16.89 1.8-16.89 6.484 0 4.606 11.92 6.707 23 6.707s23-2.1 23-6.707c-.01-4.68-11.76-6.093-16.92-6.484zm-19.83-22.742a13.745 13.745 0 1 1 27.49 0c0 6.675-10.55 23.421-13.75 28.345-3.2-4.924-13.74-21.67-13.74-28.345zm13.74 33.715c-13.46 0-20.8-2.971-20.8-4.5 0-1.178 4.84-3.714 16-4.361 2.09 3.406 3.68 5.815 3.89 6.1a1.128 1.128 0 0 0 1.83 0c.22-.266 1.8-2.7 3.89-6.1 11.16.647 16 3.173 16 4.361-.01 1.539-7.35 4.5-20.81 4.5zm6.94-33.715a6.94 6.94 0 1 0-6.94 6.993 6.969 6.969 0 0 0 6.94-6.993zm-11.69 0a4.75 4.75 0 1 1 4.75 4.786 4.77 4.77 0 0 1-4.75-4.786z" transform="translate(-1365 -515)"/></svg>