<svg xmlns="http://www.w3.org/2000/svg" width="50" height="52" viewBox="0 0 50 52"><defs><style>.cls-1 { fill: #fff; fill-rule: evenodd; }</style></defs><path id="Forma_1" class="cls-1" d="M1091.47 343.1a16.1 16.1 0 0 0 3.64 10.111 10.989 10.989 0 0 0 17.79 0 16.119 16.119 0 0 0 3.62-10.108v-3.257c2.45-7.575 1.54-13.972.74-15.737v-.008l-.03-.047-.01-.026-.03-.041a.049.049 0 0 0-.02-.028.052.052 0 0 0-.02-.031l-.03-.032-.02-.024-.03-.032-.03-.021a.122.122 0 0 0-.04-.029l-.03-.021-.03-.023-.04-.022-.03-.015-.05-.022-.02-.009-.06-.018a.045.045 0 0 0-.02-.006.454.454 0 0 0-.05-.012l-.03-.006-.04-.006h-.22c-2.09.291-4.62-.2-7.3-.728-4.49-.88-9.13-1.786-12.76.737a.816.816 0 0 0-.17-.017c-3.72 0-6.32 3.007-6.32 7.312 0 3.328 1.44 9.538 1.64 10.4v1.766zm20.13 9.1a9.312 9.312 0 0 1-15.2 0 14.5 14.5 0 0 1-3.26-9.091v-.926c0-2.894 1.68-6.8 2.26-8.046a38.432 38.432 0 0 1 13.2.68 24.78 24.78 0 0 1 4.75 1.595l1.5 3.486v3.217a14.469 14.469 0 0 1-3.25 9.085zm-15.45-26.943a.944.944 0 0 0 .24-.033.844.844 0 0 0 .73-.133c3.06-2.266 7.42-1.412 11.64-.587a33.863 33.863 0 0 0 6.28.848c.3 0 .6-.012.89-.033a25.556 25.556 0 0 1-.4 11.951l-.76-1.767a.8.8 0 0 0-.37-.4c-.3-.165-7.67-4.038-19.67-2.532h-.01l-.05.008-.03.007-.03.009a.887.887 0 0 0-.29.14.83.83 0 0 0-.14.138l-.01.007a.062.062 0 0 1-.02.033.059.059 0 0 0-.02.033l-.02.025a.1.1 0 0 0-.02.047h-.01a35.159 35.159 0 0 0-1.74 4.4 40.511 40.511 0 0 1-.84-6.48c0-3.926 2.34-5.684 4.65-5.684zm31.26 38.8a8.114 8.114 0 0 0-4.53-3.221l-.05-.01-8.36-1.813a1.618 1.618 0 0 1-1.3-1.586v-.482a.829.829 0 0 0-.84-.813.821.821 0 0 0-.83.813v.482a3.246 3.246 0 0 0 2.61 3.172l.08.019a13.89 13.89 0 0 1-20.38 0l.08-.019a3.246 3.246 0 0 0 2.61-3.172v-.482a.821.821 0 0 0-.83-.813.829.829 0 0 0-.84.813v.482a1.618 1.618 0 0 1-1.3 1.586l-8.36 1.813-.05.01a8.114 8.114 0 0 0-4.53 3.221 8.839 8.839 0 0 0-1.59 4.987v2.015a3.164 3.164 0 0 0 3.33 2.947h43.34a3.164 3.164 0 0 0 3.33-2.947v-2.015a8.839 8.839 0 0 0-1.59-4.993zm-.08 7a1.519 1.519 0 0 1-1.66 1.322h-43.34a1.519 1.519 0 0 1-1.66-1.322v-2.015a6.934 6.934 0 0 1 4.88-6.637l6.46-1.4a15.481 15.481 0 0 0 23.98 0l6.46 1.4a6.934 6.934 0 0 1 4.88 6.637v2.015z" transform="translate(-1079 -322)"/></svg>