<svg xmlns="http://www.w3.org/2000/svg" width="51" height="51" viewBox="0 0 51 51"><defs><style>.cls-1 { fill: #fff; fill-rule: evenodd; }</style></defs><path class="cls-1" d="M1399.69 354.042l-10.14-7.1v-12.2a1.05 1.05 0 0 0-2.1 0v12.758a1.048 1.048 0 0 0 .45.857l10.6 7.41a1.051 1.051 0 0 0 .6.188 1.022 1.022 0 0 0 .85-.46 1.047 1.047 0 0 0-.26-1.453zm6.83-24.559a25.439 25.439 0 1 0 7.48 18.017 25.328 25.328 0 0 0-7.48-18.017zm-16.97 41.406v-4.264a1.05 1.05 0 0 0-2.1 0v4.264a23.437 23.437 0 0 1-22.34-22.344h4.26a1.045 1.045 0 1 0 0-2.09h-4.26a23.437 23.437 0 0 1 22.34-22.344v4.264a1.05 1.05 0 0 0 2.1 0v-4.264a23.437 23.437 0 0 1 22.34 22.344h-4.27a1.045 1.045 0 0 0 0 2.09h4.27a23.437 23.437 0 0 1-22.34 22.344z" transform="translate(-1363 -322)"/></svg>