<svg xmlns="http://www.w3.org/2000/svg" width="59" height="49" viewBox="0 0 59 49"><defs><style>.cls-1 { fill: #fff; fill-rule: evenodd; }</style></defs><path id="Forma_1" class="cls-1" d="M522.675 372h-16.414l2.155-39.811h28.884l1.115 20.614a1.1 1.1 0 0 0 2.2-.118l-1.171-21.649a1.1 1.1 0 0 0-1.1-1.035h-30.97a1.1 1.1 0 0 0-1.1 1.035l-2.273 42a1.09 1.09 0 0 0 .3.811 1.1 1.1 0 0 0 .8.342h17.575a1.094 1.094 0 1 0-.001-2.189zm-8.192-37.934a1.1 1.1 0 0 0-1.1 1.094v5.122a9.019 9.019 0 0 0 18.038 0v-5.122a1.1 1.1 0 0 0-2.2 0v5.122a6.82 6.82 0 0 1-13.639 0v-5.122a1.1 1.1 0 0 0-1.099-1.095zm47.417 21.09h-3.053l-.647-12.089a1.1 1.1 0 0 0-1.1-1.036h-1.76v-1.115a3.938 3.938 0 0 0-7.876 0v1.115h-1.434a1.1 1.1 0 0 0-1.1 1.036l-.644 12.089h-18.021a1.1 1.1 0 0 0-1.1 1.094v21.656a1.1 1.1 0 0 0 1.1 1.094h35.635a1.1 1.1 0 0 0 1.1-1.094v-21.656a1.1 1.1 0 0 0-1.1-1.094zm-12.232-14.24a1.738 1.738 0 0 1 3.476 0v1.115h-3.476v-1.115zm-2.6 3.3h8.988l.583 10.937h-10.15zm13.732 13.128v3.281h-33.435v-3.281h33.435zm-33.435 19.468v-14h33.435v14h-33.435z" transform="translate(-504 -330)"/></svg>