<svg xmlns="http://www.w3.org/2000/svg" width="53" height="59" viewBox="0 0 53 59"><defs><style>.cls-1 { fill: #fff; fill-rule: evenodd; }</style></defs><path class="cls-1" d="M536.057 549.338h16.3a.931.931 0 0 0 0-1.861h-16.3a.931.931 0 0 0 0 1.861zm0-16.907h8.149a.931.931 0 0 0 0-1.862h-8.149a.931.931 0 0 0 0 1.862zm0-5.507h16.3a.931.931 0 0 0 0-1.862h-16.3a.931.931 0 0 0 0 1.862zm-20.847 34.169h13.709a1.461 1.461 0 0 0 1.083-.486 1.537 1.537 0 0 0 .385-1.141 8.65 8.65 0 0 0-3.518-6.3 6.633 6.633 0 0 0 1.605-4.341v-1.92a6.412 6.412 0 1 0-12.82 0v1.92a6.633 6.633 0 0 0 1.605 4.341 8.648 8.648 0 0 0-3.517 6.3 1.533 1.533 0 0 0 .384 1.142 1.465 1.465 0 0 0 1.084.485zm2.261-14.188a4.594 4.594 0 1 1 9.186 0v1.92a4.594 4.594 0 1 1-9.186 0v-1.92zm1.238 7.514a6.26 6.26 0 0 0 6.71 0 6.746 6.746 0 0 1 3.115 4.813h-12.94a6.746 6.746 0 0 1 3.115-4.813zm17.348.426h8.149a.931.931 0 0 0 0-1.862h-8.149a.931.931 0 0 0 0 1.862zm19.875-46.845h-44.864a4.124 4.124 0 0 0-4.068 4.169v50.662a4.124 4.124 0 0 0 4.068 4.169h44.864a4.124 4.124 0 0 0 4.068-4.169v-50.662a4.124 4.124 0 0 0-4.068-4.169zm-47.115 4.169a2.282 2.282 0 0 1 2.251-2.307h44.864a2.282 2.282 0 0 1 2.251 2.307v1.561h-49.366v-1.561zm49.366 50.662a2.282 2.282 0 0 1-2.251 2.307h-44.864a2.282 2.282 0 0 1-2.251-2.307v-47.239h49.366v47.239zm-42.973-24.152h13.709a1.461 1.461 0 0 0 1.083-.486 1.538 1.538 0 0 0 .385-1.142 8.653 8.653 0 0 0-3.518-6.3 6.629 6.629 0 0 0 1.605-4.34v-1.92a6.412 6.412 0 1 0-12.82 0v1.92a6.629 6.629 0 0 0 1.605 4.34 8.65 8.65 0 0 0-3.517 6.3 1.534 1.534 0 0 0 .384 1.142 1.465 1.465 0 0 0 1.084.486zm2.261-14.188a4.594 4.594 0 1 1 9.186 0v1.92a4.594 4.594 0 1 1-9.186 0v-1.92zm1.238 7.514a6.26 6.26 0 0 0 6.71 0 6.746 6.746 0 0 1 3.115 4.812h-12.94a6.746 6.746 0 0 1 3.115-4.812z" transform="translate(-507 -508)"/></svg>