<svg xmlns="http://www.w3.org/2000/svg" width="58" height="44" viewBox="0 0 58 44"><defs><style>.cls-1 { fill: #fff; fill-rule: evenodd; }</style></defs><path class="cls-1" d="M832.442 336.38h-33.6a1.16 1.16 0 0 0 0 2.319h33.6a1.16 1.16 0 0 0 0-2.319zm7.113 0h-1.455a1.16 1.16 0 0 0 0 2.319h1.455a1.16 1.16 0 0 0 0-2.319zm9.29 14.453h-1.623v-14.554a4.276 4.276 0 0 0-4.264-4.279h-45.371a5.6 5.6 0 0 0-5.587 5.606v31.594a6.8 6.8 0 0 0 6.777 6.8h47.29a1.157 1.157 0 0 0 1.155-1.159v-9.041h1.622a1.158 1.158 0 0 0 1.156-1.164v-12.644a1.157 1.157 0 0 0-1.155-1.159zm-51.258-16.514h45.371a1.958 1.958 0 0 1 1.953 1.96v4.615h-47.324a3.288 3.288 0 0 1 0-6.575zm47.324 39.362h-46.134a4.479 4.479 0 0 1-4.466-4.482v-27.056a5.54 5.54 0 0 0 3.276 1.07h47.324v7.62h-6.566a7.481 7.481 0 0 0 0 14.962h6.566v7.886zm2.778-10.2h-9.344a5.162 5.162 0 0 1 0-10.324h9.344v10.324zm-9.054-8.549a3.387 3.387 0 1 0 3.375 3.387 3.385 3.385 0 0 0-3.375-3.392zm0 4.455a1.068 1.068 0 1 1 1.064-1.068 1.068 1.068 0 0 1-1.064 1.063z" transform="translate(-792 -332)"/></svg>