<svg xmlns="http://www.w3.org/2000/svg" width="62" height="44" viewBox="0 0 62 44"><defs><style>.cls-1 { fill: #fff; fill-rule: evenodd; }</style></defs><path id="Forma_1" class="cls-1" d="M1125.2 552.985a.97.97 0 0 1-.68-.271l-11.51-10.775a1 1 0 0 1 1.37-1.453l11.5 10.775a.986.986 0 0 1 .05 1.409 1 1 0 0 1-.73.315zm-38.4 0a1 1 0 0 1-.69-1.724l11.51-10.775a1 1 0 0 1 1.37 1.453l-11.51 10.775a.987.987 0 0 1-.68.271zm45.2 10.015h-52a5 5 0 0 1-5-4.99v-34.024a5 5 0 0 1 5-4.99h52a5 5 0 0 1 5 4.99v34.028a5 5 0 0 1-5 4.986zm-52-42.012a3 3 0 0 0-3 2.994v34.028a3 3 0 0 0 3 2.994h52a3 3 0 0 0 3-2.994v-34.024a3 3 0 0 0-3-2.994h-52zm26 25.023a5.591 5.591 0 0 1-3.67-1.321l-25.67-22.359a1 1 0 1 1 1.31-1.5l25.67 22.357a3.759 3.759 0 0 0 4.72 0l25.63-22.321a1.012 1.012 0 0 1 1.42.1 1 1 0 0 1-.1 1.409l-25.64 22.321a5.583 5.583 0 0 1-3.67 1.318z" transform="translate(-1075 -519)"/></svg>