<svg xmlns="http://www.w3.org/2000/svg" width="42.62" height="42.5" viewBox="0 0 42.62 42.5"><defs><style>.cls-1{fill:#fff;fill-rule:evenodd}</style></defs><path class="cls-1" d="M1294,867a0.679,0.679,0,0,0-.96.088l-13.76,16.448a0.688,0.688,0,0,0,1.06.877l13.75-16.447A0.672,0.672,0,0,0,1294,867Zm12.33,4.838a4.06,4.06,0,0,0-.71-0.511c-0.1-.065-0.18-0.108-0.26-0.172a0.74,0.74,0,0,1-.08-0.965,4.53,4.53,0,0,0,.61-2.42,4.285,4.285,0,0,0-.07-0.666l0.01,0a5.454,5.454,0,0,0-3.05-4.166,4.476,4.476,0,0,0-1.82-.452h-0.01a0.839,0.839,0,0,1-.78-0.252,1.032,1.032,0,0,1-.18-0.709,4.788,4.788,0,0,0-1.95-3.7,5.529,5.529,0,0,0-3.44-1.208,4.765,4.765,0,0,0-1.8.338,4.953,4.953,0,0,0-.63.312c-0.06.032-.14,0.075-0.16,0.082a0.942,0.942,0,0,1-.21.014h-0.04a0.907,0.907,0,0,1-.74-0.661,5.253,5.253,0,0,0-4.31-2.195h-0.12a5.166,5.166,0,0,0-4.47,2.582,0.678,0.678,0,0,1-.56.267,1,1,0,0,1-.35-0.072l-0.11-.062a3.748,3.748,0,0,0-.95-0.412,4.835,4.835,0,0,0-1.42-.192h-0.01a3.563,3.563,0,0,0-.69.048,5.525,5.525,0,0,0-3.33,1.751,4.665,4.665,0,0,0-1.33,3.23c-0.01.135-.02,0.275-0.03,0.341a0.752,0.752,0,0,1-.75.5h-0.13a4.647,4.647,0,0,0-2.32.692,4.329,4.329,0,0,0-1.18.948,5.478,5.478,0,0,0-1.46,4.135,4.17,4.17,0,0,0,.54,1.853,1.236,1.236,0,0,1,.19.449,0.7,0.7,0,0,1-.31.664l-0.26.151a4.973,4.973,0,0,0-2.24,3.6,5.378,5.378,0,0,0,1.4,4.469,5.052,5.052,0,0,0,.79.647c0.62,0.436.7,0.507,0.6,0.977a2.483,2.483,0,0,1-.16.317,4.246,4.246,0,0,0-.56,2,5.438,5.438,0,0,0,2.5,4.841,4.99,4.99,0,0,0,2.49.8c0.65,0.063.65,0.063,0.85,0.465a2.471,2.471,0,0,1,.04.38,4.631,4.631,0,0,0,1.19,3.053,5.485,5.485,0,0,0,5.09,1.882,4.9,4.9,0,0,0,1.42-.494,1.417,1.417,0,0,1,.48-0.185,0.917,0.917,0,0,1,.31.08,0.639,0.639,0,0,1,.33.34,4.446,4.446,0,0,0,1.25,1.391,5.4,5.4,0,0,0,3.23,1.051,5.691,5.691,0,0,0,2.2-.446,4.564,4.564,0,0,0,2.24-1.883,0.863,0.863,0,0,1,.52-0.5,1.379,1.379,0,0,1,.24-0.029,0.942,0.942,0,0,1,.41.163c0.11,0.059.24,0.122,0.37,0.185a4.573,4.573,0,0,0,1.19.346h0a4.851,4.851,0,0,0,.78.056c0.08,0,.15,0,0.23-0.011v0.006c0.13,0,.27-0.015.4-0.03h0.09v-0.012a5.436,5.436,0,0,0,4.62-4.393,4.055,4.055,0,0,0,.05-0.709,0.526,0.526,0,0,1,.11-0.4,0.768,0.768,0,0,1,.79-0.313l0.22-.012a5.017,5.017,0,0,0,3.38-1.759,5.463,5.463,0,0,0,1.36-4.008,3.968,3.968,0,0,0-.55-1.866,1.317,1.317,0,0,1-.18-0.439c-0.02-.392.02-0.419,0.55-0.808a4.927,4.927,0,0,0,2.19-3.2A5.427,5.427,0,0,0,1306.33,871.841Zm0.2,4.8c-0.63,2.849-2.89,2.061-2.76,4.444,0.15,1,.64,1.012.73,2.254a4.025,4.025,0,0,1-3.46,4.306,2.227,2.227,0,0,0-2.05.908,2.81,2.81,0,0,0-.39,1.693,4.054,4.054,0,0,1-3.8,3.267h0c0.01,0-.06,0-0.18,0a3.839,3.839,0,0,1-.56-0.037l0.01,0a3.334,3.334,0,0,1-.84-0.239,2.961,2.961,0,0,0-1.36-.475,2.714,2.714,0,0,0-.59.073c-1.59.5-1.02,1.639-2.94,2.445a4.334,4.334,0,0,1-1.67.339,4.031,4.031,0,0,1-2.4-.773c-1.14-.862-0.7-1.29-1.82-1.881a2.347,2.347,0,0,0-.9-0.206c-0.79,0-1.22.547-2.13,0.7a3.971,3.971,0,0,1-.66.054,4.117,4.117,0,0,1-3.14-1.464c-1.26-1.5-.64-2.341-1.06-3.167-0.93-1.861-2.16-.695-3.81-1.793a4.091,4.091,0,0,1-1.89-3.63,4.805,4.805,0,0,1,.67-2c0.46-1.915-1.06-2.264-1.71-2.951a3.994,3.994,0,0,1,.55-5.952l0.3-.173a2.1,2.1,0,0,0,.93-1.963c-0.15-.988-0.65-1.038-0.73-2.255a4.078,4.078,0,0,1,1.17-3.17l-0.01,0a4.425,4.425,0,0,1,.83-0.65,3.225,3.225,0,0,1,1.6-.493h0.13a2.115,2.115,0,0,0,2.1-1.6,4.041,4.041,0,0,1,3.62-4.248l-0.04,0a2.76,2.76,0,0,1,.46-0.027,3.627,3.627,0,0,1,1.02.132,3.186,3.186,0,0,1,.85.395,2.4,2.4,0,0,0,.96.211,2.042,2.042,0,0,0,1.74-.932,3.774,3.774,0,0,1,3.31-1.917l0.07,0a3.878,3.878,0,0,1,3.17,1.545,2.193,2.193,0,0,0,1.81,1.31l0.14,0a2.89,2.89,0,0,0,1.52-.51,3.429,3.429,0,0,1,1.28-.236,4.132,4.132,0,0,1,2.57.9c2.21,1.768.88,3.268,2.07,4.353a2.163,2.163,0,0,0,1.7.612h0.02a3.174,3.174,0,0,1,1.23.318,4.12,4.12,0,0,1,2.28,3.11h0a3.2,3.2,0,0,1,.04.512,3.154,3.154,0,0,1-.4,1.677,2.089,2.089,0,0,0,.3,2.674c0.39,0.341.64,0.381,0.99,0.7A4.022,4.022,0,0,1,1306.53,876.644Zm-23.97-2.947a3.427,3.427,0,1,0-3.44-3.426A3.435,3.435,0,0,0,1282.56,873.7Zm0-5.482a2.056,2.056,0,1,1-2.06,2.056A2.057,2.057,0,0,1,1282.56,868.215Zm8.94,9.594a3.427,3.427,0,1,0,3.44,3.427A3.436,3.436,0,0,0,1291.5,877.809Zm0,5.483a2.056,2.056,0,1,1,2.06-2.056A2.057,2.057,0,0,1,1291.5,883.292Z" transform="translate(-1265.38 -854.5)"/></svg>