<svg xmlns="http://www.w3.org/2000/svg" width="9" height="6.938" viewBox="0 0 9 6.938"><defs><style>.cls-1{fill:#008c82;fill-rule:evenodd}</style></defs><path class="cls-1" d="M426.73,898.638l-4.637,5.067h0a0.819,0.819,0,0,1-1.23,0h0l-2.608-2.85h0a0.99,0.99,0,0,1-.255-0.672,0.913,0.913,0,0,1,.869-0.95,0.833,0.833,0,0,1,.615.278h0l1.994,2.179,4.022-4.4h0a0.833,0.833,0,0,1,.615-0.278,0.913,0.913,0,0,1,.87.95,0.994,0.994,0,0,1-.255.671h0Zm-0.035-1.622h0Z" transform="translate(-418 -897.031)"/></svg>