<svg xmlns="http://www.w3.org/2000/svg" width="26" height="26" viewBox="0 0 26 26"><defs><style>.cls-1{fill:#fff;fill-rule:evenodd}</style></defs><path class="cls-1" d="M1242,618.011A13.011,13.011,0,1,1,1255.01,605,13.007,13.007,0,0,1,1242,618.011Zm0-23.583A10.572,10.572,0,1,0,1252.57,605,10.569,10.569,0,0,0,1242,594.428Zm4.47,16.264a1.219,1.219,0,0,1-.86-0.357h0l-3.61-3.61-3.61,3.61h0a1.222,1.222,0,0,1-1.73-1.725h0l3.61-3.61-3.61-3.61h0a1.222,1.222,0,0,1,1.73-1.725h0l3.61,3.61,3.61-3.61h0a1.222,1.222,0,0,1,1.73,1.725h0l-3.61,3.61,3.61,3.61h0A1.225,1.225,0,0,1,1246.47,610.692Z" transform="translate(-1229 -592)"/></svg>