<svg xmlns="http://www.w3.org/2000/svg" width="51" height="50" viewBox="0 0 51 50"><defs><style>.cls-1{fill:#fff;fill-rule:evenodd}</style></defs><path id="Forma_1" data-name="Forma 1" class="cls-1" d="M425.736,702.485a0.834,0.834,0,1,1-.851.833A0.842,0.842,0,0,1,425.736,702.485Zm33.16,16.671a0.834,0.834,0,1,1-.85.833A0.842,0.842,0,0,1,458.9,719.156Zm-34.011-20.845A11.987,11.987,0,0,0,433.3,694.9a11.521,11.521,0,0,0,0-16.5,12.085,12.085,0,0,0-16.834,0,11.521,11.521,0,0,0,0,16.5A11.985,11.985,0,0,0,424.885,698.311Zm-7.215-18.737a10.362,10.362,0,0,1,14.43,0,9.876,9.876,0,0,1,0,14.146,10.361,10.361,0,0,1-14.43,0A9.878,9.878,0,0,1,417.67,679.574Zm21.67,22.077a11.672,11.672,0,1,0,11.9,11.67A11.8,11.8,0,0,0,439.34,701.651Zm0,21.672a10,10,0,1,1,10.2-10A10.116,10.116,0,0,1,439.34,723.323Zm21.17-41.594a12.087,12.087,0,0,0-16.834,0,11.522,11.522,0,0,0,0,16.5,12.087,12.087,0,0,0,16.833,0A11.52,11.52,0,0,0,460.51,681.729Zm-15.632,15.325a9.877,9.877,0,0,1,0-14.147,10.364,10.364,0,0,1,14.43,0,9.876,9.876,0,0,1,0,14.146A10.361,10.361,0,0,1,444.878,697.054Zm-25.4-4.269a0.853,0.853,0,0,0,.6-0.245L430.9,681.932a0.821,0.821,0,0,0,0-1.179,0.861,0.861,0,0,0-1.2,0l-10.822,10.609a0.821,0.821,0,0,0,0,1.178A0.851,0.851,0,0,0,419.474,692.785Zm27.81-8.7a0.862,0.862,0,0,0-1.2,0,0.822,0.822,0,0,0,0,1.179l10.822,10.61a0.863,0.863,0,0,0,1.2,0,0.823,0.823,0,0,0,0-1.18Zm-7.944,20.9a0.843,0.843,0,0,0-.851.834v15a0.851,0.851,0,0,0,1.7,0v-15A0.842,0.842,0,0,0,439.34,704.985Zm-17.856,10.836h-2.55v-2.5a0.851,0.851,0,0,0-1.7,0v2.5h-2.551a0.834,0.834,0,1,0,0,1.668h2.551v2.5a0.851,0.851,0,0,0,1.7,0v-2.5h2.55A0.834,0.834,0,1,0,421.484,715.821ZM461.9,703.848a0.863,0.863,0,0,0-1.2,0l-1.8,1.768-1.805-1.768a0.863,0.863,0,0,0-1.2,0,0.822,0.822,0,0,0,0,1.179l1.8,1.768-1.8,1.768a0.822,0.822,0,0,0,0,1.179,0.862,0.862,0,0,0,1.2,0l1.805-1.768,1.8,1.768a0.862,0.862,0,0,0,1.2,0,0.821,0.821,0,0,0,0-1.179l-1.8-1.768,1.8-1.768A0.821,0.821,0,0,0,461.9,703.848Z" transform="translate(-413 -675)"/></svg>