<svg xmlns="http://www.w3.org/2000/svg" width="45.216" height="37.813" viewBox="0 0 45.216 37.813"><defs><style>.cls-1{fill:#fff;fill-rule:evenodd}</style></defs><path class="cls-1" d="M1030.85,688.115a19.353,19.353,0,0,0-36.792,0,5.789,5.789,0,0,0,0,11.149,19.353,19.353,0,0,0,36.792,0A5.789,5.789,0,0,0,1030.85,688.115Zm-37.3,9.124a4.119,4.119,0,0,1,0-7.1A18.639,18.639,0,0,0,993.546,697.239Zm18.9,13.709a17.43,17.43,0,0,1-17.557-17.258,17.237,17.237,0,0,1,9.3-15.223,17.8,17.8,0,0,0,9.74,8.61,0.852,0.852,0,0,0,1.1-.462,0.83,0.83,0,0,0-.47-1.079,16.355,16.355,0,0,1-8.84-7.783,17.67,17.67,0,0,1,6.19-1.312,12,12,0,0,0,5.74,5.455,0.846,0.846,0,0,0,.35.074,0.856,0.856,0,0,0,.77-0.486,0.831,0.831,0,0,0-.42-1.1,10.3,10.3,0,0,1-4.47-3.9A17.249,17.249,0,0,1,1012.45,710.948Zm18.91-13.709a18.693,18.693,0,0,0,0-7.1A4.117,4.117,0,0,1,1031.36,697.239Zm-26.14-4.565a3.638,3.638,0,0,0-3.66,3.6,0.839,0.839,0,0,0,.85.829,0.831,0.831,0,0,0,.84-0.829,1.975,1.975,0,0,1,3.95,0,0.831,0.831,0,0,0,.84.829,0.839,0.839,0,0,0,.85-0.829A3.64,3.64,0,0,0,1005.22,692.674Zm14.46,0a3.631,3.631,0,0,0-3.66,3.6,0.845,0.845,0,0,0,1.69,0,1.97,1.97,0,0,1,3.94,0,0.845,0.845,0,0,0,1.69,0A3.631,3.631,0,0,0,1019.68,692.674Zm-2.06,9.181a0.85,0.85,0,0,0-1.19,0,5.587,5.587,0,0,1-7.79,0,0.85,0.85,0,0,0-1.19,0,0.819,0.819,0,0,0,0,1.173,7.276,7.276,0,0,0,10.17,0A0.819,0.819,0,0,0,1017.62,701.855Zm-4.04-4.384h-2.25a0.83,0.83,0,1,0,0,1.659h2.25A0.83,0.83,0,1,0,1013.58,697.471Z" transform="translate(-989.844 -674.781)"/></svg>