<svg xmlns="http://www.w3.org/2000/svg" width="48" height="38" viewBox="0 0 48 38"><defs><style>.cls-1{fill:#fff;fill-rule:evenodd}</style></defs><path class="cls-1" d="M1038.29,887.141l-6.36-20.187a5.581,5.581,0,0,0-6.96-3.711,1.327,1.327,0,1,0,.77,2.539,2.932,2.932,0,0,1,3.65,1.949v0.01l4.54,14.459a9.947,9.947,0,0,0-14.76,7.52h-8.36a9.953,9.953,0,0,0-14.762-7.333l4.6-14.646v-0.01a2.932,2.932,0,0,1,3.65-1.949,1.327,1.327,0,1,0,.77-2.539,5.594,5.594,0,0,0-6.966,3.711l-6.337,20.207a1.12,1.12,0,0,0-.039.167,9.947,9.947,0,1,0,19.082,5.05h8.41a9.947,9.947,0,0,0,19.78-1.507A9.843,9.843,0,0,0,1038.29,887.141Zm-37.33,11.2a7.294,7.294,0,1,1,7.29-7.293A7.3,7.3,0,0,1,1000.96,898.342Zm28.1-.177a7.294,7.294,0,1,1,7.29-7.294A7.3,7.3,0,0,1,1029.06,898.165Z" transform="translate(-991 -863)"/></svg>