<svg id="Слой_1" xmlns="http://www.w3.org/2000/svg" viewBox="0 0 185.8 374.8"><style>.st0,.st1{fill-rule:evenodd;clip-rule:evenodd;fill:#f26722}.st1{fill:#00d2c7}</style><path class="st0" d="M45.4,339.5c1.2,0.7,3.2,1.9,4.5,2.6l-2.8,4.8l-4.4-2.5c-1.3-0.8-1.8-2.5-1-3.8	C42.4,339.3,44.1,338.8,45.4,339.5 M63,332.5c0,1.4,0,3.7,0,5.1h-5.5v-5.1c0-1.5,1.2-2.8,2.8-2.8C61.7,329.9,63,331,63,332.5z M56.1,342.7c0-2.5,0-7.3,0-10.1c0-2.3,1.9-4.1,4.1-4.1c2.3,0,4.1,1.8,4.1,4c0,2.8,0,7.4,0,10.2c0,2.3-1.9,4.1-4.1,4.1	C58,346.9,56.1,345.3,56.1,342.7z M77.9,344.3c-1.2,0.7-3.2,1.9-4.5,2.6l-2.8-4.8l4.4-2.5c1.3-0.8,3-0.3,3.8,1	C79.6,341.9,79.1,343.5,77.9,344.3z M65.6,343.4c2.2-1.3,6.4-3.7,8.8-5.1c2-1.1,4.5-0.5,5.7,1.5c1.1,2,0.5,4.4-1.4,5.6	c-2.4,1.4-6.4,3.7-8.8,5.1c-2,1.1-4.5,0.5-5.7-1.5C62.9,347.1,63.4,344.7,65.6,343.4z M75.1,363.1c-1.2-0.7-3.2-1.9-4.5-2.6l2.8-4.8	l4.4,2.5c1.3,0.8,1.8,2.5,1,3.8C78,363.3,76.4,363.8,75.1,363.1z M69.7,352c2.2,1.3,6.4,3.7,8.8,5.1c2,1.1,2.7,3.7,1.5,5.7	c-1.1,2-3.6,2.6-5.6,1.6c-2.4-1.4-6.4-3.7-8.8-5.1c-2-1.1-2.7-3.7-1.5-5.7C65.2,351.5,67.5,350.7,69.7,352z M57.5,370.1	c0-1.4,0-3.7,0-5.1H63v5.1c0,1.5-1.2,2.8-2.8,2.8C58.7,372.7,57.5,371.5,57.5,370.1z M64.4,359.9c0,2.5,0,7.4,0,10.1	c0,2.3-1.9,4.1-4.1,4.1c-2.3,0-4.1-1.8-4.1-4c0-2.8,0-7.4,0-10.2c0-2.3,1.9-4.1,4.1-4.1C62.5,355.7,64.4,357.3,64.4,359.9z M42.6,358.3c1.2-0.7,3.2-1.9,4.5-2.6l2.8,4.8l-4.4,2.5c-1.3,0.8-3,0.3-3.8-1C40.9,360.7,41.3,359.1,42.6,358.3z M54.9,359.2	c-2.2,1.3-6.4,3.7-8.8,5.1c-2,1.1-4.5,0.5-5.7-1.5c-1.1-2-0.5-4.4,1.4-5.6c2.4-1.4,6.4-3.7,8.8-5.1c2-1.1,4.5-0.5,5.7,1.5	C57.5,355.5,57.1,357.9,54.9,359.2z M50.7,350.6c-2.2-1.3-6.4-3.7-8.8-5.1c-2-1.1-2.7-3.7-1.5-5.7c1.1-2,3.6-2.6,5.6-1.6	c2.4,1.4,6.4,3.7,8.8,5.1c2,1.1,2.7,3.7,1.5,5.7C55.3,351.1,52.9,351.9,50.7,350.6z"/><path class="st1" d="M-0.1,293.3c2,0.3,3.5,2,3.5,4c0,2.8,0,7.4,0,10.2c0,2.1-1.5,3.8-3.5,4.1v-9.1h2.1c0-1.4,0-3.7,0-5.1	c0-1.3-0.9-2.3-2.1-2.6V293.3z M16.9,309.1c-1.2,0.7-3.2,1.9-4.5,2.6l-2.8-4.8l4.4-2.5c1.3-0.8,3-0.3,3.8,1	C18.6,306.7,18.2,308.3,16.9,309.1z M4.6,308.2c2.2-1.3,6.4-3.7,8.8-5.1c2-1.1,4.5-0.5,5.7,1.5c1.1,2,0.5,4.4-1.4,5.6	c-2.4,1.4-6.4,3.7-8.8,5.1c-2,1.1-4.5,0.5-5.7-1.5C2,311.9,2.4,309.5,4.6,308.2z M14.1,327.9c-1.2-0.7-3.2-1.9-4.5-2.6l2.8-4.8	l4.4,2.5c1.3,0.8,1.8,2.5,1,3.8C17.1,328.1,15.5,328.6,14.1,327.9z M8.8,316.8c2.2,1.3,6.4,3.7,8.8,5.1c2,1.1,2.7,3.7,1.5,5.7	c-1.1,2-3.6,2.6-5.6,1.6c-2.4-1.4-6.4-3.7-8.8-5.1c-2-1.1-2.7-3.7-1.5-5.7C4.3,316.3,6.6,315.5,8.8,316.8z M3.4,324.7	c0,2.5,0,7.4,0,10.1c0,2.1-1.5,3.8-3.5,4.1v-1.4c1.2-0.3,2.1-1.4,2.1-2.7v-5.1h-2.1v-9.1C1.9,320.8,3.4,322.4,3.4,324.7z"/><path class="st0" d="M25.1,304.3c1.2,0.7,3.2,1.9,4.5,2.6l-2.8,4.8l-4.4-2.5c-1.3-0.8-1.8-2.5-1-3.8	C22.1,304.1,23.7,303.6,25.1,304.3 M42.7,297.3c0,1.4,0,3.7,0,5.1h-5.5v-5.1c0-1.5,1.2-2.8,2.8-2.8	C41.4,294.7,42.6,295.8,42.7,297.3z M35.8,307.5c0-2.5,0-7.3,0-10.1c0-2.3,1.9-4.1,4.1-4.1c2.3,0,4.1,1.8,4.1,4c0,2.8,0,7.4,0,10.2	c0,2.3-1.9,4.1-4.1,4.1C37.6,311.7,35.8,310,35.8,307.5z M57.5,309.1c-1.2,0.7-3.2,1.9-4.5,2.6l-2.8-4.8l4.4-2.5	c1.3-0.8,3-0.3,3.8,1C59.2,306.7,58.8,308.3,57.5,309.1z M45.3,308.2c2.2-1.3,6.4-3.7,8.8-5.1c2-1.1,4.5-0.5,5.7,1.5	c1.1,2,0.5,4.4-1.4,5.6c-2.4,1.4-6.4,3.7-8.8,5.1c-2,1.1-4.5,0.5-5.7-1.5C42.6,311.9,43.1,309.5,45.3,308.2z M54.8,327.9	c-1.2-0.7-3.2-1.9-4.5-2.6l2.8-4.8l4.4,2.5c1.3,0.8,1.8,2.5,1,3.8C57.7,328.1,56.1,328.6,54.8,327.9z M49.4,316.8	c2.2,1.3,6.4,3.7,8.8,5.1c2,1.1,2.7,3.7,1.5,5.7c-1.1,2-3.6,2.6-5.6,1.6c-2.4-1.4-6.4-3.7-8.8-5.1c-2-1.1-2.7-3.7-1.5-5.7	C44.9,316.3,47.2,315.5,49.4,316.8z M37.1,334.8c0-1.4,0-3.7,0-5.1h5.5v5.1c0,1.5-1.2,2.8-2.8,2.8C38.4,337.5,37.2,336.3,37.1,334.8	z M44,324.7c0,2.5,0,7.4,0,10.1c0,2.3-1.9,4.1-4.1,4.1c-2.3,0-4.1-1.8-4.1-4c0-2.8,0-7.4,0-10.2c0-2.3,1.9-4.1,4.1-4.1	C42.2,320.5,44,322.1,44,324.7z M22.3,323.1c1.2-0.7,3.2-1.9,4.5-2.6l2.8,4.8l-4.4,2.5c-1.3,0.8-3,0.3-3.8-1	C20.6,325.5,21,323.9,22.3,323.1z M34.6,324c-2.2,1.3-6.4,3.7-8.8,5.1c-2,1.1-4.5,0.5-5.7-1.5c-1.1-2-0.5-4.4,1.4-5.6	c2.4-1.4,6.4-3.7,8.8-5.1c2-1.1,4.5-0.5,5.7,1.5C37.2,320.3,36.7,322.7,34.6,324z M30.4,315.4c-2.2-1.3-6.4-3.7-8.8-5.1	c-2-1.1-2.7-3.7-1.5-5.7c1.1-2,3.6-2.6,5.6-1.6c2.4,1.4,6.4,3.7,8.8,5.1c2,1.1,2.7,3.7,1.5,5.7C34.9,315.9,32.6,316.6,30.4,315.4z"/><path class="st0" d="M45.4,269.1c1.2,0.7,3.2,1.9,4.5,2.6l-2.8,4.8l-4.4-2.5c-1.3-0.8-1.8-2.5-1-3.8	C42.4,268.9,44.1,268.4,45.4,269.1 M63,262.1c0,1.4,0,3.7,0,5.1h-5.5v-5.1c0-1.5,1.2-2.8,2.8-2.8C61.7,259.5,63,260.6,63,262.1z M56.1,272.3c0-2.5,0-7.3,0-10.1c0-2.3,1.9-4.1,4.1-4.1c2.3,0,4.1,1.8,4.1,4c0,2.8,0,7.4,0,10.2c0,2.3-1.9,4.1-4.1,4.1	C58,276.5,56.1,274.9,56.1,272.3z M77.9,273.9c-1.2,0.7-3.2,1.9-4.5,2.6l-2.8-4.8l4.4-2.5c1.3-0.8,3-0.3,3.8,1	C79.6,271.5,79.1,273.1,77.9,273.9z M65.6,273c2.2-1.3,6.4-3.7,8.8-5.1c2-1.1,4.5-0.5,5.7,1.5c1.1,2,0.5,4.4-1.4,5.6	c-2.4,1.4-6.4,3.7-8.8,5.1c-2,1.1-4.5,0.5-5.7-1.5C62.9,276.7,63.4,274.3,65.6,273z M75.1,292.7c-1.2-0.7-3.2-1.9-4.5-2.6l2.8-4.8	l4.4,2.5c1.3,0.8,1.8,2.5,1,3.8C78,292.9,76.4,293.4,75.1,292.7z M69.7,281.6c2.2,1.3,6.4,3.7,8.8,5.1c2,1.1,2.7,3.7,1.5,5.7	c-1.1,2-3.6,2.6-5.6,1.6c-2.4-1.4-6.4-3.7-8.8-5.1c-2-1.1-2.7-3.7-1.5-5.7C65.2,281.1,67.5,280.3,69.7,281.6z M57.5,299.7	c0-1.4,0-3.7,0-5.1H63v5.1c0,1.5-1.2,2.8-2.8,2.8C58.7,302.3,57.5,301.1,57.5,299.7z M64.4,289.5c0,2.5,0,7.4,0,10.1	c0,2.3-1.9,4.1-4.1,4.1c-2.3,0-4.1-1.8-4.1-4c0-2.8,0-7.4,0-10.2c0-2.3,1.9-4.1,4.1-4.1C62.5,285.3,64.4,286.9,64.4,289.5z M42.6,287.9c1.2-0.7,3.2-1.9,4.5-2.6l2.8,4.8l-4.4,2.5c-1.3,0.8-3,0.3-3.8-1C40.9,290.3,41.3,288.7,42.6,287.9z M54.9,288.8	c-2.2,1.3-6.4,3.7-8.8,5.1c-2,1.1-4.5,0.5-5.7-1.5c-1.1-2-0.5-4.4,1.4-5.6c2.4-1.4,6.4-3.7,8.8-5.1c2-1.1,4.5-0.5,5.7,1.5	C57.5,285.1,57.1,287.5,54.9,288.8z M50.7,280.2c-2.2-1.3-6.4-3.7-8.8-5.1c-2-1.1-2.7-3.7-1.5-5.7c1.1-2,3.6-2.6,5.6-1.6	c2.4,1.4,6.4,3.7,8.8,5.1c2,1.1,2.7,3.7,1.5,5.7C55.3,280.7,52.9,281.5,50.7,280.2z"/><path class="st1" d="M-0.1,223c2,0.3,3.5,2,3.5,4c0,2.8,0,7.4,0,10.2c0,2.1-1.5,3.8-3.5,4.1v-9.1h2.1c0-1.4,0-3.7,0-5.1	c0-1.3-0.9-2.3-2.1-2.6V223z M16.9,238.8c-1.2,0.7-3.2,1.9-4.5,2.6l-2.8-4.8l4.4-2.5c1.3-0.8,3-0.3,3.8,1	C18.6,236.3,18.2,238,16.9,238.8z M4.6,237.9c2.2-1.3,6.4-3.7,8.8-5.1c2-1.1,4.5-0.5,5.7,1.5c1.1,2,0.5,4.4-1.4,5.6	c-2.4,1.4-6.4,3.7-8.8,5.1c-2,1.1-4.5,0.5-5.7-1.5C2,241.6,2.4,239.2,4.6,237.9z M14.1,257.5c-1.2-0.7-3.2-1.9-4.5-2.6l2.8-4.8	l4.4,2.5c1.3,0.8,1.8,2.5,1,3.8C17.1,257.8,15.5,258.2,14.1,257.5z M8.8,246.5c2.2,1.3,6.4,3.7,8.8,5.1c2,1.1,2.7,3.7,1.5,5.7	c-1.1,2-3.6,2.6-5.6,1.6c-2.4-1.4-6.4-3.7-8.8-5.1c-2-1.1-2.7-3.7-1.5-5.7C4.3,246,6.6,245.2,8.8,246.5z M3.4,254.3	c0,2.5,0,7.4,0,10.1c0,2.1-1.5,3.8-3.5,4.1v-1.4c1.2-0.3,2.1-1.4,2.1-2.7v-5.1h-2.1v-9.1C1.9,250.5,3.4,252,3.4,254.3z"/><path class="st0" d="M25.1,234c1.2,0.7,3.2,1.9,4.5,2.6l-2.8,4.8l-4.4-2.5c-1.3-0.8-1.8-2.5-1-3.8C22.1,233.7,23.7,233.3,25.1,234 M42.7,227c0,1.4,0,3.7,0,5.1h-5.5v-5.1c0-1.5,1.2-2.8,2.8-2.8C41.4,224.3,42.6,225.5,42.7,227z M35.8,237.2c0-2.5,0-7.3,0-10.1	c0-2.3,1.9-4.1,4.1-4.1c2.3,0,4.1,1.8,4.1,4c0,2.8,0,7.4,0,10.2c0,2.3-1.9,4.1-4.1,4.1C37.6,241.3,35.8,239.7,35.8,237.2z M57.5,238.8c-1.2,0.7-3.2,1.9-4.5,2.6l-2.8-4.8l4.4-2.5c1.3-0.8,3-0.3,3.8,1C59.2,236.3,58.8,238,57.5,238.8z M45.3,237.9	c2.2-1.3,6.4-3.7,8.8-5.1c2-1.1,4.5-0.5,5.7,1.5c1.1,2,0.5,4.4-1.4,5.6c-2.4,1.4-6.4,3.7-8.8,5.1c-2,1.1-4.5,0.5-5.7-1.5	C42.6,241.6,43.1,239.2,45.3,237.9z M54.8,257.5c-1.2-0.7-3.2-1.9-4.5-2.6l2.8-4.8l4.4,2.5c1.3,0.8,1.8,2.5,1,3.8	C57.7,257.8,56.1,258.2,54.8,257.5z M49.4,246.5c2.2,1.3,6.4,3.7,8.8,5.1c2,1.1,2.7,3.7,1.5,5.7c-1.1,2-3.6,2.6-5.6,1.6	c-2.4-1.4-6.4-3.7-8.8-5.1c-2-1.1-2.7-3.7-1.5-5.7C44.9,246,47.2,245.2,49.4,246.5z M37.1,264.5c0-1.4,0-3.7,0-5.1h5.5v5.1	c0,1.5-1.2,2.8-2.8,2.8C38.4,267.2,37.2,266,37.1,264.5z M44,254.3c0,2.5,0,7.4,0,10.1c0,2.3-1.9,4.1-4.1,4.1c-2.3,0-4.1-1.8-4.1-4	c0-2.8,0-7.4,0-10.2c0-2.3,1.9-4.1,4.1-4.1C42.2,250.2,44,251.8,44,254.3z M22.3,252.7c1.2-0.7,3.2-1.9,4.5-2.6l2.8,4.8l-4.4,2.5	c-1.3,0.8-3,0.3-3.8-1C20.6,255.2,21,253.5,22.3,252.7z M34.6,253.6c-2.2,1.3-6.4,3.7-8.8,5.1c-2,1.1-4.5,0.5-5.7-1.5	c-1.1-2-0.5-4.4,1.4-5.6c2.4-1.4,6.4-3.7,8.8-5.1c2-1.1,4.5-0.5,5.7,1.5C37.2,249.9,36.7,252.4,34.6,253.6z M30.4,245	c-2.2-1.3-6.4-3.7-8.8-5.1c-2-1.1-2.7-3.7-1.5-5.7c1.1-2,3.6-2.6,5.6-1.6c2.4,1.4,6.4,3.7,8.8,5.1c2,1.1,2.7,3.7,1.5,5.7	C34.9,245.5,32.6,246.3,30.4,245z"/><path class="st1" d="M86,339.5c1.2,0.7,3.2,1.9,4.5,2.6l-2.8,4.8l-4.4-2.5c-1.3-0.8-1.8-2.5-1-3.8C83,339.3,84.7,338.8,86,339.5 M103.6,332.5c0,1.4,0,3.7,0,5.1h-5.5v-5.1c0-1.5,1.2-2.8,2.8-2.8C102.3,329.9,103.6,331,103.6,332.5z M96.7,342.7	c0-2.5,0-7.3,0-10.1c0-2.3,1.9-4.1,4.1-4.1c2.3,0,4.1,1.8,4.1,4c0,2.8,0,7.4,0,10.2c0,2.3-1.9,4.1-4.1,4.1	C98.6,346.9,96.7,345.3,96.7,342.7z M118.5,344.3c-1.2,0.7-3.2,1.9-4.5,2.6l-2.8-4.8l4.4-2.5c1.3-0.8,3-0.3,3.8,1	C120.2,341.9,119.7,343.5,118.5,344.3z M106.2,343.4c2.2-1.3,6.4-3.7,8.8-5.1c2-1.1,4.5-0.5,5.7,1.5c1.1,2,0.5,4.4-1.4,5.6	c-2.4,1.4-6.4,3.7-8.8,5.1c-2,1.1-4.5,0.5-5.7-1.5C103.5,347.1,104,344.7,106.2,343.4z M115.7,363.1c-1.2-0.7-3.2-1.9-4.5-2.6	l2.8-4.8l4.4,2.5c1.3,0.8,1.8,2.5,1,3.8C118.7,363.3,117,363.8,115.7,363.1z M110.3,352c2.2,1.3,6.4,3.7,8.8,5.1	c2,1.1,2.7,3.7,1.5,5.7c-1.1,2-3.6,2.6-5.6,1.6c-2.4-1.4-6.4-3.7-8.8-5.1c-2-1.1-2.7-3.7-1.5-5.7C105.8,351.5,108.1,350.7,110.3,352	z M98.1,370.1c0-1.4,0-3.7,0-5.1h5.5v5.1c0,1.5-1.2,2.8-2.8,2.8C99.3,372.7,98.1,371.5,98.1,370.1z M105,359.9c0,2.5,0,7.4,0,10.1	c0,2.3-1.9,4.1-4.1,4.1c-2.3,0-4.1-1.8-4.1-4c0-2.8,0-7.4,0-10.2c0-2.3,1.9-4.1,4.1-4.1C103.1,355.7,105,357.3,105,359.9z M83.2,358.3c1.2-0.7,3.2-1.9,4.5-2.6l2.8,4.8L86,363c-1.3,0.8-3,0.3-3.8-1C81.5,360.7,81.9,359.1,83.2,358.3z M95.5,359.2	c-2.2,1.3-6.4,3.7-8.8,5.1c-2,1.1-4.5,0.5-5.7-1.5c-1.1-2-0.5-4.4,1.4-5.6c2.4-1.4,6.4-3.7,8.8-5.1c2-1.1,4.5-0.5,5.7,1.5	C98.1,355.5,97.7,357.9,95.5,359.2z M91.4,350.6c-2.2-1.3-6.4-3.7-8.8-5.1c-2-1.1-2.7-3.7-1.5-5.7c1.1-2,3.6-2.6,5.6-1.6	c2.4,1.4,6.4,3.7,8.8,5.1c2,1.1,2.7,3.7,1.5,5.7C95.9,351.1,93.5,351.9,91.4,350.6z"/><path class="st1" d="M65.7,304.3c1.2,0.7,3.2,1.9,4.5,2.6l-2.8,4.8l-4.4-2.5c-1.3-0.8-1.8-2.5-1-3.8	C62.7,304.1,64.3,303.6,65.7,304.3 M83.3,297.3c0,1.4,0,3.7,0,5.1h-5.5v-5.1c0-1.5,1.2-2.8,2.8-2.8C82,294.7,83.2,295.8,83.3,297.3z M76.4,307.5c0-2.5,0-7.3,0-10.1c0-2.3,1.9-4.1,4.1-4.1c2.3,0,4.1,1.8,4.1,4c0,2.8,0,7.4,0,10.2c0,2.3-1.9,4.1-4.1,4.1	C78.2,311.7,76.4,310,76.4,307.5z M98.1,309.1c-1.2,0.7-3.2,1.9-4.5,2.6l-2.8-4.8l4.4-2.5c1.3-0.8,3-0.3,3.8,1	C99.8,306.7,99.4,308.3,98.1,309.1z M85.9,308.2c2.2-1.3,6.4-3.7,8.8-5.1c2-1.1,4.5-0.5,5.7,1.5c1.1,2,0.5,4.4-1.4,5.6	c-2.4,1.4-6.4,3.7-8.8,5.1c-2,1.1-4.5,0.5-5.7-1.5C83.2,311.9,83.7,309.5,85.9,308.2z M95.4,327.9c-1.2-0.7-3.2-1.9-4.5-2.6l2.8-4.8	l4.4,2.5c1.3,0.8,1.8,2.5,1,3.8C98.3,328.1,96.7,328.6,95.4,327.9z M90,316.8c2.2,1.3,6.4,3.7,8.8,5.1c2,1.1,2.7,3.7,1.5,5.7	c-1.1,2-3.6,2.6-5.6,1.6c-2.4-1.4-6.4-3.7-8.8-5.1c-2-1.1-2.7-3.7-1.5-5.7C85.5,316.3,87.8,315.5,90,316.8z M77.7,334.8	c0-1.4,0-3.7,0-5.1h5.5v5.1c0,1.5-1.2,2.8-2.8,2.8C79,337.5,77.8,336.3,77.7,334.8z M84.6,324.7c0,2.5,0,7.4,0,10.1	c0,2.3-1.9,4.1-4.1,4.1c-2.3,0-4.1-1.8-4.1-4c0-2.8,0-7.4,0-10.2c0-2.3,1.9-4.1,4.1-4.1C82.8,320.5,84.6,322.1,84.6,324.7z M62.9,323.1c1.2-0.7,3.2-1.9,4.5-2.6l2.8,4.8l-4.4,2.5c-1.3,0.8-3,0.3-3.8-1C61.2,325.5,61.6,323.9,62.9,323.1z M75.2,324	c-2.2,1.3-6.4,3.7-8.8,5.1c-2,1.1-4.5,0.5-5.7-1.5c-1.1-2-0.5-4.4,1.4-5.6c2.4-1.4,6.4-3.7,8.8-5.1c2-1.1,4.5-0.5,5.7,1.5	C77.8,320.3,77.3,322.7,75.2,324z M71,315.4c-2.2-1.3-6.4-3.7-8.8-5.1c-2-1.1-2.7-3.7-1.5-5.7c1.1-2,3.6-2.6,5.6-1.6	c2.4,1.4,6.4,3.7,8.8,5.1c2,1.1,2.7,3.7,1.5,5.7C75.5,315.9,73.2,316.6,71,315.4z"/><path class="st0" d="M126.6,339.5c1.2,0.7,3.2,1.9,4.5,2.6l-2.8,4.8l-4.4-2.5c-1.3-0.8-1.8-2.5-1-3.8	C123.7,339.3,125.3,338.8,126.6,339.5 M144.2,332.5c0,1.4,0,3.7,0,5.1h-5.5v-5.1c0-1.5,1.2-2.8,2.8-2.8	C143,329.9,144.2,331,144.2,332.5z M137.3,342.7c0-2.5,0-7.3,0-10.1c0-2.3,1.9-4.1,4.1-4.1c2.3,0,4.1,1.8,4.1,4c0,2.8,0,7.4,0,10.2	c0,2.3-1.9,4.1-4.1,4.1C139.2,346.9,137.3,345.3,137.3,342.7z M159.1,344.3c-1.2,0.7-3.2,1.9-4.5,2.6l-2.8-4.8l4.4-2.5	c1.3-0.8,3-0.3,3.8,1C160.8,341.9,160.4,343.5,159.1,344.3z M146.8,343.4c2.2-1.3,6.4-3.7,8.8-5.1c2-1.1,4.5-0.5,5.7,1.5	c1.1,2,0.5,4.4-1.4,5.6c-2.4,1.4-6.4,3.7-8.8,5.1c-2,1.1-4.5,0.5-5.7-1.5C144.2,347.1,144.6,344.7,146.8,343.4z M156.3,363.1	c-1.2-0.7-3.2-1.9-4.5-2.6l2.8-4.8l4.4,2.5c1.3,0.8,1.8,2.5,1,3.8C159.3,363.3,157.6,363.8,156.3,363.1z M151,352	c2.2,1.3,6.4,3.7,8.8,5.1c2,1.1,2.7,3.7,1.5,5.7c-1.1,2-3.6,2.6-5.6,1.6c-2.4-1.4-6.4-3.7-8.8-5.1c-2-1.1-2.7-3.7-1.5-5.7	C146.5,351.5,148.8,350.7,151,352z M138.7,370.1c0-1.4,0-3.7,0-5.1h5.5v5.1c0,1.5-1.2,2.8-2.8,2.8	C140,372.7,138.7,371.5,138.7,370.1z M145.6,359.9c0,2.5,0,7.4,0,10.1c0,2.3-1.9,4.1-4.1,4.1c-2.3,0-4.1-1.8-4.1-4	c0-2.8,0-7.4,0-10.2c0-2.3,1.9-4.1,4.1-4.1C143.8,355.7,145.6,357.3,145.6,359.9z M123.9,358.3c1.2-0.7,3.2-1.9,4.5-2.6l2.8,4.8	l-4.4,2.5c-1.3,0.8-3,0.3-3.8-1C122.2,360.7,122.6,359.1,123.9,358.3z M136.1,359.2c-2.2,1.3-6.4,3.7-8.8,5.1	c-2,1.1-4.5,0.5-5.7-1.5c-1.1-2-0.5-4.4,1.4-5.6c2.4-1.4,6.4-3.7,8.8-5.1c2-1.1,4.5-0.5,5.7,1.5	C138.8,355.5,138.3,357.9,136.1,359.2z M132,350.6c-2.2-1.3-6.4-3.7-8.8-5.1c-2-1.1-2.7-3.7-1.5-5.7c1.1-2,3.6-2.6,5.6-1.6	c2.4,1.4,6.4,3.7,8.8,5.1c2,1.1,2.7,3.7,1.5,5.7C136.5,351.1,134.2,351.9,132,350.6z"/><path class="st1" d="M65.8,233.3c1.2,0.7,3.2,1.9,4.5,2.6l-2.8,4.8l-4.4-2.5c-1.3-0.8-1.8-2.5-1-3.8	C62.8,233.1,64.5,232.6,65.8,233.3 M83.4,226.4c0,1.4,0,3.7,0,5.1h-5.5v-5.1c0-1.5,1.2-2.8,2.8-2.8	C82.2,223.7,83.4,224.9,83.4,226.4z M76.5,236.5c0-2.5,0-7.3,0-10.1c0-2.3,1.9-4.1,4.1-4.1c2.3,0,4.1,1.8,4.1,4c0,2.8,0,7.4,0,10.2	c0,2.3-1.9,4.1-4.1,4.1C78.4,240.7,76.5,239.1,76.5,236.5z M98.3,238.1c-1.2,0.7-3.2,1.9-4.5,2.6l-2.8-4.8l4.4-2.5	c1.3-0.8,3-0.3,3.8,1C100,235.7,99.6,237.4,98.3,238.1z M86,237.3c2.2-1.3,6.4-3.7,8.8-5.1c2-1.1,4.5-0.5,5.7,1.5	c1.1,2,0.5,4.4-1.4,5.6c-2.4,1.4-6.4,3.7-8.8,5.1c-2,1.1-4.5,0.5-5.7-1.5C83.3,240.9,83.8,238.5,86,237.3z M95.5,256.9	c-1.2-0.7-3.2-1.9-4.5-2.6l2.8-4.8l4.4,2.5c1.3,0.8,1.8,2.5,1,3.8C98.5,257.1,96.8,257.6,95.5,256.9z M90.1,245.8	c2.2,1.3,6.4,3.7,8.8,5.1c2,1.1,2.7,3.7,1.5,5.7c-1.1,2-3.6,2.6-5.6,1.6c-2.4-1.4-6.4-3.7-8.8-5.1c-2-1.1-2.7-3.7-1.5-5.7	C85.6,245.4,88,244.6,90.1,245.8z M77.9,263.9c0-1.4,0-3.7,0-5.1h5.5v5.1c0,1.5-1.2,2.8-2.8,2.8C79.1,266.6,77.9,265.4,77.9,263.9z M84.8,253.7c0,2.5,0,7.4,0,10.1c0,2.3-1.9,4.1-4.1,4.1c-2.3,0-4.1-1.8-4.1-4c0-2.8,0-7.4,0-10.2c0-2.3,1.9-4.1,4.1-4.1	C82.9,249.5,84.8,251.2,84.8,253.7z M63,252.1c1.2-0.7,3.2-1.9,4.5-2.6l2.8,4.8l-4.4,2.5c-1.3,0.8-3,0.3-3.8-1	C61.3,254.5,61.7,252.9,63,252.1z M75.3,253c-2.2,1.3-6.4,3.7-8.8,5.1c-2,1.1-4.5,0.5-5.7-1.5c-1.1-2-0.5-4.4,1.4-5.6	c2.4-1.4,6.4-3.7,8.8-5.1c2-1.1,4.5-0.5,5.7,1.5C78,249.3,77.5,251.7,75.3,253z M71.2,244.4c-2.2-1.3-6.4-3.7-8.8-5.1	c-2-1.1-2.7-3.7-1.5-5.7c1.1-2,3.6-2.6,5.6-1.6c2.4,1.4,6.4,3.7,8.8,5.1c2,1.1,2.7,3.7,1.5,5.7C75.7,244.9,73.3,245.7,71.2,244.4z"/><path class="st1" d="M86,268.9c1.2,0.7,3.2,1.9,4.5,2.6l-2.8,4.8l-4.4-2.5c-1.3-0.8-1.8-2.5-1-3.8C83,268.6,84.7,268.2,86,268.9 M103.6,261.9c0,1.4,0,3.7,0,5.1h-5.5V262c0-1.5,1.2-2.8,2.8-2.8C102.3,259.2,103.6,260.4,103.6,261.9z M96.7,272.1	c0-2.5,0-7.3,0-10.1c0-2.3,1.9-4.1,4.1-4.1c2.3,0,4.1,1.8,4.1,4c0,2.8,0,7.4,0,10.2c0,2.3-1.9,4.1-4.1,4.1	C98.5,276.2,96.7,274.6,96.7,272.1z M118.5,273.7c-1.2,0.7-3.2,1.9-4.5,2.6l-2.8-4.8l4.4-2.5c1.3-0.8,3-0.3,3.8,1	C120.1,271.2,119.7,272.9,118.5,273.7z M106.2,272.8c2.2-1.3,6.4-3.7,8.8-5.1c2-1.1,4.5-0.5,5.7,1.5c1.1,2,0.5,4.4-1.4,5.6	c-2.4,1.4-6.4,3.7-8.8,5.1c-2,1.1-4.5,0.5-5.7-1.5C103.5,276.5,104,274.1,106.2,272.8z M115.7,292.4c-1.2-0.7-3.2-1.9-4.5-2.6	l2.8-4.8l4.4,2.5c1.3,0.8,1.8,2.5,1,3.8C118.6,292.7,117,293.2,115.7,292.4z M110.3,281.4c2.2,1.3,6.4,3.7,8.8,5.1	c2,1.1,2.7,3.7,1.5,5.7c-1.1,2-3.6,2.6-5.6,1.6c-2.4-1.4-6.4-3.7-8.8-5.1c-2-1.1-2.7-3.7-1.5-5.7	C105.8,280.9,108.1,280.1,110.3,281.4z M98.1,299.4c0-1.4,0-3.7,0-5.1h5.5v5.1c0,1.5-1.2,2.8-2.8,2.8	C99.3,302.1,98.1,300.9,98.1,299.4z M105,289.2c0,2.5,0,7.4,0,10.1c0,2.3-1.9,4.1-4.1,4.1c-2.3,0-4.1-1.8-4.1-4c0-2.8,0-7.4,0-10.2	c0-2.3,1.9-4.1,4.1-4.1S105,286.7,105,289.2z M83.2,287.6c1.2-0.7,3.2-1.9,4.5-2.6l2.8,4.8l-4.4,2.5c-1.3,0.8-3,0.3-3.8-1	C81.5,290.1,81.9,288.4,83.2,287.6z M95.5,288.5c-2.2,1.3-6.4,3.7-8.8,5.1c-2,1.1-4.5,0.5-5.7-1.5c-1.1-2-0.5-4.4,1.4-5.6	c2.4-1.4,6.4-3.7,8.8-5.1c2-1.1,4.5-0.5,5.7,1.5C98.1,284.8,97.7,287.3,95.5,288.5z M91.3,280c-2.2-1.3-6.4-3.7-8.8-5.1	c-2-1.1-2.7-3.7-1.5-5.7c1.1-2,3.6-2.6,5.6-1.6c2.4,1.4,6.4,3.7,8.8,5.1c2,1.1,2.7,3.7,1.5,5.7C95.9,280.4,93.5,281.2,91.3,280z"/><path class="st0" d="M91.5,14.2c1.2,0.7,3.2,1.9,4.5,2.6l-2.8,4.8L88.8,19c-1.3-0.8-1.8-2.5-1-3.8C88.5,13.9,90.2,13.5,91.5,14.2 M109.1,7.2c0,1.4,0,3.7,0,5.1h-5.5V7.3c0-1.5,1.2-2.8,2.8-2.8C107.9,4.5,109.1,5.7,109.1,7.2z M102.2,17.4c0-2.5,0-7.3,0-10.1	c0-2.3,1.9-4.1,4.1-4.1c2.3,0,4.1,1.8,4.1,4c0,2.8,0,7.4,0,10.2c0,2.3-1.9,4.1-4.1,4.1C104.1,21.5,102.2,19.9,102.2,17.4z M124,19	c-1.2,0.7-3.2,1.9-4.5,2.6l-2.8-4.8l4.4-2.5c1.3-0.8,3-0.3,3.8,1C125.7,16.5,125.3,18.2,124,19z M111.7,18.1	c2.2-1.3,6.4-3.7,8.8-5.1c2-1.1,4.5-0.5,5.7,1.5c1.1,2,0.5,4.4-1.4,5.6c-2.4,1.4-6.4,3.7-8.8,5.1c-2,1.1-4.5,0.5-5.7-1.5	C109.1,21.8,109.5,19.3,111.7,18.1z M121.2,37.7c-1.2-0.7-3.2-1.9-4.5-2.6l2.8-4.8l4.4,2.5c1.3,0.8,1.8,2.5,1,3.8	C124.2,38,122.5,38.4,121.2,37.7z M115.8,26.6c2.2,1.3,6.4,3.7,8.8,5.1c2,1.1,2.7,3.7,1.5,5.7c-1.1,2-3.6,2.6-5.6,1.6	c-2.4-1.4-6.4-3.7-8.8-5.1c-2-1.1-2.7-3.7-1.5-5.7C111.3,26.2,113.7,25.4,115.8,26.6z M103.6,44.7c0-1.4,0-3.7,0-5.1h5.5v5.1	c0,1.5-1.2,2.8-2.8,2.8C104.9,47.4,103.6,46.2,103.6,44.7z M110.5,34.5c0,2.5,0,7.4,0,10.1c0,2.3-1.9,4.1-4.1,4.1	c-2.3,0-4.1-1.8-4.1-4c0-2.8,0-7.4,0-10.2c0-2.3,1.9-4.1,4.1-4.1C108.6,30.4,110.5,32,110.5,34.5z M88.7,32.9	c1.2-0.7,3.2-1.9,4.5-2.6l2.8,4.8l-4.4,2.5c-1.3,0.8-3,0.3-3.8-1C87,35.4,87.5,33.7,88.7,32.9z M101,33.8c-2.2,1.3-6.4,3.7-8.8,5.1	c-2,1.1-4.5,0.5-5.7-1.5c-1.1-2-0.5-4.4,1.4-5.6c2.4-1.4,6.4-3.7,8.8-5.1c2-1.1,4.5-0.5,5.7,1.5C103.7,30.1,103.2,32.5,101,33.8z M96.9,25.2c-2.2-1.3-6.4-3.7-8.8-5.1c-2-1.1-2.7-3.7-1.5-5.7c1.1-2,3.6-2.6,5.6-1.6c2.4,1.4,6.4,3.7,8.8,5.1c2,1.1,2.7,3.7,1.5,5.7	C101.4,25.7,99.1,26.5,96.9,25.2z"/><path class="st1" d="M4.8 339.5c1.2.7 3.2 1.9 4.5 2.6l-2.8 4.8-4.4-2.5c-1.3-.8-1.8-2.5-1-3.8C1.8 339.3 3.4 338.8 4.8 339.5M22.4 332.5c0 1.4 0 3.7 0 5.1h-5.5v-5.1c0-1.5 1.2-2.8 2.8-2.8C21.1 329.9 22.3 331 22.4 332.5zM15.5 342.7c0-2.5 0-7.3 0-10.1 0-2.3 1.9-4.1 4.1-4.1 2.3 0 4.1 1.8 4.1 4 0 2.8 0 7.4 0 10.2 0 2.3-1.9 4.1-4.1 4.1C17.3 346.9 15.5 345.3 15.5 342.7zM37.2 344.3c-1.2.7-3.2 1.9-4.5 2.6l-2.8-4.8 4.4-2.5c1.3-.8 3-.3 3.8 1C38.9 341.9 38.5 343.5 37.2 344.3zM25 343.4c2.2-1.3 6.4-3.7 8.8-5.1 2-1.1 4.5-.5 5.7 1.5 1.1 2 .5 4.4-1.4 5.6-2.4 1.4-6.4 3.7-8.8 5.1-2 1.1-4.5.5-5.7-1.5C22.3 347.1 22.8 344.7 25 343.4zM34.5 363.1c-1.2-.7-3.2-1.9-4.5-2.6l2.8-4.8 4.4 2.5c1.3.8 1.8 2.5 1 3.8C37.4 363.3 35.8 363.8 34.5 363.1zM29.1 352c2.2 1.3 6.4 3.7 8.8 5.1 2 1.1 2.7 3.7 1.5 5.7-1.1 2-3.6 2.6-5.6 1.6-2.4-1.4-6.4-3.7-8.8-5.1-2-1.1-2.7-3.7-1.5-5.7C24.6 351.5 26.9 350.7 29.1 352zM16.8 370.1c0-1.4 0-3.7 0-5.1h5.5v5.1c0 1.5-1.2 2.8-2.8 2.8C18.1 372.7 16.9 371.5 16.8 370.1zM23.7 359.9c0 2.5 0 7.4 0 10.1 0 2.3-1.9 4.1-4.1 4.1-2.3 0-4.1-1.8-4.1-4 0-2.8 0-7.4 0-10.2 0-2.3 1.9-4.1 4.1-4.1S23.7 357.3 23.7 359.9zM2 358.3c1.2-.7 3.2-1.9 4.5-2.6l2.8 4.8L4.8 363c-1.3.8-3 .3-3.8-1C.3 360.7.7 359.1 2 358.3zM14.3 359.2c-2.2 1.3-6.4 3.7-8.8 5.1-1.9 1.1-4.4.5-5.6-1.4v-4.4c.3-.5.8-1 1.4-1.3 2.4-1.4 6.4-3.7 8.8-5.1 2-1.1 4.5-.5 5.7 1.5C16.9 355.5 16.4 357.9 14.3 359.2zM10.1 350.6c-2.2-1.3-6.4-3.7-8.8-5.1-.6-.4-1.1-.8-1.4-1.4v-4.4c1.2-1.9 3.6-2.5 5.5-1.4 2.4 1.4 6.4 3.7 8.8 5.1 2 1.1 2.7 3.7 1.5 5.7C14.6 351.1 12.3 351.9 10.1 350.6zM4.8 269.1c1.2.7 3.2 1.9 4.5 2.6l-2.8 4.8-4.4-2.5c-1.3-.8-1.8-2.5-1-3.8C1.8 268.9 3.4 268.4 4.8 269.1M22.4 262.1c0 1.4 0 3.7 0 5.1h-5.5v-5.1c0-1.5 1.2-2.8 2.8-2.8C21.1 259.5 22.3 260.6 22.4 262.1zM15.5 272.3c0-2.5 0-7.3 0-10.1 0-2.3 1.9-4.1 4.1-4.1 2.3 0 4.1 1.8 4.1 4 0 2.8 0 7.4 0 10.2 0 2.3-1.9 4.1-4.1 4.1C17.3 276.5 15.5 274.9 15.5 272.3zM37.2 273.9c-1.2.7-3.2 1.9-4.5 2.6l-2.8-4.8 4.4-2.5c1.3-.8 3-.3 3.8 1C38.9 271.5 38.5 273.1 37.2 273.9zM25 273c2.2-1.3 6.4-3.7 8.8-5.1 2-1.1 4.5-.5 5.7 1.5 1.1 2 .5 4.4-1.4 5.6-2.4 1.4-6.4 3.7-8.8 5.1-2 1.1-4.5.5-5.7-1.5C22.3 276.7 22.8 274.3 25 273zM34.5 292.7c-1.2-.7-3.2-1.9-4.5-2.6l2.8-4.8 4.4 2.5c1.3.8 1.8 2.5 1 3.8C37.4 292.9 35.8 293.4 34.5 292.7zM29.1 281.6c2.2 1.3 6.4 3.7 8.8 5.1 2 1.1 2.7 3.7 1.5 5.7-1.1 2-3.6 2.6-5.6 1.6-2.4-1.4-6.4-3.7-8.8-5.1-2-1.1-2.7-3.7-1.5-5.7C24.6 281.1 26.9 280.3 29.1 281.6zM16.8 299.7c0-1.4 0-3.7 0-5.1h5.5v5.1c0 1.5-1.2 2.8-2.8 2.8C18.1 302.3 16.9 301.1 16.8 299.7zM23.7 289.5c0 2.5 0 7.4 0 10.1 0 2.3-1.9 4.1-4.1 4.1-2.3 0-4.1-1.8-4.1-4 0-2.8 0-7.4 0-10.2 0-2.3 1.9-4.1 4.1-4.1S23.7 286.9 23.7 289.5zM2 287.9c1.2-.7 3.2-1.9 4.5-2.6l2.8 4.8-4.4 2.5c-1.3.8-3 .3-3.8-1C.3 290.3.7 288.7 2 287.9zM14.3 288.8c-2.2 1.3-6.4 3.7-8.8 5.1-1.9 1.1-4.4.5-5.6-1.4V288c.3-.5.8-1 1.4-1.3 2.4-1.4 6.4-3.7 8.8-5.1 2-1.1 4.5-.5 5.7 1.5C16.9 285.1 16.4 287.5 14.3 288.8zM10.1 280.2c-2.2-1.3-6.4-3.7-8.8-5.1-.6-.4-1.1-.8-1.4-1.4v-4.4c1.2-1.9 3.6-2.5 5.5-1.4 2.4 1.4 6.4 3.7 8.8 5.1 2 1.1 2.7 3.7 1.5 5.7C14.6 280.7 12.3 281.5 10.1 280.2z"/><path class="st0" d="M74.2,133.1c1.2,0.7,3.2,1.9,4.5,2.6l-2.8,4.8l-4.4-2.5c-1.3-0.8-1.8-2.5-1-3.8	C71.3,132.8,72.9,132.4,74.2,133.1 M91.9,126.1c0,1.4,0,3.7,0,5.1h-5.5v-5.1c0-1.5,1.2-2.8,2.8-2.8	C90.6,123.4,91.8,124.6,91.9,126.1z M85,136.3c0-2.5,0-7.3,0-10.1c0-2.3,1.9-4.1,4.1-4.1c2.3,0,4.1,1.8,4.1,4c0,2.8,0,7.4,0,10.2	c0,2.3-1.9,4.1-4.1,4.1C86.8,140.4,85,138.8,85,136.3z M106.7,137.9c-1.2,0.7-3.2,1.9-4.5,2.6l-2.8-4.8l4.4-2.5c1.3-0.8,3-0.3,3.8,1	C108.4,135.4,108,137.1,106.7,137.9z M94.5,137c2.2-1.3,6.4-3.7,8.8-5.1c2-1.1,4.5-0.5,5.7,1.5c1.1,2,0.5,4.4-1.4,5.6	c-2.4,1.4-6.4,3.7-8.8,5.1c-2,1.1-4.5,0.5-5.7-1.5C91.8,140.7,92.3,138.2,94.5,137z M104,156.6c-1.2-0.7-3.2-1.9-4.5-2.6l2.8-4.8	l4.4,2.5c1.3,0.8,1.8,2.5,1,3.8C106.9,156.9,105.3,157.3,104,156.6z M98.6,145.6c2.2,1.3,6.4,3.7,8.8,5.1c2,1.1,2.7,3.7,1.5,5.7	c-1.1,2-3.6,2.6-5.6,1.6c-2.4-1.4-6.4-3.7-8.8-5.1c-2-1.1-2.7-3.7-1.5-5.7C94.1,145.1,96.4,144.3,98.6,145.6z M86.3,163.6	c0-1.4,0-3.7,0-5.1h5.5v5.1c0,1.5-1.2,2.8-2.8,2.8C87.6,166.3,86.4,165.1,86.3,163.6z M93.2,153.4c0,2.5,0,7.4,0,10.1	c0,2.3-1.9,4.1-4.1,4.1c-2.3,0-4.1-1.8-4.1-4c0-2.8,0-7.4,0-10.2c0-2.3,1.9-4.1,4.1-4.1S93.2,150.9,93.2,153.4z M71.5,151.8	c1.2-0.7,3.2-1.9,4.5-2.6l2.8,4.8l-4.4,2.5c-1.3,0.8-3,0.3-3.8-1C69.8,154.3,70.2,152.6,71.5,151.8z M83.7,152.7	c-2.2,1.3-6.4,3.7-8.8,5.1c-2,1.1-4.5,0.5-5.7-1.5c-1.1-2-0.5-4.4,1.4-5.6c2.4-1.4,6.4-3.7,8.8-5.1c2-1.1,4.5-0.5,5.7,1.5	C86.4,149,85.9,151.4,83.7,152.7z M79.6,144.1c-2.2-1.3-6.4-3.7-8.8-5.1c-2-1.1-2.7-3.7-1.5-5.7c1.1-2,3.6-2.6,5.6-1.6	c2.4,1.4,6.4,3.7,8.8,5.1c2,1.1,2.7,3.7,1.5,5.7C84.1,144.6,81.8,145.4,79.6,144.1z"/><path class="st1" d="M84.9 197.8c1.2.7 3.2 1.9 4.5 2.6l-2.8 4.8-4.4-2.5c-1.3-.8-1.8-2.5-1-3.8C82 197.5 83.6 197.1 84.9 197.8M102.6 190.8c0 1.4 0 3.7 0 5.1H97v-5.1c0-1.5 1.2-2.8 2.8-2.8C101.3 188.1 102.5 189.3 102.6 190.8zM95.7 201c0-2.5 0-7.3 0-10.1 0-2.3 1.9-4.1 4.1-4.1 2.3 0 4.1 1.8 4.1 4 0 2.8 0 7.4 0 10.2 0 2.3-1.9 4.1-4.1 4.1C97.5 205.1 95.7 203.5 95.7 201zM117.4 202.6c-1.2.7-3.2 1.9-4.5 2.6l-2.8-4.8 4.4-2.5c1.3-.8 3-.3 3.8 1C119.1 200.2 118.7 201.8 117.4 202.6zM114.6 221.3c-1.2-.7-3.2-1.9-4.5-2.6l2.8-4.8 4.4 2.5c1.3.8 1.8 2.5 1 3.8C117.6 221.6 116 222.1 114.6 221.3zM97 228.3c0-1.4 0-3.7 0-5.1h5.5v5.1c0 1.5-1.2 2.8-2.8 2.8C98.3 231 97.1 229.8 97 228.3zM103.9 218.1c0 2.5 0 7.3 0 10.1 0 2.3-1.9 4.1-4.1 4.1-2.3 0-4.1-1.8-4.1-4 0-2.8 0-7.4 0-10.2 0-2.3 1.9-4.1 4.1-4.1C102.1 214 103.9 215.6 103.9 218.1zM82.2 216.6c1.2-.7 3.2-1.9 4.5-2.6l2.8 4.8-4.4 2.5c-1.3.8-3 .3-3.8-1C80.5 219 80.9 217.3 82.2 216.6zM94.4 217.4c-2.2 1.3-6.4 3.7-8.8 5.1-2 1.1-4.5.5-5.7-1.5-1.1-2-.5-4.4 1.4-5.6 2.4-1.4 6.4-3.7 8.8-5.1 2-1.1 4.5-.5 5.7 1.5C97.1 213.8 96.6 216.2 94.4 217.4zM120 218.3v1.3c-.1.5-.2 1-.5 1.4-1.1 2-3.6 2.6-5.6 1.6-2.4-1.4-6.4-3.7-8.8-5.1-2-1.1-2.7-3.7-1.5-5.7 1.1-2 3.5-2.8 5.7-1.5 2.2 1.3 6.4 3.7 8.8 5.1C119.1 216 119.9 217.1 120 218.3zM120 199.5v1.5c-.2 1.1-.9 2.2-1.9 2.8-2.4 1.4-6.4 3.7-8.8 5.1-2 1.1-4.5.5-5.7-1.5-1.1-2-.7-4.4 1.5-5.7 2.2-1.3 6.4-3.7 8.8-5.1 2-1.1 4.5-.5 5.7 1.5C119.8 198.6 120 199 120 199.5zM90.3 208.9c-2.2-1.3-6.4-3.7-8.8-5.1-2-1.1-2.7-3.7-1.5-5.7 1.1-2 3.6-2.6 5.6-1.6 2.4 1.4 6.4 3.7 8.8 5.1 2 1.1 2.7 3.7 1.5 5.7C94.8 209.3 92.5 210.1 90.3 208.9zM4.8 198.9c1.2.7 3.2 1.9 4.5 2.6l-2.8 4.8-4.4-2.5c-1.3-.8-1.8-2.5-1-3.8C1.8 198.6 3.4 198.2 4.8 198.9M22.4 191.9c0 1.4 0 3.7 0 5.1h-5.5V192c0-1.5 1.2-2.8 2.8-2.8C21.1 189.2 22.3 190.4 22.4 191.9zM15.5 202.1c0-2.5 0-7.3 0-10.1 0-2.3 1.9-4.1 4.1-4.1 2.3 0 4.1 1.8 4.1 4 0 2.8 0 7.4 0 10.2 0 2.3-1.9 4.1-4.1 4.1C17.3 206.2 15.5 204.6 15.5 202.1zM37.2 203.7c-1.2.7-3.2 1.9-4.5 2.6l-2.8-4.8 4.4-2.5c1.3-.8 3-.3 3.8 1C38.9 201.2 38.5 202.9 37.2 203.7zM25 202.8c2.2-1.3 6.4-3.7 8.8-5.1 2-1.1 4.5-.5 5.7 1.5 1.1 2 .5 4.4-1.4 5.6-2.4 1.4-6.4 3.7-8.8 5.1-2 1.1-4.5.5-5.7-1.5C22.3 206.5 22.8 204.1 25 202.8zM34.5 222.4c-1.2-.7-3.2-1.9-4.5-2.6l2.8-4.8 4.4 2.5c1.3.8 1.8 2.5 1 3.8C37.4 222.7 35.8 223.1 34.5 222.4zM29.1 211.4c2.2 1.3 6.4 3.7 8.8 5.1 2 1.1 2.7 3.7 1.5 5.7-1.1 2-3.6 2.6-5.6 1.6-2.4-1.4-6.4-3.7-8.8-5.1-2-1.1-2.7-3.7-1.5-5.7C24.6 210.9 26.9 210.1 29.1 211.4zM16.8 229.4c0-1.4 0-3.7 0-5.1h5.5v5.1c0 1.5-1.2 2.8-2.8 2.8C18.1 232.1 16.9 230.9 16.8 229.4zM23.7 219.2c0 2.5 0 7.4 0 10.1 0 2.3-1.9 4.1-4.1 4.1-2.3 0-4.1-1.8-4.1-4 0-2.8 0-7.4 0-10.2 0-2.3 1.9-4.1 4.1-4.1S23.7 216.7 23.7 219.2zM2 217.6c1.2-.7 3.2-1.9 4.5-2.6l2.8 4.8-4.4 2.5c-1.3.8-3 .3-3.8-1C.3 220.1.7 218.4 2 217.6zM14.3 218.5c-2.2 1.3-6.4 3.7-8.8 5.1-1.9 1.1-4.4.5-5.6-1.4v-4.4c.3-.5.8-1 1.4-1.3 2.4-1.4 6.4-3.7 8.8-5.1 2-1.1 4.5-.5 5.7 1.5C16.9 214.8 16.4 217.3 14.3 218.5zM10.1 210c-2.2-1.3-6.4-3.7-8.8-5.1-.6-.4-1.1-.8-1.4-1.4v-4.4c1.2-1.9 3.6-2.5 5.5-1.4 2.4 1.4 6.4 3.7 8.8 5.1 2 1.1 2.7 3.7 1.5 5.7C14.6 210.4 12.3 211.2 10.1 210z"/><path class="st0" d="M25.1,163.7c1.2,0.7,3.2,1.9,4.5,2.6l-2.8,4.8l-4.4-2.5c-1.3-0.8-1.8-2.5-1-3.8C22.1,163.4,23.7,163,25.1,163.7 M42.7,156.7c0,1.4,0,3.7,0,5.1h-5.5v-5.1c0-1.5,1.2-2.8,2.8-2.8C41.4,154,42.6,155.2,42.7,156.7z M35.8,166.9c0-2.5,0-7.3,0-10.1	c0-2.3,1.9-4.1,4.1-4.1c2.3,0,4.1,1.8,4.1,4c0,2.8,0,7.4,0,10.2c0,2.3-1.9,4.1-4.1,4.1C37.6,171,35.8,169.4,35.8,166.9z M57.5,168.5	c-1.2,0.7-3.2,1.9-4.5,2.6l-2.8-4.8l4.4-2.5c1.3-0.8,3-0.3,3.8,1C59.2,166.1,58.8,167.7,57.5,168.5z M45.3,167.6	c2.2-1.3,6.4-3.7,8.8-5.1c2-1.1,4.5-0.5,5.7,1.5c1.1,2,0.5,4.4-1.4,5.6c-2.4,1.4-6.4,3.7-8.8,5.1c-2,1.1-4.5,0.5-5.7-1.5	C42.6,171.3,43.1,168.9,45.3,167.6z M54.8,187.3c-1.2-0.7-3.2-1.9-4.5-2.6l2.8-4.8l4.4,2.5c1.3,0.8,1.8,2.5,1,3.8	C57.7,187.5,56.1,188,54.8,187.3z M49.4,176.2c2.2,1.3,6.4,3.7,8.8,5.1c2,1.1,2.7,3.7,1.5,5.7c-1.1,2-3.6,2.6-5.6,1.6	c-2.4-1.4-6.4-3.7-8.8-5.1c-2-1.1-2.7-3.7-1.5-5.7C44.9,175.7,47.2,174.9,49.4,176.2z M37.1,194.2c0-1.4,0-3.7,0-5.1h5.5v5.1	c0,1.5-1.2,2.8-2.8,2.8C38.4,196.9,37.2,195.7,37.1,194.2z M44,184c0,2.5,0,7.3,0,10.1c0,2.3-1.9,4.1-4.1,4.1c-2.3,0-4.1-1.8-4.1-4	c0-2.8,0-7.4,0-10.2c0-2.3,1.9-4.1,4.1-4.1C42.2,179.9,44,181.5,44,184z M22.3,182.5c1.2-0.7,3.2-1.9,4.5-2.6l2.8,4.8l-4.4,2.5	c-1.3,0.8-3,0.3-3.8-1C20.6,184.9,21,183.2,22.3,182.5z M34.6,183.3c-2.2,1.3-6.4,3.7-8.8,5.1c-2,1.1-4.5,0.5-5.7-1.5	c-1.1-2-0.5-4.4,1.4-5.6c2.4-1.4,6.4-3.7,8.8-5.1c2-1.1,4.5-0.5,5.7,1.5C37.2,179.7,36.7,182.1,34.6,183.3z M30.4,174.8	c-2.2-1.3-6.4-3.7-8.8-5.1c-2-1.1-2.7-3.7-1.5-5.7c1.1-2,3.6-2.6,5.6-1.6c2.4,1.4,6.4,3.7,8.8,5.1c2,1.1,2.7,3.7,1.5,5.7	C34.9,175.2,32.6,176,30.4,174.8z"/><path class="st1" d="M21.2 64.3c1.2.7 3.2 1.9 4.5 2.6l-2.8 4.8-4.4-2.5c-1.3-.8-1.8-2.5-1-3.8C18.2 64.1 19.9 63.6 21.2 64.3M38.8 57.4c0 1.4 0 3.7 0 5.1h-5.5v-5.1c0-1.5 1.2-2.8 2.8-2.8C37.5 54.7 38.8 55.9 38.8 57.4zM31.9 67.6c0-2.5 0-7.3 0-10.1 0-2.3 1.9-4.1 4.1-4.1 2.3 0 4.1 1.8 4.1 4 0 2.8 0 7.4 0 10.2 0 2.3-1.9 4.1-4.1 4.1C33.7 71.7 31.9 70.1 31.9 67.6zM53.7 69.1c-1.2.7-3.2 1.9-4.5 2.6l-2.8-4.8 4.4-2.5c1.3-.8 3-.3 3.8 1C55.3 66.7 54.9 68.4 53.7 69.1zM41.4 68.3c2.2-1.3 6.4-3.7 8.8-5.1 2-1.1 4.5-.5 5.7 1.5 1.1 2 .5 4.4-1.4 5.6-2.4 1.4-6.4 3.7-8.8 5.1-2 1.1-4.5.5-5.7-1.5C38.7 71.9 39.2 69.5 41.4 68.3zM50.9 87.9c-1.2-.7-3.2-1.9-4.5-2.6l2.8-4.8 4.4 2.5c1.3.8 1.8 2.5 1 3.8C53.8 88.2 52.2 88.6 50.9 87.9zM45.5 76.8c2.2 1.3 6.4 3.7 8.8 5.1 2 1.1 2.7 3.7 1.5 5.7-1.1 2-3.6 2.6-5.6 1.6-2.4-1.4-6.4-3.7-8.8-5.1-2-1.1-2.7-3.7-1.5-5.7C41 76.4 43.3 75.6 45.5 76.8zM33.3 94.9c0-1.4 0-3.7 0-5.1h5.5v5.1c0 1.5-1.2 2.8-2.8 2.8C34.5 97.6 33.3 96.4 33.3 94.9zM40.2 84.7c0 2.5 0 7.3 0 10.1 0 2.3-1.9 4.1-4.1 4.1-2.3 0-4.1-1.8-4.1-4 0-2.8 0-7.4 0-10.2 0-2.3 1.9-4.1 4.1-4.1C38.3 80.6 40.2 82.2 40.2 84.7zM18.4 83.1c1.2-.7 3.2-1.9 4.5-2.6l2.8 4.8-4.4 2.5c-1.3.8-3 .3-3.8-1C16.7 85.5 17.1 83.9 18.4 83.1zM30.7 84c-2.2 1.3-6.4 3.7-8.8 5.1-2 1.1-4.5.5-5.7-1.5-1.1-2-.5-4.4 1.4-5.6 2.4-1.4 6.4-3.7 8.8-5.1 2-1.1 4.5-.5 5.7 1.5C33.3 80.3 32.9 82.7 30.7 84zM26.5 75.4c-2.2-1.3-6.4-3.7-8.8-5.1-2-1.1-2.7-3.7-1.5-5.7 1.1-2 3.6-2.6 5.6-1.6 2.4 1.4 6.4 3.7 8.8 5.1 2 1.1 2.7 3.7 1.5 5.7C31.1 75.9 28.7 76.7 26.5 75.4zM109.5 79.1c1.2.7 3.2 1.9 4.5 2.6l-2.8 4.8-4.4-2.5c-1.3-.8-1.8-2.5-1-3.8C106.5 78.9 108.2 78.4 109.5 79.1M127.1 72.2c0 1.4 0 3.7 0 5.1h-5.5v-5.1c0-1.5 1.2-2.8 2.8-2.8C125.9 69.5 127.1 70.7 127.1 72.2zM120.2 82.3c0-2.5 0-7.3 0-10.1 0-2.3 1.9-4.1 4.1-4.1 2.3 0 4.1 1.8 4.1 4 0 2.8 0 7.4 0 10.2 0 2.3-1.9 4.1-4.1 4.1C122.1 86.5 120.2 84.9 120.2 82.3zM142 83.9c-1.2.7-3.2 1.9-4.5 2.6l-2.8-4.8 4.4-2.5c1.3-.8 3-.3 3.8 1C143.7 81.5 143.2 83.1 142 83.9zM129.7 83c2.2-1.3 6.4-3.7 8.8-5.1 2-1.1 4.5-.5 5.7 1.5 1.1 2 .5 4.4-1.4 5.6-2.4 1.4-6.4 3.7-8.8 5.1-2 1.1-4.5.5-5.7-1.5C127 86.7 127.5 84.3 129.7 83zM139.2 102.7c-1.2-.7-3.2-1.9-4.5-2.6l2.8-4.8 4.4 2.5c1.3.8 1.8 2.5 1 3.8C142.2 102.9 140.5 103.4 139.2 102.7zM133.8 91.6c2.2 1.3 6.4 3.7 8.8 5.1 2 1.1 2.7 3.7 1.5 5.7-1.1 2-3.6 2.6-5.6 1.6-2.4-1.4-6.4-3.7-8.8-5.1-2-1.1-2.7-3.7-1.5-5.7C129.3 91.1 131.6 90.4 133.8 91.6zM121.6 109.7c0-1.4 0-3.7 0-5.1h5.5v5.1c0 1.5-1.2 2.8-2.8 2.8C122.8 112.3 121.6 111.2 121.6 109.7zM128.5 99.5c0 2.5 0 7.4 0 10.1 0 2.3-1.9 4.1-4.1 4.1-2.3 0-4.1-1.8-4.1-4 0-2.8 0-7.4 0-10.2 0-2.3 1.9-4.1 4.1-4.1C126.6 95.3 128.5 97 128.5 99.5zM106.7 97.9c1.2-.7 3.2-1.9 4.5-2.6l2.8 4.8-4.4 2.5c-1.3.8-3 .3-3.8-1C105 100.3 105.4 98.7 106.7 97.9zM119 98.8c-2.2 1.3-6.4 3.7-8.8 5.1-2 1.1-4.5.5-5.7-1.5-1.1-2-.5-4.4 1.4-5.6 2.4-1.4 6.4-3.7 8.8-5.1 2-1.1 4.5-.5 5.7 1.5C121.6 95.1 121.2 97.5 119 98.8zM114.9 90.2c-2.2-1.3-6.4-3.7-8.8-5.1-2-1.1-2.7-3.7-1.5-5.7 1.1-2 3.6-2.6 5.6-1.6 2.4 1.4 6.4 3.7 8.8 5.1 2 1.1 2.7 3.7 1.5 5.7C119.4 90.7 117 91.5 114.9 90.2zM4.8 128.6c1.2.7 3.2 1.9 4.5 2.6L6.4 136l-4.4-2.5c-1.3-.8-1.8-2.5-1-3.8C1.8 128.4 3.4 127.9 4.8 128.6M22.4 121.6c0 1.4 0 3.7 0 5.1h-5.5v-5.1c0-1.5 1.2-2.8 2.8-2.8C21.1 118.9 22.3 120.1 22.4 121.6zM15.5 131.8c0-2.5 0-7.3 0-10.1 0-2.3 1.9-4.1 4.1-4.1 2.3 0 4.1 1.8 4.1 4 0 2.8 0 7.4 0 10.2 0 2.3-1.9 4.1-4.1 4.1C17.3 135.9 15.5 134.3 15.5 131.8zM37.2 133.4c-1.2.7-3.2 1.9-4.5 2.6l-2.8-4.8 4.4-2.5c1.3-.8 3-.3 3.8 1C38.9 131 38.5 132.6 37.2 133.4zM25 132.5c2.2-1.3 6.4-3.7 8.8-5.1 2-1.1 4.5-.5 5.7 1.5 1.1 2 .5 4.4-1.4 5.6-2.4 1.4-6.4 3.7-8.8 5.1-2 1.1-4.5.5-5.7-1.5C22.3 136.2 22.8 133.8 25 132.5zM34.5 152.2c-1.2-.7-3.2-1.9-4.5-2.6l2.8-4.8 4.4 2.5c1.3.8 1.8 2.5 1 3.8C37.4 152.4 35.8 152.9 34.5 152.2zM29.1 141.1c2.2 1.3 6.4 3.7 8.8 5.1 2 1.1 2.7 3.7 1.5 5.7-1.1 2-3.6 2.6-5.6 1.6-2.4-1.4-6.4-3.7-8.8-5.1-2-1.1-2.7-3.7-1.5-5.7C24.6 140.6 26.9 139.8 29.1 141.1zM16.8 159.1c0-1.4 0-3.7 0-5.1h5.5v5.1c0 1.5-1.2 2.8-2.8 2.8C18.1 161.8 16.9 160.6 16.8 159.1zM23.7 148.9c0 2.5 0 7.4 0 10.1 0 2.3-1.9 4.1-4.1 4.1-2.3 0-4.1-1.8-4.1-4 0-2.8 0-7.4 0-10.2 0-2.3 1.9-4.1 4.1-4.1S23.7 146.4 23.7 148.9zM2 147.4c1.2-.7 3.2-1.9 4.5-2.6l2.8 4.8-4.4 2.5c-1.3.8-3 .3-3.8-1C.3 149.8.7 148.1 2 147.4zM14.3 148.2c-2.2 1.3-6.4 3.7-8.8 5.1-1.9 1.1-4.4.5-5.6-1.4v-4.4c.3-.5.8-1 1.4-1.3 2.4-1.4 6.4-3.7 8.8-5.1 2-1.1 4.5-.5 5.7 1.5C16.9 144.6 16.4 147 14.3 148.2zM10.1 139.7c-2.2-1.3-6.4-3.7-8.8-5.1-.6-.4-1.1-.8-1.4-1.4v-4.4c1.2-1.9 3.6-2.5 5.5-1.4 2.4 1.4 6.4 3.7 8.8 5.1 2 1.1 2.7 3.7 1.5 5.7C14.6 140.1 12.3 140.9 10.1 139.7z"/><path class="st0" d="M133 281.5c1.2.7 3.2 1.9 4.5 2.6l-2.8 4.8-4.4-2.5c-1.3-.8-1.8-2.5-1-3.8C130 281.2 131.7 280.8 133 281.5M150.6 274.5c0 1.4 0 3.7 0 5.1h-5.5v-5.1c0-1.5 1.2-2.8 2.8-2.8C149.4 271.8 150.6 273 150.6 274.5zM143.7 284.7c0-2.5 0-7.3 0-10.1 0-2.3 1.9-4.1 4.1-4.1 2.3 0 4.1 1.8 4.1 4 0 2.8 0 7.4 0 10.2 0 2.3-1.9 4.1-4.1 4.1C145.6 288.8 143.7 287.2 143.7 284.7zM165.5 286.3c-1.2.7-3.2 1.9-4.5 2.6l-2.8-4.8 4.4-2.5c1.3-.8 3-.3 3.8 1C167.2 283.9 166.8 285.5 165.5 286.3zM153.2 285.4c2.2-1.3 6.4-3.7 8.8-5.1 2-1.1 4.5-.5 5.7 1.5 1.1 2 .5 4.4-1.4 5.6-2.4 1.4-6.4 3.7-8.8 5.1-2 1.1-4.5.5-5.7-1.5C150.5 289.1 151 286.7 153.2 285.4zM162.7 305.1c-1.2-.7-3.2-1.9-4.5-2.6l2.8-4.8 4.4 2.5c1.3.8 1.8 2.5 1 3.8C165.7 305.3 164 305.8 162.7 305.1zM157.3 294c2.2 1.3 6.4 3.7 8.8 5.1 2 1.1 2.7 3.7 1.5 5.7-1.1 2-3.6 2.6-5.6 1.6-2.4-1.4-6.4-3.7-8.8-5.1-2-1.1-2.7-3.7-1.5-5.7C152.8 293.5 155.2 292.7 157.3 294zM145.1 312c0-1.4 0-3.7 0-5.1h5.5v5.1c0 1.5-1.2 2.8-2.8 2.8C146.3 314.7 145.1 313.5 145.1 312zM152 301.8c0 2.5 0 7.4 0 10.1 0 2.3-1.9 4.1-4.1 4.1-2.3 0-4.1-1.8-4.1-4 0-2.8 0-7.4 0-10.2 0-2.3 1.9-4.1 4.1-4.1C150.1 297.7 152 299.3 152 301.8zM130.2 300.3c1.2-.7 3.2-1.9 4.5-2.6l2.8 4.8-4.4 2.5c-1.3.8-3 .3-3.8-1C128.5 302.7 129 301 130.2 300.3zM142.5 301.1c-2.2 1.3-6.4 3.7-8.8 5.1-2 1.1-4.5.5-5.7-1.5-1.1-2-.5-4.4 1.4-5.6 2.4-1.4 6.4-3.7 8.8-5.1 2-1.1 4.5-.5 5.7 1.5C145.2 297.5 144.7 299.9 142.5 301.1zM138.4 292.6c-2.2-1.3-6.4-3.7-8.8-5.1-2-1.1-2.7-3.7-1.5-5.7 1.1-2 3.6-2.6 5.6-1.6 2.4 1.4 6.4 3.7 8.8 5.1 2 1.1 2.7 3.7 1.5 5.7C142.9 293 140.6 293.8 138.4 292.6zM148.3 188.2c1.2.7 3.2 1.9 4.5 2.6l-2.8 4.8-4.4-2.5c-1.3-.8-1.8-2.5-1-3.8C145.3 188 147 187.5 148.3 188.2M165.9 181.2c0 1.4 0 3.7 0 5.1h-5.5v-5.1c0-1.5 1.2-2.8 2.8-2.8C164.7 178.5 165.9 179.7 165.9 181.2zM159 191.4c0-2.5 0-7.3 0-10.1 0-2.3 1.9-4.1 4.1-4.1 2.3 0 4.1 1.8 4.1 4 0 2.8 0 7.4 0 10.2 0 2.3-1.9 4.1-4.1 4.1C160.9 195.6 159 193.9 159 191.4zM180.8 193c-1.2.7-3.2 1.9-4.5 2.6l-2.8-4.8 4.4-2.5c1.3-.8 3-.3 3.8 1C182.5 190.6 182.1 192.2 180.8 193zM168.5 192.1c2.2-1.3 6.4-3.7 8.8-5.1 2-1.1 4.5-.5 5.7 1.5 1.1 2 .5 4.4-1.4 5.6-2.4 1.4-6.4 3.7-8.8 5.1-2 1.1-4.5.5-5.7-1.5C165.9 195.8 166.3 193.4 168.5 192.1zM178 211.8c-1.2-.7-3.2-1.9-4.5-2.6l2.8-4.8 4.4 2.5c1.3.8 1.8 2.5 1 3.8C181 212 179.3 212.5 178 211.8zM172.6 200.7c2.2 1.3 6.4 3.7 8.8 5.1 2 1.1 2.7 3.7 1.5 5.7-1.1 2-3.6 2.6-5.6 1.6-2.4-1.4-6.4-3.7-8.8-5.1-2-1.1-2.7-3.7-1.5-5.7C168.1 200.2 170.5 199.4 172.6 200.7zM160.4 218.7c0-1.4 0-3.7 0-5.1h5.5v5.1c0 1.5-1.2 2.8-2.8 2.8C161.7 221.4 160.4 220.2 160.4 218.7zM167.3 208.5c0 2.5 0 7.4 0 10.1 0 2.3-1.9 4.1-4.1 4.1-2.3 0-4.1-1.8-4.1-4 0-2.8 0-7.4 0-10.2 0-2.3 1.9-4.1 4.1-4.1C165.4 204.4 167.3 206 167.3 208.5zM145.5 207c1.2-.7 3.2-1.9 4.5-2.6l2.8 4.8-4.4 2.5c-1.3.8-3 .3-3.8-1C143.8 209.4 144.3 207.7 145.5 207zM157.8 207.8c-2.2 1.3-6.4 3.7-8.8 5.1-2 1.1-4.5.5-5.7-1.5-1.1-2-.5-4.4 1.4-5.6 2.4-1.4 6.4-3.7 8.8-5.1 2-1.1 4.5-.5 5.7 1.5C160.5 204.2 160 206.6 157.8 207.8zM153.7 199.3c-2.2-1.3-6.4-3.7-8.8-5.1-2-1.1-2.7-3.7-1.5-5.7 1.1-2 3.6-2.6 5.6-1.6 2.4 1.4 6.4 3.7 8.8 5.1 2 1.1 2.7 3.7 1.5 5.7C158.2 199.7 155.9 200.5 153.7 199.3z"/></svg>