<svg id="Слой_1" xmlns="http://www.w3.org/2000/svg" viewBox="0 0 371.5 184.2"><style>.st0,.st1{fill-rule:evenodd;clip-rule:evenodd;fill:#f26722}.st1{fill:#00d1c6}</style><path class="st0" d="M35.1,138.7c0.7,1.3,0.2,3-1,3.7c-1.3,0.8-3,0.3-3.8-1l-2.5-4.4l4.8-2.8C33.2,135.5,34.4,137.5,35.1,138.7 M44.8,123.9c0,1.5-1.2,2.8-2.8,2.8h-5.1v-5.5c1.4,0,3.7,0,5.1,0C43.6,121.2,44.8,122.4,44.8,123.9z M27.7,123.9	c0-2.3,1.9-4.1,4.1-4.1c2.8,0,7.4,0,10.2,0c2.2,0,4,1.9,4,4.1c0,2.3-1.9,4.1-4.1,4.1c-2.8,0-7.6,0-10.1,0	C29.4,128,27.7,126.2,27.7,123.9z M34,105.3c1.3,0.8,1.8,2.5,1,3.8l-2.5,4.4l-4.8-2.8c0.7-1.2,1.9-3.2,2.6-4.5	C31.1,105,32.7,104.6,34,105.3z M25.5,120c-2-1.1-2.7-3.7-1.5-5.7c1.4-2.4,3.7-6.4,5.1-8.8c1.2-1.9,3.7-2.6,5.6-1.4	c2,1.1,2.7,3.7,1.5,5.7c-1.4,2.4-3.8,6.6-5.1,8.8C29.9,120.7,27.5,121.2,25.5,120z M12.6,105.3c1.3-0.8,3-0.3,3.8,1l2.5,4.4	l-4.8,2.8c-0.7-1.2-1.9-3.2-2.6-4.5C10.8,107.7,11.3,106.1,12.6,105.3z M21.1,120.1c-2,1.1-4.5,0.5-5.7-1.5	c-1.4-2.4-3.7-6.4-5.1-8.8c-1.1-2-0.4-4.4,1.6-5.6c2-1.1,4.5-0.5,5.7,1.5c1.4,2.4,3.8,6.6,5.1,8.8C23.9,116.6,23.1,118.9,21.1,120.1	z M1.9,123.9c0-1.5,1.2-2.8,2.8-2.8h5.1v5.5c-1.4,0-3.7,0-5.1,0C3.1,126.6,1.9,125.4,1.9,123.9z M18.9,123.9c0,2.3-1.9,4.1-4.1,4.1	c-2.8,0-7.4,0-10.2,0c-2.2,0-4-1.9-4-4.1c0-2.3,1.9-4.1,4.1-4.1c2.8,0,7.6,0,10.1,0C17.3,119.8,18.9,121.6,18.9,123.9z M12.6,142.5	c-1.3-0.8-1.8-2.5-1-3.8l2.5-4.4l4.8,2.8c-0.7,1.2-1.9,3.2-2.6,4.5C15.6,142.8,13.9,143.2,12.6,142.5z M21.1,127.7	c2,1.1,2.7,3.7,1.5,5.7c-1.4,2.4-3.7,6.4-5.1,8.8c-1.2,1.9-3.7,2.6-5.6,1.4c-2-1.1-2.7-3.7-1.5-5.7c1.4-2.4,3.8-6.6,5.1-8.8	C16.7,127.1,19.1,126.6,21.1,127.7z M25.5,127.7c2-1.1,4.5-0.5,5.7,1.5c1.4,2.4,3.7,6.4,5.1,8.8c1.1,2,0.4,4.4-1.6,5.6	c-2,1.1-4.5,0.5-5.7-1.5c-1.4-2.4-3.8-6.6-5.1-8.8C22.8,131.2,23.6,128.9,25.5,127.7z"/><path class="st1" d="M79.9,184.2c-0.3-1.2-1.3-2.1-2.6-2.1c-1.4,0-3.7,0-5.1,0v2.1H63c0.3-2,2-3.5,4.1-3.5c2.8,0,7.4,0,10.2,0	c2,0,3.7,1.6,4,3.5H79.9z M69.2,166.3c1.3,0.8,1.8,2.5,1,3.8l-2.5,4.4l-4.8-2.8c0.7-1.2,1.9-3.2,2.6-4.5	C66.3,165.9,67.9,165.5,69.2,166.3z M60.7,181c-2-1.1-2.7-3.7-1.5-5.7c1.4-2.4,3.7-6.4,5.1-8.8c1.2-1.9,3.7-2.6,5.6-1.4	c2,1.1,2.7,3.7,1.5,5.7c-1.4,2.4-3.8,6.6-5.1,8.8C65.1,181.7,62.7,182.1,60.7,181z M47.8,166.3c1.3-0.8,3-0.3,3.8,1l2.5,4.4	l-4.8,2.8c-0.7-1.2-1.9-3.2-2.6-4.5C46,168.7,46.5,167,47.8,166.3z M56.3,181c-2,1.1-4.5,0.5-5.7-1.5c-1.4-2.4-3.7-6.4-5.1-8.8	c-1.1-2-0.4-4.4,1.6-5.6c2-1.1,4.5-0.5,5.7,1.5c1.4,2.4,3.8,6.6,5.1,8.8C59.1,177.5,58.3,179.9,56.3,181z M54.1,184.2h-9.1v-2.1	h-5.1c-1.3,0-2.4,0.9-2.7,2.1h-1.4c0.3-2,2-3.5,4.1-3.5c2.8,0,7.6,0,10.1,0C52.2,180.7,53.8,182.2,54.1,184.2z"/><path class="st0" d="M70.3,159.1c0.7,1.3,0.2,3-1,3.7c-1.3,0.8-3,0.3-3.8-1l-2.5-4.4l4.8-2.8C68.4,155.8,69.6,157.8,70.3,159.1 M80,144.2c0,1.5-1.2,2.8-2.8,2.8h-5.1v-5.5c1.4,0,3.7,0,5.1,0C78.8,141.5,80,142.7,80,144.2z M63,144.2c0-2.3,1.9-4.1,4.1-4.1	c2.8,0,7.4,0,10.2,0c2.2,0,4,1.9,4,4.1c0,2.3-1.9,4.1-4.1,4.1c-2.8,0-7.6,0-10.1,0C64.6,148.3,63,146.5,63,144.2z M69.2,125.6	c1.3,0.8,1.8,2.5,1,3.8l-2.5,4.4l-4.8-2.8c0.7-1.2,1.9-3.2,2.6-4.5C66.3,125.3,67.9,124.9,69.2,125.6z M60.7,140.4	c-2-1.1-2.7-3.7-1.5-5.7c1.4-2.4,3.7-6.4,5.1-8.8c1.2-1.9,3.7-2.6,5.6-1.4c2,1.1,2.7,3.7,1.5,5.7c-1.4,2.4-3.8,6.6-5.1,8.8	C65.1,141,62.7,141.5,60.7,140.4z M47.8,125.6c1.3-0.8,3-0.3,3.8,1l2.5,4.4l-4.8,2.8c-0.7-1.2-1.9-3.2-2.6-4.5	C46,128,46.5,126.4,47.8,125.6z M56.3,140.4c-2,1.1-4.5,0.5-5.7-1.5c-1.4-2.4-3.7-6.4-5.1-8.8c-1.1-2-0.4-4.4,1.6-5.6	c2-1.1,4.5-0.5,5.7,1.5c1.4,2.4,3.8,6.6,5.1,8.8C59.1,136.9,58.3,139.2,56.3,140.4z M37.1,144.2c0-1.5,1.2-2.8,2.8-2.8h5.1v5.5	c-1.4,0-3.7,0-5.1,0C38.3,146.9,37.1,145.7,37.1,144.2z M54.1,144.2c0,2.3-1.9,4.1-4.1,4.1c-2.8,0-7.4,0-10.2,0c-2.2,0-4-1.9-4-4.1	c0-2.3,1.9-4.1,4.1-4.1c2.8,0,7.6,0,10.1,0C52.5,140.1,54.1,141.9,54.1,144.2z M47.8,162.8c-1.3-0.8-1.8-2.5-1-3.8l2.5-4.4l4.8,2.8	c-0.7,1.2-1.9,3.2-2.6,4.5C50.8,163.1,49.1,163.5,47.8,162.8z M56.3,148.1c2,1.1,2.7,3.7,1.5,5.7c-1.4,2.4-3.7,6.4-5.1,8.8	c-1.2,1.9-3.7,2.6-5.6,1.4c-2-1.1-2.7-3.7-1.5-5.7c1.4-2.4,3.8-6.6,5.1-8.8C51.9,147.4,54.3,146.9,56.3,148.1z M60.7,148	c2-1.1,4.5-0.5,5.7,1.5c1.4,2.4,3.7,6.4,5.1,8.8c1.1,2,0.4,4.4-1.6,5.6c-2,1.1-4.5,0.5-5.7-1.5c-1.4-2.4-3.8-6.6-5.1-8.8	C58,151.5,58.8,149.2,60.7,148z"/><path class="st0" d="M105.5,138.7c0.7,1.3,0.2,3-1,3.7c-1.3,0.8-3,0.3-3.8-1l-2.5-4.4l4.8-2.8C103.6,135.5,104.8,137.5,105.5,138.7 M115.2,123.9c0,1.5-1.2,2.8-2.8,2.8h-5.1v-5.5c1.4,0,3.7,0,5.1,0C114,121.2,115.2,122.4,115.2,123.9z M98.2,123.9	c0-2.3,1.9-4.1,4.1-4.1c2.8,0,7.4,0,10.2,0c2.2,0,4,1.9,4,4.1c0,2.3-1.9,4.1-4.1,4.1c-2.8,0-7.6,0-10.1,0	C99.8,128,98.2,126.2,98.2,123.9z M104.4,105.3c1.3,0.8,1.8,2.5,1,3.8l-2.5,4.4l-4.8-2.8c0.7-1.2,1.9-3.2,2.6-4.5	C101.5,105,103.1,104.6,104.4,105.3z M95.9,120c-2-1.1-2.7-3.7-1.5-5.7c1.4-2.4,3.7-6.4,5.1-8.8c1.2-1.9,3.7-2.6,5.6-1.4	c2,1.1,2.7,3.7,1.5,5.7c-1.4,2.4-3.8,6.6-5.1,8.8C100.3,120.7,97.9,121.2,95.9,120z M83,105.3c1.3-0.8,3-0.3,3.8,1l2.5,4.4l-4.8,2.8	c-0.7-1.2-1.9-3.2-2.6-4.5C81.2,107.7,81.7,106.1,83,105.3z M91.5,120.1c-2,1.1-4.5,0.5-5.7-1.5c-1.4-2.4-3.7-6.4-5.1-8.8	c-1.1-2-0.4-4.4,1.6-5.6c2-1.1,4.5-0.5,5.7,1.5c1.4,2.4,3.8,6.6,5.1,8.8C94.3,116.6,93.5,118.9,91.5,120.1z M72.3,123.9	c0-1.5,1.2-2.8,2.8-2.8h5.1v5.5c-1.4,0-3.7,0-5.1,0C73.5,126.6,72.3,125.4,72.3,123.9z M89.3,123.9c0,2.3-1.9,4.1-4.1,4.1	c-2.8,0-7.4,0-10.2,0c-2.2,0-4-1.9-4-4.1c0-2.3,1.9-4.1,4.1-4.1c2.8,0,7.6,0,10.1,0C87.7,119.8,89.3,121.6,89.3,123.9z M83,142.5	c-1.3-0.8-1.8-2.5-1-3.8l2.5-4.4l4.8,2.8c-0.7,1.2-1.9,3.2-2.6,4.5C86,142.8,84.3,143.2,83,142.5z M91.5,127.7	c2,1.1,2.7,3.7,1.5,5.7c-1.4,2.4-3.7,6.4-5.1,8.8c-1.2,1.9-3.7,2.6-5.6,1.4c-2-1.1-2.7-3.7-1.5-5.7c1.4-2.4,3.8-6.6,5.1-8.8	C87.1,127.1,89.5,126.6,91.5,127.7z M95.9,127.7c2-1.1,4.5-0.5,5.7,1.5c1.4,2.4,3.7,6.4,5.1,8.8c1.1,2,0.4,4.4-1.6,5.6	c-2,1.1-4.5,0.5-5.7-1.5c-1.4-2.4-3.8-6.6-5.1-8.8C93.2,131.2,94,128.9,95.9,127.7z"/><path class="st1" d="M150.2,184.2c-0.3-1.2-1.3-2.1-2.6-2.1c-1.4,0-3.7,0-5.1,0v2.1h-9.1c0.3-2,2-3.5,4.1-3.5c2.8,0,7.4,0,10.2,0	c2,0,3.7,1.6,4,3.5H150.2z M139.6,166.3c1.3,0.8,1.8,2.5,1,3.8l-2.5,4.4l-4.8-2.8c0.7-1.2,1.9-3.2,2.6-4.5	C136.6,165.9,138.3,165.5,139.6,166.3z M131.1,181c-2-1.1-2.7-3.7-1.5-5.7c1.4-2.4,3.7-6.4,5.1-8.8c1.2-1.9,3.7-2.6,5.6-1.4	c2,1.1,2.7,3.7,1.5,5.7c-1.4,2.4-3.8,6.6-5.1,8.8C135.5,181.7,133.1,182.1,131.1,181z M118.1,166.3c1.3-0.8,3-0.3,3.8,1l2.5,4.4	l-4.8,2.8c-0.7-1.2-1.9-3.2-2.6-4.5C116.4,168.7,116.8,167,118.1,166.3z M126.6,181c-2,1.1-4.5,0.5-5.7-1.5	c-1.4-2.4-3.7-6.4-5.1-8.8c-1.1-2-0.4-4.4,1.6-5.6c2-1.1,4.5-0.5,5.7,1.5c1.4,2.4,3.8,6.6,5.1,8.8	C129.4,177.5,128.6,179.9,126.6,181z M124.4,184.2h-9.1v-2.1h-5.1c-1.3,0-2.4,0.9-2.7,2.1h-1.4c0.3-2,2-3.5,4.1-3.5	c2.8,0,7.6,0,10.1,0C122.6,180.7,124.1,182.2,124.4,184.2z"/><path class="st0" d="M140.6,159.1c0.7,1.3,0.2,3-1,3.7c-1.3,0.8-3,0.3-3.8-1l-2.5-4.4l4.8-2.8C138.8,155.8,139.9,157.8,140.6,159.1 M150.3,144.2c0,1.5-1.2,2.8-2.8,2.8h-5.1v-5.5c1.4,0,3.7,0,5.1,0C149.1,141.5,150.3,142.7,150.3,144.2z M133.3,144.2	c0-2.3,1.9-4.1,4.1-4.1c2.8,0,7.4,0,10.2,0c2.2,0,4,1.9,4,4.1c0,2.3-1.9,4.1-4.1,4.1c-2.8,0-7.6,0-10.1,0	C134.9,148.3,133.3,146.5,133.3,144.2z M139.6,125.6c1.3,0.8,1.8,2.5,1,3.8l-2.5,4.4l-4.8-2.8c0.7-1.2,1.9-3.2,2.6-4.5	C136.6,125.3,138.3,124.9,139.6,125.6z M131.1,140.4c-2-1.1-2.7-3.7-1.5-5.7c1.4-2.4,3.7-6.4,5.1-8.8c1.2-1.9,3.7-2.6,5.6-1.4	c2,1.1,2.7,3.7,1.5,5.7c-1.4,2.4-3.8,6.6-5.1,8.8C135.5,141,133.1,141.5,131.1,140.4z M118.1,125.6c1.3-0.8,3-0.3,3.8,1l2.5,4.4	l-4.8,2.8c-0.7-1.2-1.9-3.2-2.6-4.5C116.4,128,116.8,126.4,118.1,125.6z M126.6,140.4c-2,1.1-4.5,0.5-5.7-1.5	c-1.4-2.4-3.7-6.4-5.1-8.8c-1.1-2-0.4-4.4,1.6-5.6c2-1.1,4.5-0.5,5.7,1.5c1.4,2.4,3.8,6.6,5.1,8.8	C129.4,136.9,128.6,139.2,126.6,140.4z M107.4,144.2c0-1.5,1.2-2.8,2.8-2.8h5.1v5.5c-1.4,0-3.7,0-5.1,0	C108.6,146.9,107.4,145.7,107.4,144.2z M124.4,144.2c0,2.3-1.9,4.1-4.1,4.1c-2.8,0-7.4,0-10.2,0c-2.2,0-4-1.9-4-4.1	c0-2.3,1.9-4.1,4.1-4.1c2.8,0,7.6,0,10.1,0C122.8,140.1,124.4,141.9,124.4,144.2z M118.2,162.8c-1.3-0.8-1.8-2.5-1-3.8l2.5-4.4	l4.8,2.8c-0.7,1.2-1.9,3.2-2.6,4.5C121.1,163.1,119.4,163.5,118.2,162.8z M126.7,148.1c2,1.1,2.7,3.7,1.5,5.7	c-1.4,2.4-3.7,6.4-5.1,8.8c-1.2,1.9-3.7,2.6-5.6,1.4c-2-1.1-2.7-3.7-1.5-5.7c1.4-2.4,3.8-6.6,5.1-8.8	C122.3,147.4,124.7,146.9,126.7,148.1z M131.1,148c2-1.1,4.5-0.5,5.7,1.5c1.4,2.4,3.7,6.4,5.1,8.8c1.1,2,0.4,4.4-1.6,5.6	c-2,1.1-4.5,0.5-5.7-1.5c-1.4-2.4-3.8-6.6-5.1-8.8C128.3,151.5,129.1,149.2,131.1,148z"/><path class="st1" d="M35.1,98.1c0.7,1.3,0.2,3-1,3.7c-1.3,0.8-3,0.3-3.8-1l-2.5-4.4l4.8-2.8C33.2,94.9,34.4,96.9,35.1,98.1 M44.8,83.3c0,1.5-1.2,2.8-2.8,2.8h-5.1v-5.5c1.4,0,3.7,0,5.1,0C43.6,80.6,44.8,81.8,44.8,83.3z M27.7,83.3c0-2.3,1.9-4.1,4.1-4.1	c2.8,0,7.4,0,10.2,0c2.2,0,4,1.9,4,4.1c0,2.3-1.9,4.1-4.1,4.1c-2.8,0-7.6,0-10.1,0C29.4,87.4,27.7,85.6,27.7,83.3z M34,64.7	c1.3,0.8,1.8,2.5,1,3.8l-2.5,4.4l-4.8-2.8c0.7-1.2,1.9-3.2,2.6-4.5C31.1,64.4,32.7,64,34,64.7z M25.5,79.4c-2-1.1-2.7-3.7-1.5-5.7	c1.4-2.4,3.7-6.4,5.1-8.8c1.2-1.9,3.7-2.6,5.6-1.4c2,1.1,2.7,3.7,1.5,5.7c-1.4,2.4-3.8,6.6-5.1,8.8C29.9,80.1,27.5,80.6,25.5,79.4z M12.6,64.7c1.3-0.8,3-0.3,3.8,1l2.5,4.4l-4.8,2.8c-0.7-1.2-1.9-3.2-2.6-4.5C10.8,67.1,11.3,65.5,12.6,64.7z M21.1,79.5	c-2,1.1-4.5,0.5-5.7-1.5c-1.4-2.4-3.7-6.4-5.1-8.8c-1.1-2-0.4-4.4,1.6-5.6c2-1.1,4.5-0.5,5.7,1.5c1.4,2.4,3.8,6.6,5.1,8.8	C23.9,76,23.1,78.3,21.1,79.5z M1.9,83.3c0-1.5,1.2-2.8,2.8-2.8h5.1v5.5c-1.4,0-3.7,0-5.1,0C3.1,86,1.9,84.8,1.9,83.3z M18.9,83.3	c0,2.3-1.9,4.1-4.1,4.1c-2.8,0-7.4,0-10.2,0c-2.2,0-4-1.9-4-4.1c0-2.3,1.9-4.1,4.1-4.1c2.8,0,7.6,0,10.1,0	C17.3,79.1,18.9,81,18.9,83.3z M12.6,101.9c-1.3-0.8-1.8-2.5-1-3.8l2.5-4.4l4.8,2.8c-0.7,1.2-1.9,3.2-2.6,4.5	C15.6,102.2,13.9,102.6,12.6,101.9z M21.1,87.1c2,1.1,2.7,3.7,1.5,5.7c-1.4,2.4-3.7,6.4-5.1,8.8c-1.2,1.9-3.7,2.6-5.6,1.4	c-2-1.1-2.7-3.7-1.5-5.7c1.4-2.4,3.8-6.6,5.1-8.8C16.7,86.5,19.1,86,21.1,87.1z M25.5,87.1c2-1.1,4.5-0.5,5.7,1.5	c1.4,2.4,3.7,6.4,5.1,8.8c1.1,2,0.4,4.5-1.6,5.6c-2,1.1-4.5,0.5-5.7-1.5c-1.4-2.4-3.8-6.6-5.1-8.8C22.8,90.6,23.6,88.3,25.5,87.1z"/><path class="st1" d="M70.3,118.5c0.7,1.3,0.2,3-1,3.7c-1.3,0.8-3,0.3-3.8-1l-2.5-4.4l4.8-2.8C68.4,115.2,69.6,117.2,70.3,118.5 M80,103.6c0,1.5-1.2,2.8-2.8,2.8h-5.1v-5.5c1.4,0,3.7,0,5.1,0C78.8,100.9,80,102.1,80,103.6z M63,103.6c0-2.3,1.9-4.1,4.1-4.1	c2.8,0,7.4,0,10.2,0c2.2,0,4,1.9,4,4.1c0,2.3-1.9,4.1-4.1,4.1c-2.8,0-7.6,0-10.1,0C64.6,107.7,63,105.9,63,103.6z M69.2,85	c1.3,0.8,1.8,2.5,1,3.8l-2.5,4.4l-4.8-2.8c0.7-1.2,1.9-3.2,2.6-4.5C66.3,84.7,67.9,84.3,69.2,85z M60.7,99.8c-2-1.1-2.7-3.7-1.5-5.7	c1.4-2.4,3.7-6.4,5.1-8.8c1.2-1.9,3.7-2.6,5.6-1.4c2,1.1,2.7,3.7,1.5,5.7c-1.4,2.4-3.8,6.6-5.1,8.8C65.1,100.4,62.7,100.9,60.7,99.8	z M47.8,85c1.3-0.8,3-0.3,3.8,1l2.5,4.4l-4.8,2.8c-0.7-1.2-1.9-3.2-2.6-4.5C46,87.4,46.5,85.8,47.8,85z M56.3,99.8	c-2,1.1-4.5,0.5-5.7-1.5c-1.4-2.4-3.7-6.4-5.1-8.8c-1.1-2-0.4-4.4,1.6-5.6c2-1.1,4.5-0.5,5.7,1.5c1.4,2.4,3.8,6.6,5.1,8.8	C59.1,96.3,58.3,98.6,56.3,99.8z M37.1,103.6c0-1.5,1.2-2.8,2.8-2.8h5.1v5.5c-1.4,0-3.7,0-5.1,0C38.3,106.3,37.1,105.1,37.1,103.6z M54.1,103.6c0,2.3-1.9,4.1-4.1,4.1c-2.8,0-7.4,0-10.2,0c-2.2,0-4-1.9-4-4.1c0-2.3,1.9-4.1,4.1-4.1c2.8,0,7.6,0,10.1,0	C52.5,99.5,54.1,101.3,54.1,103.6z M47.8,122.2c-1.3-0.8-1.8-2.5-1-3.8l2.5-4.4l4.8,2.8c-0.7,1.2-1.9,3.2-2.6,4.5	C50.8,122.5,49.1,122.9,47.8,122.2z M56.3,107.4c2,1.1,2.7,3.7,1.5,5.7c-1.4,2.4-3.7,6.4-5.1,8.8c-1.2,1.9-3.7,2.6-5.6,1.4	c-2-1.1-2.7-3.7-1.5-5.7c1.4-2.4,3.8-6.6,5.1-8.8C51.9,106.8,54.3,106.3,56.3,107.4z M60.7,107.4c2-1.1,4.5-0.5,5.7,1.5	c1.4,2.4,3.7,6.4,5.1,8.8c1.1,2,0.4,4.5-1.6,5.6c-2,1.1-4.5,0.5-5.7-1.5c-1.4-2.4-3.8-6.6-5.1-8.8C58,110.9,58.8,108.6,60.7,107.4z"/><path class="st0" d="M35.1,57.5c0.7,1.3,0.2,3-1,3.7c-1.3,0.8-3,0.3-3.8-1l-2.5-4.4l4.8-2.8C33.2,54.3,34.4,56.3,35.1,57.5 M44.8,42.6c0,1.5-1.2,2.8-2.8,2.8h-5.1v-5.5c1.4,0,3.7,0,5.1,0C43.6,39.9,44.8,41.1,44.8,42.6z M27.7,42.6c0-2.3,1.9-4.1,4.1-4.1	c2.8,0,7.4,0,10.2,0c2.2,0,4,1.9,4,4.1c0,2.3-1.9,4.1-4.1,4.1c-2.8,0-7.6,0-10.1,0C29.4,46.8,27.7,44.9,27.7,42.6z M34,24.1	c1.3,0.8,1.8,2.5,1,3.8l-2.5,4.4l-4.8-2.8c0.7-1.2,1.9-3.2,2.6-4.5C31.1,23.7,32.7,23.3,34,24.1z M25.5,38.8c-2-1.1-2.7-3.7-1.5-5.7	c1.4-2.4,3.7-6.4,5.1-8.8c1.2-1.9,3.7-2.6,5.6-1.4c2,1.1,2.7,3.7,1.5,5.7c-1.4,2.4-3.8,6.6-5.1,8.8C29.9,39.5,27.5,39.9,25.5,38.8z M12.6,24.1c1.3-0.8,3-0.3,3.8,1l2.5,4.4l-4.8,2.8c-0.7-1.2-1.9-3.2-2.6-4.5C10.8,26.5,11.3,24.8,12.6,24.1z M21.1,38.8	c-2,1.1-4.5,0.5-5.7-1.5c-1.4-2.4-3.7-6.4-5.1-8.8c-1.1-2-0.4-4.4,1.6-5.6c2-1.1,4.5-0.5,5.7,1.5c1.4,2.4,3.8,6.6,5.1,8.8	C23.9,35.3,23.1,37.7,21.1,38.8z M1.9,42.7c0-1.5,1.2-2.8,2.8-2.8h5.1v5.5c-1.4,0-3.7,0-5.1,0C3.1,45.4,1.9,44.1,1.9,42.7z M18.9,42.7c0,2.3-1.9,4.1-4.1,4.1c-2.8,0-7.4,0-10.2,0c-2.2,0-4-1.9-4-4.1c0-2.3,1.9-4.1,4.1-4.1c2.8,0,7.6,0,10.1,0	C17.3,38.5,18.9,40.4,18.9,42.7z M12.6,61.2c-1.3-0.8-1.8-2.5-1-3.8l2.5-4.4l4.8,2.8c-0.7,1.2-1.9,3.2-2.6,4.5	C15.6,61.5,13.9,62,12.6,61.2z M21.1,46.5c2,1.1,2.7,3.7,1.5,5.7c-1.4,2.4-3.7,6.4-5.1,8.8c-1.2,1.9-3.7,2.6-5.6,1.4	c-2-1.1-2.7-3.7-1.5-5.7c1.4-2.4,3.8-6.6,5.1-8.8C16.7,45.8,19.1,45.3,21.1,46.5z M25.5,46.5c2-1.1,4.5-0.5,5.7,1.5	c1.4,2.4,3.7,6.4,5.1,8.8c1.1,2,0.4,4.5-1.6,5.6c-2,1.1-4.5,0.5-5.7-1.5c-1.4-2.4-3.8-6.6-5.1-8.8C22.8,49.9,23.6,47.6,25.5,46.5z"/><path class="st1" d="M141.3,118.3c0.7,1.3,0.2,3-1,3.7c-1.3,0.8-3,0.3-3.8-1l-2.5-4.4l4.8-2.8C139.4,115.1,140.6,117.1,141.3,118.3 M150.9,103.5c0,1.5-1.2,2.8-2.8,2.8h-5.1v-5.5c1.4,0,3.7,0,5.1,0C149.8,100.7,150.9,102,150.9,103.5z M133.9,103.5	c0-2.3,1.9-4.1,4.1-4.1c2.8,0,7.4,0,10.2,0c2.2,0,4,1.9,4,4.1c0,2.3-1.9,4.1-4.1,4.1c-2.8,0-7.6,0-10.1,0	C135.5,107.6,133.9,105.7,133.9,103.5z M140.2,84.9c1.3,0.8,1.8,2.5,1,3.8l-2.5,4.4l-4.8-2.8c0.7-1.2,1.9-3.2,2.6-4.5	C137.3,84.6,138.9,84.1,140.2,84.9z M131.7,99.6c-2-1.1-2.7-3.7-1.5-5.7c1.4-2.4,3.7-6.4,5.1-8.8c1.2-1.9,3.7-2.6,5.6-1.4	c2,1.1,2.7,3.7,1.5,5.7c-1.4,2.4-3.8,6.6-5.1,8.8C136.1,100.3,133.7,100.8,131.7,99.6z M118.8,84.9c1.3-0.8,3-0.3,3.8,1l2.5,4.4	l-4.8,2.8c-0.7-1.2-1.9-3.2-2.6-4.5C117,87.3,117.5,85.7,118.8,84.9z M127.3,99.6c-2,1.1-4.5,0.5-5.7-1.5c-1.4-2.4-3.7-6.4-5.1-8.8	c-1.1-2-0.4-4.4,1.6-5.6c2-1.1,4.5-0.5,5.7,1.5c1.4,2.4,3.8,6.6,5.1,8.8C130.1,96.2,129.3,98.5,127.3,99.6z M108.1,103.5	c0-1.5,1.2-2.8,2.8-2.8h5.1v5.5c-1.4,0-3.7,0-5.1,0C109.3,106.2,108.1,105,108.1,103.5z M125.1,103.5c0,2.3-1.9,4.1-4.1,4.1	c-2.8,0-7.4,0-10.2,0c-2.2,0-4-1.9-4-4.1c0-2.3,1.9-4.1,4.1-4.1c2.8,0,7.6,0,10.1,0C123.5,99.3,125.1,101.2,125.1,103.5z M118.8,122	c-1.3-0.8-1.8-2.5-1-3.8l2.5-4.4l4.8,2.8c-0.7,1.2-1.9,3.2-2.6,4.5C121.7,122.4,120.1,122.8,118.8,122z M127.3,107.3	c2,1.1,2.7,3.7,1.5,5.7c-1.4,2.4-3.7,6.4-5.1,8.8c-1.2,1.9-3.7,2.6-5.6,1.4c-2-1.1-2.7-3.7-1.5-5.7c1.4-2.4,3.8-6.6,5.1-8.8	C122.9,106.6,125.3,106.2,127.3,107.3z M131.7,107.3c2-1.1,4.5-0.5,5.7,1.5c1.4,2.4,3.7,6.4,5.1,8.8c1.1,2,0.4,4.4-1.6,5.6	c-2,1.1-4.5,0.5-5.7-1.5c-1.4-2.4-3.8-6.6-5.1-8.8C128.9,110.8,129.7,108.4,131.7,107.3z"/><path class="st1" d="M105.7,98.2c0.7,1.3,0.2,3-1,3.7c-1.3,0.8-3,0.3-3.8-1l-2.5-4.4l4.8-2.8C103.9,94.9,105,96.9,105.7,98.2 M115.4,83.3c0,1.5-1.2,2.8-2.8,2.8h-5.1v-5.5c1.4,0,3.7,0,5.1,0C114.2,80.6,115.4,81.8,115.4,83.3z M98.4,83.3	c0-2.3,1.9-4.1,4.1-4.1c2.8,0,7.4,0,10.2,0c2.2,0,4,1.9,4,4.1c0,2.3-1.9,4.1-4.1,4.1c-2.8,0-7.6,0-10.1,0	C100,87.4,98.4,85.6,98.4,83.3z M104.7,64.7c1.3,0.8,1.8,2.4,1,3.8l-2.5,4.4l-4.8-2.8c0.7-1.2,1.9-3.2,2.6-4.5	C101.7,64.4,103.4,64,104.7,64.7z M96.2,79.5c-2-1.1-2.7-3.7-1.5-5.7c1.4-2.4,3.7-6.4,5.1-8.8c1.2-1.9,3.7-2.6,5.6-1.4	c2,1.1,2.7,3.7,1.5,5.7c-1.4,2.4-3.8,6.6-5.1,8.8C100.6,80.1,98.1,80.6,96.2,79.5z M83.2,64.7c1.3-0.8,3-0.3,3.8,1l2.5,4.4l-4.8,2.8	c-0.7-1.2-1.9-3.2-2.6-4.5C81.5,67.1,81.9,65.5,83.2,64.7z M91.7,79.5c-2,1.1-4.5,0.5-5.7-1.5c-1.4-2.4-3.7-6.4-5.1-8.8	c-1.1-2-0.4-4.4,1.6-5.6c2-1.1,4.5-0.5,5.7,1.5c1.4,2.4,3.8,6.6,5.1,8.8C94.5,76,93.7,78.3,91.7,79.5z M72.5,83.3	c0-1.5,1.2-2.8,2.8-2.8h5.1v5.5c-1.4,0-3.7,0-5.1,0C73.7,86,72.5,84.8,72.5,83.3z M89.5,83.3c0,2.3-1.9,4.1-4.1,4.1	c-2.8,0-7.4,0-10.2,0c-2.2,0-4-1.9-4-4.1c0-2.3,1.9-4.1,4.1-4.1c2.8,0,7.6,0,10.1,0C87.9,79.2,89.5,81,89.5,83.3z M83.2,101.9	c-1.3-0.8-1.8-2.5-1-3.8l2.5-4.4l4.8,2.8c-0.7,1.2-1.9,3.2-2.6,4.5C86.2,102.2,84.5,102.6,83.2,101.9z M91.8,87.1	c2,1.1,2.7,3.7,1.5,5.7c-1.4,2.4-3.7,6.4-5.1,8.8c-1.2,1.9-3.7,2.6-5.6,1.4c-2-1.1-2.7-3.7-1.5-5.7c1.4-2.4,3.8-6.6,5.1-8.8	C87.4,86.5,89.8,86,91.8,87.1z M96.2,87.1c2-1.1,4.5-0.5,5.7,1.5c1.4,2.4,3.7,6.4,5.1,8.8c1.1,2,0.4,4.5-1.6,5.6	c-2,1.1-4.5,0.5-5.7-1.5c-1.4-2.4-3.8-6.6-5.1-8.8C93.4,90.6,94.2,88.3,96.2,87.1z"/><path class="st0" d="M360.5,92.6c0.7,1.3,0.2,3-1,3.7c-1.3,0.8-3,0.3-3.8-1l-2.5-4.4l4.8-2.8C358.6,89.4,359.8,91.4,360.5,92.6 M370.1,77.7c0,1.5-1.2,2.8-2.8,2.8h-5.1V75c1.4,0,3.7,0,5.1,0C368.9,75,370.1,76.3,370.1,77.7z M353.1,77.7c0-2.3,1.9-4.1,4.1-4.1	c2.8,0,7.4,0,10.2,0c2.2,0,4,1.9,4,4.1c0,2.3-1.9,4.1-4.1,4.1c-2.8,0-7.6,0-10.1,0C354.7,81.9,353.1,80,353.1,77.7z M359.4,59.2	c1.3,0.8,1.8,2.5,1,3.8l-2.5,4.4l-4.8-2.8c0.7-1.2,1.9-3.2,2.6-4.5C356.4,58.9,358.1,58.4,359.4,59.2z M350.9,73.9	c-2-1.1-2.7-3.7-1.5-5.7c1.4-2.4,3.7-6.4,5.1-8.8c1.2-1.9,3.7-2.6,5.6-1.4c2,1.1,2.7,3.7,1.5,5.7c-1.4,2.4-3.8,6.6-5.1,8.8	C355.3,74.6,352.9,75.1,350.9,73.9z M337.9,59.2c1.3-0.8,3-0.3,3.8,1l2.5,4.4l-4.8,2.8c-0.7-1.2-1.9-3.2-2.6-4.5	C336.2,61.6,336.7,59.9,337.9,59.2z M346.5,73.9c-2,1.1-4.5,0.5-5.7-1.5c-1.4-2.4-3.7-6.4-5.1-8.8c-1.1-2-0.4-4.4,1.6-5.6	c2-1.1,4.5-0.5,5.7,1.5c1.4,2.4,3.8,6.6,5.1,8.8C349.2,70.5,348.4,72.8,346.5,73.9z M327.2,77.8c0-1.5,1.2-2.8,2.8-2.8h5.1v5.5	c-1.4,0-3.7,0-5.1,0C328.4,80.5,327.2,79.3,327.2,77.8z M344.2,77.8c0,2.3-1.9,4.1-4.1,4.1c-2.8,0-7.4,0-10.2,0c-2.2,0-4-1.9-4-4.1	c0-2.3,1.9-4.1,4.1-4.1c2.8,0,7.6,0,10.1,0C342.6,73.6,344.2,75.5,344.2,77.8z M338,96.3c-1.3-0.8-1.8-2.5-1-3.8l2.5-4.4l4.8,2.8	c-0.7,1.2-1.9,3.2-2.6,4.5C340.9,96.7,339.3,97.1,338,96.3z M346.5,81.6c2,1.1,2.7,3.7,1.5,5.7c-1.4,2.4-3.7,6.4-5.1,8.8	c-1.2,1.9-3.7,2.6-5.6,1.4c-2-1.1-2.7-3.7-1.5-5.7c1.4-2.4,3.8-6.6,5.1-8.8C342.1,80.9,344.5,80.5,346.5,81.6z M350.9,81.6	c2-1.1,4.5-0.5,5.7,1.5c1.4,2.4,3.7,6.4,5.1,8.8c1.1,2,0.4,4.4-1.6,5.6c-2,1.1-4.5,0.5-5.7-1.5c-1.4-2.4-3.8-6.6-5.1-8.8	C348.1,85.1,348.9,82.7,350.9,81.6z"/><path class="st1" d="M35.1 179.4c.7 1.3.2 3-1 3.7-1.3.8-3 .3-3.8-1l-2.5-4.4 4.8-2.8C33.2 176.1 34.4 178.1 35.1 179.4M44.8 164.5c0 1.5-1.2 2.8-2.8 2.8h-5.1v-5.5c1.4 0 3.7 0 5.1 0C43.6 161.8 44.8 163 44.8 164.5zM27.7 164.5c0-2.3 1.9-4.1 4.1-4.1 2.8 0 7.4 0 10.2 0 2.2 0 4 1.9 4 4.1 0 2.3-1.9 4.1-4.1 4.1-2.8 0-7.6 0-10.1 0C29.4 168.6 27.7 166.8 27.7 164.5zM34 145.9c1.3.8 1.8 2.4 1 3.8l-2.5 4.4-4.8-2.8c.7-1.2 1.9-3.2 2.6-4.5C31.1 145.6 32.7 145.2 34 145.9zM25.5 160.7c-2-1.1-2.7-3.7-1.5-5.7 1.4-2.4 3.7-6.4 5.1-8.8 1.2-1.9 3.7-2.6 5.6-1.4 2 1.1 2.7 3.7 1.5 5.7-1.4 2.4-3.8 6.6-5.1 8.8C29.9 161.3 27.5 161.8 25.5 160.7zM12.6 145.9c1.3-.8 3-.3 3.8 1l2.5 4.4-4.8 2.8c-.7-1.2-1.9-3.2-2.6-4.5C10.8 148.3 11.3 146.7 12.6 145.9zM21.1 160.7c-2 1.1-4.5.5-5.7-1.5-1.4-2.4-3.7-6.4-5.1-8.8-1.1-2-.4-4.4 1.6-5.6 2-1.1 4.5-.5 5.7 1.5 1.4 2.4 3.8 6.6 5.1 8.8C23.9 157.2 23.1 159.5 21.1 160.7zM1.9 164.5c0-1.5 1.2-2.8 2.8-2.8h5.1v5.5c-1.4 0-3.7 0-5.1 0C3.1 167.2 1.9 166 1.9 164.5zM18.9 164.5c0 2.3-1.9 4.1-4.1 4.1-2.8 0-7.4 0-10.2 0-2.2 0-4-1.9-4-4.1 0-2.3 1.9-4.1 4.1-4.1 2.8 0 7.6 0 10.1 0C17.3 160.4 18.9 162.2 18.9 164.5zM12.6 183.1c-1.3-.8-1.8-2.5-1-3.8l2.5-4.4 4.8 2.8c-.7 1.2-1.9 3.2-2.6 4.5C15.6 183.4 13.9 183.8 12.6 183.1zM21.1 168.4c2 1.1 2.7 3.7 1.5 5.7-1.4 2.4-3.7 6.4-5.1 8.8-.3.6-.8 1-1.3 1.4h-4.4c-1.9-1.2-2.5-3.6-1.4-5.6 1.4-2.4 3.8-6.6 5.1-8.8C16.7 167.7 19.1 167.2 21.1 168.4zM25.5 168.3c2-1.1 4.5-.5 5.7 1.5 1.4 2.4 3.7 6.4 5.1 8.8 1.1 1.9.4 4.3-1.4 5.5h-4.4c-.6-.3-1-.8-1.4-1.4-1.4-2.4-3.8-6.6-5.1-8.8C22.8 171.8 23.6 169.5 25.5 168.3zM105.5 179.4c.7 1.3.2 3-1 3.7-1.3.8-3 .3-3.8-1l-2.5-4.4 4.8-2.8C103.6 176.1 104.8 178.1 105.5 179.4M115.2 164.5c0 1.5-1.2 2.8-2.8 2.8h-5.1v-5.5c1.4 0 3.7 0 5.1 0C114 161.8 115.2 163 115.2 164.5zM98.2 164.5c0-2.3 1.9-4.1 4.1-4.1 2.8 0 7.4 0 10.2 0 2.2 0 4 1.9 4 4.1 0 2.3-1.9 4.1-4.1 4.1-2.8 0-7.6 0-10.1 0C99.8 168.6 98.2 166.8 98.2 164.5zM104.4 145.9c1.3.8 1.8 2.4 1 3.8l-2.5 4.4-4.8-2.8c.7-1.2 1.9-3.2 2.6-4.5C101.5 145.6 103.1 145.2 104.4 145.9zM95.9 160.7c-2-1.1-2.7-3.7-1.5-5.7 1.4-2.4 3.7-6.4 5.1-8.8 1.2-1.9 3.7-2.6 5.6-1.4 2 1.1 2.7 3.7 1.5 5.7-1.4 2.4-3.8 6.6-5.1 8.8C100.3 161.3 97.9 161.8 95.9 160.7zM83 145.9c1.3-.8 3-.3 3.8 1l2.5 4.4-4.8 2.8c-.7-1.2-1.9-3.2-2.6-4.5C81.2 148.3 81.7 146.7 83 145.9zM91.5 160.7c-2 1.1-4.5.5-5.7-1.5-1.4-2.4-3.7-6.4-5.1-8.8-1.1-2-.4-4.4 1.6-5.6 2-1.1 4.5-.5 5.7 1.5 1.4 2.4 3.8 6.6 5.1 8.8C94.3 157.2 93.5 159.5 91.5 160.7zM72.3 164.5c0-1.5 1.2-2.8 2.8-2.8h5.1v5.5c-1.4 0-3.7 0-5.1 0C73.5 167.2 72.3 166 72.3 164.5zM89.3 164.5c0 2.3-1.9 4.1-4.1 4.1-2.8 0-7.4 0-10.2 0-2.2 0-4-1.9-4-4.1 0-2.3 1.9-4.1 4.1-4.1 2.8 0 7.6 0 10.1 0C87.7 160.4 89.3 162.2 89.3 164.5zM83 183.1c-1.3-.8-1.8-2.5-1-3.8l2.5-4.4 4.8 2.8c-.7 1.2-1.9 3.2-2.6 4.5C86 183.4 84.3 183.8 83 183.1zM91.5 168.4c2 1.1 2.7 3.7 1.5 5.7-1.4 2.4-3.7 6.4-5.1 8.8-.3.6-.8 1-1.3 1.4h-4.4c-1.9-1.2-2.5-3.6-1.4-5.6 1.4-2.4 3.8-6.6 5.1-8.8C87.1 167.7 89.5 167.2 91.5 168.4zM95.9 168.3c2-1.1 4.5-.5 5.7 1.5 1.4 2.4 3.7 6.4 5.1 8.8 1.1 1.9.4 4.3-1.4 5.5h-4.4c-.6-.3-1-.8-1.4-1.4-1.4-2.4-3.8-6.6-5.1-8.8C93.2 171.8 94 169.5 95.9 168.3z"/><path class="st0" d="M241.6,109.9c0.7,1.3,0.2,3-1,3.7c-1.3,0.8-3,0.3-3.8-1l-2.5-4.4l4.8-2.8C239.7,106.6,240.9,108.7,241.6,109.9 M251.2,95c0,1.5-1.2,2.8-2.8,2.8h-5.1v-5.5c1.4,0,3.7,0,5.1,0C250,92.3,251.2,93.5,251.2,95z M234.2,95c0-2.3,1.9-4.1,4.1-4.1	c2.8,0,7.4,0,10.2,0c2.2,0,4,1.9,4,4.1c0,2.3-1.9,4.1-4.1,4.1c-2.8,0-7.6,0-10.1,0C235.8,99.1,234.2,97.3,234.2,95z M240.5,76.4	c1.3,0.8,1.8,2.4,1,3.8l-2.5,4.4l-4.8-2.8c0.7-1.2,1.9-3.2,2.6-4.5C237.5,76.1,239.2,75.7,240.5,76.4z M232,91.2	c-2-1.1-2.7-3.7-1.5-5.7c1.4-2.4,3.7-6.4,5.1-8.8c1.2-1.9,3.7-2.6,5.6-1.4c2,1.1,2.7,3.7,1.5,5.7c-1.4,2.4-3.8,6.6-5.1,8.8	C236.4,91.8,234,92.3,232,91.2z M219,76.5c1.3-0.8,3-0.3,3.8,1l2.5,4.4l-4.8,2.8c-0.7-1.2-1.9-3.2-2.6-4.5	C217.3,78.8,217.7,77.2,219,76.5z M227.6,91.2c-2,1.1-4.5,0.5-5.7-1.5c-1.4-2.4-3.7-6.4-5.1-8.8c-1.1-2-0.4-4.4,1.6-5.6	c2-1.1,4.5-0.5,5.7,1.5c1.4,2.4,3.8,6.6,5.1,8.8C230.3,87.7,229.5,90,227.6,91.2z M208.3,95c0-1.5,1.2-2.8,2.8-2.8h5.1v5.5	c-1.4,0-3.7,0-5.1,0C209.5,97.7,208.3,96.5,208.3,95z M225.3,95c0,2.3-1.9,4.1-4.1,4.1c-2.8,0-7.4,0-10.2,0c-2.2,0-4-1.9-4-4.1	c0-2.3,1.9-4.1,4.1-4.1c2.8,0,7.6,0,10.1,0C223.7,90.9,225.3,92.7,225.3,95z M219.1,113.6c-1.3-0.8-1.8-2.5-1-3.8l2.5-4.4l4.8,2.8	c-0.7,1.2-1.9,3.2-2.6,4.5C222,113.9,220.4,114.3,219.1,113.6z M227.6,98.9c2,1.1,2.7,3.7,1.5,5.7c-1.4,2.4-3.7,6.4-5.1,8.8	c-1.2,1.9-3.7,2.6-5.6,1.4c-2-1.1-2.7-3.7-1.5-5.7c1.4-2.4,3.8-6.6,5.1-8.8C223.2,98.2,225.6,97.7,227.6,98.9z M232,98.8	c2-1.1,4.5-0.5,5.7,1.5c1.4,2.4,3.7,6.4,5.1,8.8c1.1,2,0.4,4.5-1.6,5.6c-2,1.1-4.5,0.5-5.7-1.5c-1.4-2.4-3.8-6.6-5.1-8.8	C229.2,102.3,230,100,232,98.8z"/><path class="st1" d="M176.8 99.2c.7 1.3.2 3-1 3.7-1.3.8-3 .3-3.8-1l-2.5-4.4 4.8-2.8C175 96 176.1 98 176.8 99.2M186.5 84.3c0 1.5-1.2 2.8-2.8 2.8h-5.1v-5.5c1.4 0 3.7 0 5.1 0C185.3 81.6 186.5 82.8 186.5 84.3zM169.5 84.3c0-2.3 1.9-4.1 4.1-4.1 2.8 0 7.4 0 10.2 0 2.2 0 4 1.9 4 4.1 0 2.3-1.9 4.1-4.1 4.1-2.8 0-7.6 0-10.1 0C171.1 88.5 169.5 86.6 169.5 84.3zM175.8 65.8c1.3.8 1.8 2.5 1 3.8l-2.5 4.4-4.8-2.8c.7-1.2 1.9-3.2 2.6-4.5C172.8 65.4 174.5 65 175.8 65.8zM154.3 65.8c1.3-.8 3-.3 3.8 1l2.5 4.4-4.8 2.8c-.7-1.2-1.9-3.2-2.6-4.5C152.6 68.2 153 66.5 154.3 65.8zM143.6 84.3c0-1.5 1.2-2.8 2.8-2.8h5.1v5.5c-1.4 0-3.7 0-5.1 0C144.8 87.1 143.6 85.8 143.6 84.3zM160.6 84.3c0 2.3-1.9 4.1-4.1 4.1-2.8 0-7.4 0-10.2 0-2.2 0-4-1.9-4-4.1 0-2.3 1.9-4.1 4.1-4.1 2.8 0 7.6 0 10.1 0C159 80.2 160.6 82.1 160.6 84.3zM154.3 102.9c-1.3-.8-1.8-2.5-1-3.8l2.5-4.4 4.8 2.8c-.7 1.2-1.9 3.2-2.6 4.5C157.3 103.2 155.6 103.7 154.3 102.9zM162.8 88.2c2 1.1 2.7 3.7 1.5 5.7-1.4 2.4-3.7 6.4-5.1 8.8-1.2 1.9-3.7 2.6-5.6 1.4-2-1.1-2.7-3.7-1.5-5.7 1.4-2.4 3.8-6.6 5.1-8.8C158.4 87.5 160.9 87 162.8 88.2zM159.3 66.1c1.4 2.4 3.8 6.6 5.1 8.8 1.3 2.2.5 4.5-1.5 5.7-2 1.1-4.5.5-5.7-1.5-1.4-2.4-3.7-6.4-5.1-8.8-1.1-2-.4-4.4 1.6-5.6.4-.3.9-.4 1.4-.5h1.3C157.5 64.3 158.6 65 159.3 66.1zM176.4 64.6c2 1.1 2.7 3.7 1.5 5.7-1.4 2.4-3.8 6.6-5.1 8.8-1.3 2.2-3.7 2.7-5.7 1.5-2-1.1-2.7-3.7-1.5-5.7 1.4-2.4 3.7-6.4 5.1-8.8.6-1.1 1.7-1.7 2.8-1.9h1.5C175.6 64.2 176 64.3 176.4 64.6zM167.3 88.2c2-1.1 4.5-.5 5.7 1.5 1.4 2.4 3.7 6.4 5.1 8.8 1.1 2 .4 4.5-1.6 5.6-2 1.1-4.5.5-5.7-1.5-1.4-2.4-3.8-6.6-5.1-8.8C164.5 91.6 165.3 89.3 167.3 88.2zM175.7 179.4c.7 1.3.2 3-1 3.7-1.3.8-3 .3-3.8-1l-2.5-4.4 4.8-2.8C173.9 176.1 175 178.1 175.7 179.4M185.4 164.5c0 1.5-1.2 2.8-2.8 2.8h-5.1v-5.5c1.4 0 3.7 0 5.1 0C184.2 161.8 185.4 163 185.4 164.5zM168.4 164.5c0-2.3 1.9-4.1 4.1-4.1 2.8 0 7.4 0 10.2 0 2.2 0 4 1.9 4 4.1 0 2.3-1.9 4.1-4.1 4.1-2.8 0-7.6 0-10.1 0C170 168.6 168.4 166.8 168.4 164.5zM174.7 145.9c1.3.8 1.8 2.4 1 3.8l-2.5 4.4-4.8-2.8c.7-1.2 1.9-3.2 2.6-4.5C171.7 145.6 173.4 145.2 174.7 145.9zM166.2 160.7c-2-1.1-2.7-3.7-1.5-5.7 1.4-2.4 3.7-6.4 5.1-8.8 1.2-1.9 3.7-2.6 5.6-1.4 2 1.1 2.7 3.7 1.5 5.7-1.4 2.4-3.8 6.6-5.1 8.8C170.6 161.3 168.1 161.8 166.2 160.7zM153.2 145.9c1.3-.8 3-.3 3.8 1l2.5 4.4-4.8 2.8c-.7-1.2-1.9-3.2-2.6-4.5C151.5 148.3 151.9 146.7 153.2 145.9zM161.7 160.7c-2 1.1-4.5.5-5.7-1.5-1.4-2.4-3.7-6.4-5.1-8.8-1.1-2-.4-4.4 1.6-5.6 2-1.1 4.5-.5 5.7 1.5 1.4 2.4 3.8 6.6 5.1 8.8C164.5 157.2 163.7 159.5 161.7 160.7zM142.5 164.5c0-1.5 1.2-2.8 2.8-2.8h5.1v5.5c-1.4 0-3.7 0-5.1 0C143.7 167.2 142.5 166 142.5 164.5zM159.5 164.5c0 2.3-1.9 4.1-4.1 4.1-2.8 0-7.4 0-10.2 0-2.2 0-4-1.9-4-4.1 0-2.3 1.9-4.1 4.1-4.1 2.8 0 7.6 0 10.1 0C157.9 160.4 159.5 162.2 159.5 164.5zM153.2 183.1c-1.3-.8-1.8-2.5-1-3.8l2.5-4.4 4.8 2.8c-.7 1.2-1.9 3.2-2.6 4.5C156.2 183.4 154.5 183.8 153.2 183.1zM161.8 168.4c2 1.1 2.7 3.7 1.5 5.7-1.4 2.4-3.7 6.4-5.1 8.8-.3.6-.8 1-1.3 1.4h-4.4c-1.9-1.2-2.5-3.6-1.4-5.6 1.4-2.4 3.8-6.6 5.1-8.8C157.4 167.7 159.8 167.2 161.8 168.4zM166.2 168.3c2-1.1 4.5-.5 5.7 1.5 1.4 2.4 3.7 6.4 5.1 8.8 1.1 1.9.4 4.3-1.4 5.5h-4.4c-.6-.3-1-.8-1.4-1.4-1.4-2.4-3.8-6.6-5.1-8.8C163.4 171.8 164.2 169.5 166.2 168.3z"/><path class="st0" d="M210.9,159.1c0.7,1.3,0.2,3-1,3.7c-1.3,0.8-3,0.3-3.8-1l-2.5-4.4l4.8-2.8C209.1,155.8,210.2,157.8,210.9,159.1 M220.6,144.2c0,1.5-1.2,2.8-2.8,2.8h-5.1v-5.5c1.4,0,3.7,0,5.1,0C219.4,141.5,220.6,142.7,220.6,144.2z M203.6,144.2	c0-2.3,1.9-4.1,4.1-4.1c2.8,0,7.4,0,10.2,0c2.2,0,4,1.9,4,4.1c0,2.3-1.9,4.1-4.1,4.1c-2.8,0-7.6,0-10.1,0	C205.2,148.3,203.6,146.5,203.6,144.2z M209.9,125.6c1.3,0.8,1.8,2.5,1,3.8l-2.5,4.4l-4.8-2.8c0.7-1.2,1.9-3.2,2.6-4.5	C206.9,125.3,208.6,124.9,209.9,125.6z M201.4,140.4c-2-1.1-2.7-3.7-1.5-5.7c1.4-2.4,3.7-6.4,5.1-8.8c1.2-1.9,3.7-2.6,5.6-1.4	c2,1.1,2.7,3.7,1.5,5.7c-1.4,2.4-3.8,6.6-5.1,8.8C205.7,141,203.3,141.5,201.4,140.4z M188.4,125.6c1.3-0.8,3-0.3,3.8,1l2.5,4.4	l-4.8,2.8c-0.7-1.2-1.9-3.2-2.6-4.5C186.7,128,187.1,126.4,188.4,125.6z M196.9,140.4c-2,1.1-4.5,0.5-5.7-1.5	c-1.4-2.4-3.7-6.4-5.1-8.8c-1.1-2-0.4-4.4,1.6-5.6c2-1.1,4.5-0.5,5.7,1.5c1.4,2.4,3.8,6.6,5.1,8.8	C199.7,136.9,198.9,139.2,196.9,140.4z M177.7,144.2c0-1.5,1.2-2.8,2.8-2.8h5.1v5.5c-1.4,0-3.7,0-5.1,0	C178.9,146.9,177.7,145.7,177.7,144.2z M194.7,144.2c0,2.3-1.9,4.1-4.1,4.1c-2.8,0-7.4,0-10.2,0c-2.2,0-4-1.9-4-4.1	c0-2.3,1.9-4.1,4.1-4.1c2.8,0,7.6,0,10.1,0C193.1,140.1,194.7,141.9,194.7,144.2z M188.4,162.8c-1.3-0.8-1.8-2.5-1-3.8l2.5-4.4	l4.8,2.8c-0.7,1.2-1.9,3.2-2.6,4.5C191.4,163.1,189.7,163.5,188.4,162.8z M196.9,148.1c2,1.1,2.7,3.7,1.5,5.7	c-1.4,2.4-3.7,6.4-5.1,8.8c-1.2,1.9-3.7,2.6-5.6,1.4c-2-1.1-2.7-3.7-1.5-5.7c1.4-2.4,3.8-6.6,5.1-8.8	C192.5,147.4,195,146.9,196.9,148.1z M201.4,148c2-1.1,4.5-0.5,5.7,1.5c1.4,2.4,3.7,6.4,5.1,8.8c1.1,2,0.4,4.4-1.6,5.6	c-2,1.1-4.5,0.5-5.7-1.5c-1.4-2.4-3.8-6.6-5.1-8.8C198.6,151.5,199.4,149.2,201.4,148z"/><path class="st1" d="M310.3 163c.7 1.3.2 3-1 3.7-1.3.8-3 .3-3.8-1l-2.5-4.4 4.8-2.8C308.4 159.7 309.6 161.7 310.3 163M319.9 148.1c0 1.5-1.2 2.8-2.8 2.8h-5.1v-5.5c1.4 0 3.7 0 5.1 0C318.7 145.4 319.9 146.6 319.9 148.1zM302.9 148.1c0-2.3 1.9-4.1 4.1-4.1 2.8 0 7.4 0 10.2 0 2.2 0 4 1.9 4 4.1 0 2.3-1.9 4.1-4.1 4.1-2.8 0-7.6 0-10.1 0C304.5 152.2 302.9 150.4 302.9 148.1zM309.2 129.5c1.3.8 1.8 2.5 1 3.8l-2.5 4.4-4.8-2.8c.7-1.2 1.9-3.2 2.6-4.5C306.3 129.2 307.9 128.8 309.2 129.5zM300.7 144.3c-2-1.1-2.7-3.7-1.5-5.7 1.4-2.4 3.7-6.4 5.1-8.8 1.2-1.9 3.7-2.6 5.6-1.4 2 1.1 2.7 3.7 1.5 5.7-1.4 2.4-3.8 6.6-5.1 8.8C305.1 144.9 302.7 145.4 300.7 144.3zM287.8 129.5c1.3-.8 3-.3 3.8 1l2.5 4.4-4.8 2.8c-.7-1.2-1.9-3.2-2.6-4.5C286 131.9 286.5 130.3 287.8 129.5zM296.3 144.3c-2 1.1-4.5.5-5.7-1.5-1.4-2.4-3.7-6.4-5.1-8.8-1.1-2-.4-4.4 1.6-5.6 2-1.1 4.5-.5 5.7 1.5 1.4 2.4 3.8 6.6 5.1 8.8C299 140.8 298.3 143.1 296.3 144.3zM277.1 148.1c0-1.5 1.2-2.8 2.8-2.8h5.1v5.5c-1.4 0-3.7 0-5.1 0C278.2 150.8 277.1 149.6 277.1 148.1zM294.1 148.1c0 2.3-1.9 4.1-4.1 4.1-2.8 0-7.4 0-10.2 0-2.2 0-4-1.9-4-4.1 0-2.3 1.9-4.1 4.1-4.1 2.8 0 7.6 0 10.1 0C292.4 144 294.1 145.8 294.1 148.1zM287.8 166.7c-1.3-.8-1.8-2.5-1-3.8l2.5-4.4 4.8 2.8c-.7 1.2-1.9 3.2-2.6 4.5C290.7 167 289.1 167.4 287.8 166.7zM296.3 151.9c2 1.1 2.7 3.7 1.5 5.7-1.4 2.4-3.7 6.4-5.1 8.8-1.2 1.9-3.7 2.6-5.6 1.4-2-1.1-2.7-3.7-1.5-5.7 1.4-2.4 3.8-6.6 5.1-8.8C291.9 151.3 294.3 150.8 296.3 151.9zM300.7 151.9c2-1.1 4.5-.5 5.7 1.5 1.4 2.4 3.7 6.4 5.1 8.8 1.1 2 .4 4.5-1.6 5.6-2 1.1-4.5.5-5.7-1.5-1.4-2.4-3.8-6.6-5.1-8.8C297.9 155.4 298.7 153.1 300.7 151.9zM295.5 74.6c.7 1.3.2 3-1 3.7-1.3.8-3 .3-3.8-1l-2.5-4.4 4.8-2.8C293.6 71.4 294.8 73.4 295.5 74.6M305.2 59.8c0 1.5-1.2 2.8-2.8 2.8h-5.1V57c1.4 0 3.7 0 5.1 0C304 57 305.2 58.3 305.2 59.8zM288.1 59.8c0-2.3 1.9-4.1 4.1-4.1 2.8 0 7.4 0 10.2 0 2.2 0 4 1.9 4 4.1 0 2.3-1.9 4.1-4.1 4.1-2.8 0-7.6 0-10.1 0C289.8 63.9 288.1 62.1 288.1 59.8zM294.4 41.2c1.3.8 1.8 2.5 1 3.8l-2.5 4.4-4.8-2.8c.7-1.2 1.9-3.2 2.6-4.5C291.5 40.9 293.1 40.5 294.4 41.2zM285.9 55.9c-2-1.1-2.7-3.7-1.5-5.7 1.4-2.4 3.7-6.4 5.1-8.8 1.2-1.9 3.7-2.6 5.6-1.4 2 1.1 2.7 3.7 1.5 5.7-1.4 2.4-3.8 6.6-5.1 8.8C290.3 56.6 287.9 57.1 285.9 55.9zM273 41.2c1.3-.8 3-.3 3.8 1l2.5 4.4-4.8 2.8c-.7-1.2-1.9-3.2-2.6-4.5C271.2 43.6 271.7 42 273 41.2zM281.5 55.9c-2 1.1-4.5.5-5.7-1.5-1.4-2.4-3.7-6.4-5.1-8.8-1.1-2-.4-4.4 1.6-5.6 2-1.1 4.5-.5 5.7 1.5 1.4 2.4 3.8 6.6 5.1 8.8C284.3 52.5 283.5 54.8 281.5 55.9zM262.3 59.8c0-1.5 1.2-2.8 2.8-2.8h5.1v5.5c-1.4 0-3.7 0-5.1 0C263.5 62.5 262.3 61.3 262.3 59.8zM279.3 59.8c0 2.3-1.9 4.1-4.1 4.1-2.8 0-7.4 0-10.2 0-2.2 0-4-1.9-4-4.1 0-2.3 1.9-4.1 4.1-4.1 2.8 0 7.6 0 10.1 0C277.7 55.6 279.3 57.5 279.3 59.8zM273 78.3c-1.3-.8-1.8-2.5-1-3.8l2.5-4.4 4.8 2.8c-.7 1.2-1.9 3.2-2.6 4.5C276 78.7 274.3 79.1 273 78.3zM281.5 63.6c2 1.1 2.7 3.7 1.5 5.7-1.4 2.4-3.7 6.4-5.1 8.8-1.2 1.9-3.7 2.6-5.6 1.4-2-1.1-2.7-3.7-1.5-5.7 1.4-2.4 3.8-6.6 5.1-8.8C277.1 62.9 279.5 62.5 281.5 63.6zM285.9 63.6c2-1.1 4.5-.5 5.7 1.5 1.4 2.4 3.7 6.4 5.1 8.8 1.1 2 .4 4.4-1.6 5.6-2 1.1-4.5.5-5.7-1.5-1.4-2.4-3.8-6.6-5.1-8.8C283.2 67.1 284 64.7 285.9 63.6zM246 179.4c.7 1.3.2 3-1 3.7-1.3.8-3 .3-3.8-1l-2.5-4.4 4.8-2.8C244.2 176.1 245.3 178.1 246 179.4M255.7 164.5c0 1.5-1.2 2.8-2.8 2.8h-5.1v-5.5c1.4 0 3.7 0 5.1 0C254.5 161.8 255.7 163 255.7 164.5zM238.7 164.5c0-2.3 1.9-4.1 4.1-4.1 2.8 0 7.4 0 10.2 0 2.2 0 4 1.9 4 4.1 0 2.3-1.9 4.1-4.1 4.1-2.8 0-7.6 0-10.1 0C240.3 168.6 238.7 166.8 238.7 164.5zM245 145.9c1.3.8 1.8 2.4 1 3.8l-2.5 4.4-4.8-2.8c.7-1.2 1.9-3.2 2.6-4.5C242 145.6 243.7 145.2 245 145.9zM236.4 160.7c-2-1.1-2.7-3.7-1.5-5.7 1.4-2.4 3.7-6.4 5.1-8.8 1.2-1.9 3.7-2.6 5.6-1.4 2 1.1 2.7 3.7 1.5 5.7-1.4 2.4-3.8 6.6-5.1 8.8C240.8 161.3 238.4 161.8 236.4 160.7zM223.5 145.9c1.3-.8 3-.3 3.8 1l2.5 4.4-4.8 2.8c-.7-1.2-1.9-3.2-2.6-4.5C221.8 148.3 222.2 146.7 223.5 145.9zM232 160.7c-2 1.1-4.5.5-5.7-1.5-1.4-2.4-3.7-6.4-5.1-8.8-1.1-2-.4-4.4 1.6-5.6 2-1.1 4.5-.5 5.7 1.5 1.4 2.4 3.8 6.6 5.1 8.8C234.8 157.2 234 159.5 232 160.7zM212.8 164.5c0-1.5 1.2-2.8 2.8-2.8h5.1v5.5c-1.4 0-3.7 0-5.1 0C214 167.2 212.8 166 212.8 164.5zM229.8 164.5c0 2.3-1.9 4.1-4.1 4.1-2.8 0-7.4 0-10.2 0-2.2 0-4-1.9-4-4.1 0-2.3 1.9-4.1 4.1-4.1 2.8 0 7.6 0 10.1 0C228.2 160.4 229.8 162.2 229.8 164.5zM223.5 183.1c-1.3-.8-1.8-2.5-1-3.8l2.5-4.4 4.8 2.8c-.7 1.2-1.9 3.2-2.6 4.5C226.5 183.4 224.8 183.8 223.5 183.1zM232 168.4c2 1.1 2.7 3.7 1.5 5.7-1.4 2.4-3.7 6.4-5.1 8.8-.3.6-.8 1-1.3 1.4h-4.4c-1.9-1.2-2.5-3.6-1.4-5.6 1.4-2.4 3.8-6.6 5.1-8.8C227.6 167.7 230.1 167.2 232 168.4zM236.5 168.3c2-1.1 4.5-.5 5.7 1.5 1.4 2.4 3.7 6.4 5.1 8.8 1.1 1.9.4 4.3-1.4 5.5h-4.4c-.6-.3-1-.8-1.4-1.4-1.4-2.4-3.8-6.6-5.1-8.8C233.7 171.8 234.5 169.5 236.5 168.3z"/><path class="st0" d="M93.1 51.1c.7 1.3.2 3-1 3.7-1.3.8-3 .3-3.8-1l-2.5-4.4 4.8-2.8C91.3 47.9 92.4 49.9 93.1 51.1M102.8 36.3c0 1.5-1.2 2.8-2.8 2.8H95v-5.5c1.4 0 3.7 0 5.1 0C101.6 33.5 102.8 34.8 102.8 36.3zM85.8 36.3c0-2.3 1.9-4.1 4.1-4.1 2.8 0 7.4 0 10.2 0 2.2 0 4 1.9 4 4.1 0 2.3-1.9 4.1-4.1 4.1-2.8 0-7.6 0-10.1 0C87.4 40.4 85.8 38.5 85.8 36.3zM92.1 17.7c1.3.8 1.8 2.4 1 3.8l-2.5 4.4-4.8-2.8c.7-1.2 1.9-3.2 2.6-4.5C89.1 17.4 90.8 16.9 92.1 17.7zM83.5 32.4c-2-1.1-2.7-3.7-1.5-5.7 1.4-2.4 3.7-6.4 5.1-8.8 1.2-1.9 3.7-2.6 5.6-1.4 2 1.1 2.7 3.7 1.5 5.7-1.4 2.4-3.8 6.6-5.1 8.8C87.9 33.1 85.5 33.6 83.5 32.4zM70.6 17.7c1.3-.8 3-.3 3.8 1l2.5 4.4-4.8 2.8c-.7-1.2-1.9-3.2-2.6-4.5C68.9 20.1 69.3 18.5 70.6 17.7zM79.1 32.4c-2 1.1-4.5.5-5.7-1.5-1.4-2.4-3.7-6.4-5.1-8.8-1.1-2-.4-4.4 1.6-5.6 2-1.1 4.5-.5 5.7 1.5 1.4 2.4 3.8 6.6 5.1 8.8C81.9 29 81.1 31.3 79.1 32.4zM59.9 36.3c0-1.5 1.2-2.8 2.8-2.8h5.1V39c-1.4 0-3.7 0-5.1 0C61.1 39 59.9 37.8 59.9 36.3zM76.9 36.3c0 2.3-1.9 4.1-4.1 4.1-2.8 0-7.4 0-10.2 0-2.2 0-4-1.9-4-4.1 0-2.3 1.9-4.1 4.1-4.1 2.8 0 7.6 0 10.1 0C75.3 32.1 76.9 34 76.9 36.3zM70.6 54.8c-1.3-.8-1.8-2.5-1-3.8l2.5-4.4 4.8 2.8c-.7 1.2-1.9 3.2-2.6 4.5C73.6 55.2 71.9 55.6 70.6 54.8zM79.1 40.1c2 1.1 2.7 3.7 1.5 5.7-1.4 2.4-3.7 6.4-5.1 8.8-1.2 1.9-3.7 2.6-5.6 1.4-2-1.1-2.7-3.7-1.5-5.7 1.4-2.4 3.8-6.6 5.1-8.8C74.7 39.4 77.2 39 79.1 40.1zM83.6 40.1c2-1.1 4.5-.5 5.7 1.5 1.4 2.4 3.7 6.4 5.1 8.8 1.1 2 .4 4.4-1.6 5.6-2 1.1-4.5.5-5.7-1.5-1.4-2.4-3.8-6.6-5.1-8.8C80.8 43.6 81.6 41.2 83.6 40.1zM186.4 35.8c.7 1.3.2 3-1 3.7-1.3.8-3 .3-3.8-1l-2.5-4.4 4.8-2.8C184.6 32.6 185.7 34.6 186.4 35.8M196.1 21c0 1.5-1.2 2.8-2.8 2.8h-5.1v-5.5c1.4 0 3.7 0 5.1 0C194.9 18.2 196.1 19.5 196.1 21zM179.1 21c0-2.3 1.9-4.1 4.1-4.1 2.8 0 7.4 0 10.2 0 2.2 0 4 1.9 4 4.1 0 2.3-1.9 4.1-4.1 4.1-2.8 0-7.6 0-10.1 0C180.7 25.1 179.1 23.2 179.1 21zM185.4 2.4c1.3.8 1.8 2.4 1 3.8l-2.5 4.4L179 7.8c.7-1.2 1.9-3.2 2.6-4.5C182.4 2.1 184.1 1.6 185.4 2.4zM176.8 17.1c-2-1.1-2.7-3.7-1.5-5.7 1.4-2.4 3.7-6.4 5.1-8.8 1.2-1.9 3.7-2.6 5.6-1.4 2 1.1 2.7 3.7 1.5 5.7-1.4 2.4-3.8 6.6-5.1 8.8C181.2 17.8 178.8 18.3 176.8 17.1zM163.9 2.4c1.3-.8 3-.3 3.8 1l2.5 4.4-4.8 2.8c-.7-1.2-1.9-3.2-2.6-4.5C162.1 4.8 162.6 3.1 163.9 2.4zM172.4 17.1c-2 1.1-4.5.5-5.7-1.5-1.4-2.4-3.7-6.4-5.1-8.8-1.1-2-.4-4.4 1.6-5.6 2-1.1 4.5-.5 5.7 1.5 1.4 2.4 3.8 6.6 5.1 8.8C175.2 13.7 174.4 16 172.4 17.1zM153.2 21c0-1.5 1.2-2.8 2.8-2.8h5.1v5.5c-1.4 0-3.7 0-5.1 0C154.4 23.7 153.2 22.5 153.2 21zM170.2 21c0 2.3-1.9 4.1-4.1 4.1-2.8 0-7.4 0-10.2 0-2.2 0-4-1.9-4-4.1 0-2.3 1.9-4.1 4.1-4.1 2.8 0 7.6 0 10.1 0C168.6 16.8 170.2 18.7 170.2 21zM163.9 39.5c-1.3-.8-1.8-2.5-1-3.8l2.5-4.4 4.8 2.8c-.7 1.2-1.9 3.2-2.6 4.5C166.9 39.9 165.2 40.3 163.9 39.5zM172.4 24.8c2 1.1 2.7 3.7 1.5 5.7-1.4 2.4-3.7 6.4-5.1 8.8-1.2 1.9-3.7 2.6-5.6 1.4-2-1.1-2.7-3.7-1.5-5.7 1.4-2.4 3.8-6.6 5.1-8.8C168 24.1 170.5 23.7 172.4 24.8zM176.9 24.8c2-1.1 4.5-.5 5.7 1.5 1.4 2.4 3.7 6.4 5.1 8.8 1.1 2 .4 4.5-1.6 5.6-2 1.1-4.5.5-5.7-1.5-1.4-2.4-3.8-6.6-5.1-8.8C174.1 28.3 174.9 25.9 176.9 24.8z"/></svg>