<svg xmlns="http://www.w3.org/2000/svg" width="32.031" height="26.031" viewBox="0 0 32.031 26.031"><defs><style>.cls-1{fill:#f60;fill-rule:evenodd}</style></defs><path id="Shape_724_copy" data-name="Shape 724 copy" class="cls-1" d="M447.046,339.581a20.573,20.573,0,0,1-8.038,1.545,22.977,22.977,0,0,1-4-.361,18.226,18.226,0,0,1-8.277,3.252h-0.068a0.714,0.714,0,0,1-.466-0.18,0.745,0.745,0,0,1-.261-0.475,0.434,0.434,0,0,1-.023-0.146,0.956,0.956,0,0,1,.011-0.147,0.51,0.51,0,0,1,.045-0.135l0.057-.113,0.08-.124a0.234,0.234,0,0,1,.091-0.112,0.282,0.282,0,0,0,.1-0.114,0.2,0.2,0,0,1,.091-0.1c0.076-.09.251-0.279,0.523-0.565a8.842,8.842,0,0,0,.592-0.666c0.121-.157.292-0.376,0.511-0.654a5.712,5.712,0,0,0,.569-0.869q0.238-.453.466-0.994a13.257,13.257,0,0,1-4.434-4A8.835,8.835,0,0,1,423,329.566a9.083,9.083,0,0,1,2.138-5.8,14.424,14.424,0,0,1,5.832-4.211,21.656,21.656,0,0,1,16.076,0,14.438,14.438,0,0,1,5.832,4.211,8.947,8.947,0,0,1,0,11.607A14.434,14.434,0,0,1,447.046,339.581Z" transform="translate(-423 -318)"/></svg>