<svg xmlns="http://www.w3.org/2000/svg" width="25" height="23" viewBox="0 0 25 23"><defs><style>.cls-1{fill:#f60;fill-rule:evenodd}</style></defs><path id="Forma_1" data-name="Forma 1" class="cls-1" d="M807.485,430.212L798.8,414.93a3.778,3.778,0,0,0-6.59,0,0.571,0.571,0,0,0,.2.772,0.552,0.552,0,0,0,.76-0.207,2.672,2.672,0,0,1,4.662,0l8.69,15.281a2.736,2.736,0,0,1,0,2.73,2.656,2.656,0,0,1-2.33,1.364H786.81a2.656,2.656,0,0,1-2.33-1.364,2.736,2.736,0,0,1,0-2.73l6.941-12.2a0.57,0.57,0,0,0-.2-0.771,0.553,0.553,0,0,0-.761.207l-6.94,12.2a3.868,3.868,0,0,0,0,3.859A3.756,3.756,0,0,0,786.81,436h17.38a3.756,3.756,0,0,0,3.294-1.929A3.868,3.868,0,0,0,807.485,430.212Zm-10-10.693a2.578,2.578,0,0,0-1.956-.9h-0.048a2.577,2.577,0,0,0-1.956.9,2.658,2.658,0,0,0-.614,2.091l0.484,3.546a0.557,0.557,0,1,0,1.1-.155l-0.485-3.546a1.52,1.52,0,0,1,.351-1.194,1.471,1.471,0,0,1,1.117-.516h0.048a1.471,1.471,0,0,1,1.117.516,1.516,1.516,0,0,1,.35,1.194l-0.814,5.963a0.678,0.678,0,0,1-.666.588h-0.022a0.678,0.678,0,0,1-.666-0.588,0.556,0.556,0,1,0-1.1.155,1.8,1.8,0,0,0,1.768,1.563h0.022a1.8,1.8,0,0,0,1.768-1.563l0.815-5.963A2.658,2.658,0,0,0,797.48,419.519ZM795.5,429.6a1.866,1.866,0,1,0,1.839,1.866A1.855,1.855,0,0,0,795.5,429.6Zm0,2.6a0.736,0.736,0,1,1,.726-0.736A0.732,0.732,0,0,1,795.5,432.2Z" transform="translate(-783 -413)"/></svg>