<svg xmlns="http://www.w3.org/2000/svg" width="39.469" height="39.344" viewBox="0 0 39.469 39.344"><defs><style>.cls-1{fill:#fff;fill-rule:evenodd}</style></defs><path class="cls-1" d="M454.046,871.008l-9.473,2.18,10.392-10.361a0.985,0.985,0,1,0-1.395-1.391L443.178,871.8l2.186-9.445a0.987,0.987,0,0,0-1.923-.442l-2.3,9.926-4.224-4.211a1.98,1.98,0,0,0-1.4-.576,1.964,1.964,0,0,0-1.692.955l-17.757,29.507a1.97,1.97,0,0,0,2.706,2.7l29.595-17.7a1.965,1.965,0,0,0,.381-3.078l-4.225-4.212,9.956-2.29A0.984,0.984,0,1,0,454.046,871.008Zm-6.684,9.811-12.692,7.594-2.394-2.387a0.985,0.985,0,1,0-1.4,1.39l2.046,2.04-15.16,9.068L431.3,876.033l3.525,3.515a0.985,0.985,0,0,0,1.4-1.391l-3.874-3.862,3.175-5.279Z" transform="translate(-415.781 -861.156)"/></svg>