<svg xmlns="http://www.w3.org/2000/svg" width="11" height="11" viewBox="0 0 11 11"><defs><style>.cls-1{fill:#f60;fill-rule:evenodd}</style></defs><path id="Shape_3_copy_2" data-name="Shape 3 copy 2" class="cls-1" d="M1325,1340.26a0.348,0.348,0,0,0-.37-0.32l-3.32-.5-1.49-3.16a0.323,0.323,0,0,0-.64,0l-1.49,3.16-3.32.5a0.348,0.348,0,0,0-.37.32,0.505,0.505,0,0,0,.16.33l2.41,2.46-0.57,3.46a0.88,0.88,0,0,0-.01.14,0.409,0.409,0,0,0,.07.25,0.239,0.239,0,0,0,.21.1,0.507,0.507,0,0,0,.26-0.09l2.97-1.63,2.97,1.63a0.479,0.479,0,0,0,.26.09,0.281,0.281,0,0,0,.27-0.35v-0.14l-0.57-3.46,2.4-2.46A0.526,0.526,0,0,0,1325,1340.26Zm-3.48,2.48,0.47,2.91-2.49-1.38-2.5,1.38,0.48-2.91-2.02-2.06,2.79-.43,1.25-2.65,1.25,2.65,2.79,0.43Z" transform="translate(-1314 -1336)"/></svg>