<svg xmlns="http://www.w3.org/2000/svg" width="11" height="11" viewBox="0 0 11 11"><defs><style>.cls-1{fill:#f60;fill-rule:evenodd;opacity:.8}</style></defs><path id="Shape_2_copy_3" data-name="Shape 2 copy 3" class="cls-1" d="M1279.82,1340.79l-2.23,2.27,0.53,3.22a0.63,0.63,0,0,1-.24.6,0.543,0.543,0,0,1-.34.12,0.681,0.681,0,0,1-.28-0.07l-2.76-1.52-2.76,1.52a0.561,0.561,0,0,1-.62-0.05,0.63,0.63,0,0,1-.24-0.6l0.53-3.22-2.23-2.27a0.638,0.638,0,0,1-.15-0.63,0.578,0.578,0,0,1,.47-0.42l3.09-.47,1.38-2.92a0.585,0.585,0,0,1,.53-0.35,0.592,0.592,0,0,1,.53.34l1.38,2.93,3.09,0.47a0.578,0.578,0,0,1,.47.42A0.638,0.638,0,0,1,1279.82,1340.79Z" transform="translate(-1269 -1336)"/></svg>