<svg xmlns="http://www.w3.org/2000/svg" width="45.219" height="43.375" viewBox="0 0 45.219 43.375">
  <defs>
    <style>
      .cls-1 {
        fill: #fff;
        fill-rule: evenodd;
      }
    </style>
  </defs>
  <path id="Forma_1" data-name="Forma 1" class="cls-1" d="M735.137,706.424a0.748,0.748,0,1,1-.754.748A0.751,0.751,0,0,1,735.137,706.424Zm1.508,12.716a0.748,0.748,0,1,1-.754.748A0.752,0.752,0,0,1,736.645,719.14Zm-18.853-5.984a0.748,0.748,0,1,1-.754.748A0.751,0.751,0,0,1,717.792,713.156Zm12.066-4.488a0.748,0.748,0,1,1-.754.748A0.751,0.751,0,0,1,729.858,708.668Zm11.312,3.74a0.748,0.748,0,1,1-.754.748A0.751,0.751,0,0,1,741.17,712.408Zm-27.9,6.732a0.748,0.748,0,1,1-.754.748A0.752,0.752,0,0,1,713.267,719.14Zm1.562-32.24a7.594,7.594,0,0,0-10.665,0,7.436,7.436,0,0,0,0,10.578L715.9,709.115l10.664-10.579Zm-9.6,9.52a5.95,5.95,0,0,1,0-8.463,6.077,6.077,0,0,1,8.532,0l10.665,10.58L715.9,707Zm39.763-16.23a7.585,7.585,0,0,0-10.665,0L722.6,691.826l10.665,10.579,11.731-11.637A7.436,7.436,0,0,0,744.994,680.19Zm-1.066,9.521-10.665,10.578-8.532-8.463L735.4,681.248a6.067,6.067,0,0,1,8.532,0A5.95,5.95,0,0,1,743.928,689.711ZM732.121,704.18a3.017,3.017,0,1,0-3.017,2.992A3.008,3.008,0,0,0,732.121,704.18Zm-4.525,0a1.508,1.508,0,1,1,1.508,1.5A1.5,1.5,0,0,1,727.6,704.18Zm-3.771,2.992a2.992,2.992,0,1,0,3.017,2.992A3.007,3.007,0,0,0,723.825,707.172Zm0,4.488a1.5,1.5,0,1,1,1.508-1.5A1.5,1.5,0,0,1,723.825,711.66Zm7.542,0a2.992,2.992,0,1,0,3.016,2.992A3.008,3.008,0,0,0,731.367,711.66Zm0,4.488a1.5,1.5,0,1,1,1.508-1.5A1.5,1.5,0,0,1,731.367,716.148Zm-7.542-.748a2.992,2.992,0,1,0,3.017,2.992A3.007,3.007,0,0,0,723.825,715.4Zm0,4.488a1.5,1.5,0,1,1,1.508-1.5A1.5,1.5,0,0,1,723.825,719.888Z" transform="translate(-701.969 -678)"/>
</svg>
