<svg xmlns="http://www.w3.org/2000/svg" width="28.75" height="44.344" viewBox="0 0 28.75 44.344">
  <defs>
    <style>
      .cls-1 {
        fill: #fff;
        fill-rule: evenodd;
      }
    </style>
  </defs>
  <path class="cls-1" d="M1291.93,702.319v-0.036c0-.1-0.01-0.2-0.02-0.3l-0.01-.08a14.738,14.738,0,0,0-1.23-4.054,15.771,15.771,0,0,1-1.55-6.5,5.648,5.648,0,0,0-11.29,0,15.771,15.771,0,0,1-1.55,6.5,14.746,14.746,0,0,0-1.23,4.052v0.022a0.139,0.139,0,0,1-.01.063c-0.01.1-.01,0.2-0.02,0.3v0.033c0,0.025-.01.05-0.01,0.076,0,0.141-.01.273-0.01,0.4a8.48,8.48,0,0,0,16.95,0c0-.13,0-0.262-0.01-0.4A0.187,0.187,0,0,0,1291.93,702.319Zm-8.45,7.264a7.02,7.02,0,0,1-6.5-4.24h13A7.04,7.04,0,0,1,1283.48,709.583Zm6.91-5.654h-13.83a7.063,7.063,0,0,1-.1-1.134c0-.107,0-0.216.01-0.335v-0.041l0.01-.049a2.072,2.072,0,0,1,.02-0.249v-0.07a13.835,13.835,0,0,1,1.14-3.679,17.2,17.2,0,0,0,1.65-7.028,4.187,4.187,0,0,1,8.37,0,17.2,17.2,0,0,0,1.65,7.028,13.821,13.821,0,0,1,1.14,3.682l0.01,0.066c0,0.083.01,0.167,0.01,0.248l0.01,0.092c0.01,0.119.01,0.228,0.01,0.335A7.063,7.063,0,0,1,1290.39,703.929Zm8.48-8.437a3.961,3.961,0,0,0-4.02-3.894,4.077,4.077,0,0,0-.59.042c-0.12-1.454-.18-3.094-0.18-4.984a7.182,7.182,0,0,0-3.21-6.27,7.962,7.962,0,0,0-.88-0.513,3.558,3.558,0,0,0-.37-7.105,3.78,3.78,0,0,0-1.12.168,2.2,2.2,0,0,0-2.13-1.581h-5.79a2.174,2.174,0,0,0-2.21,2.133V679a3.717,3.717,0,0,0-2.64-1.086,3.626,3.626,0,0,0-3.68,3.562,3.487,3.487,0,0,0,1.2,2.624,8.388,8.388,0,0,0-.38,2.555,46.706,46.706,0,0,1-.52,7.841,0.691,0.691,0,0,0-.03.145,22.57,22.57,0,0,1-.79,3.15h0c-0.08.248-.16,0.488-0.24,0.723a19.59,19.59,0,0,0-1.17,7.261,12.612,12.612,0,0,0,3.78,9.01,3.428,3.428,0,0,0,2.7.916h13.75a3.428,3.428,0,0,0,2.7-.916,12.612,12.612,0,0,0,3.78-9.01,19.418,19.418,0,0,0-.93-6.526A3.924,3.924,0,0,0,1298.87,695.492Zm-9.25-21.311a2.15,2.15,0,1,1-2.22,2.148A2.19,2.19,0,0,1,1289.62,674.181Zm-9.79-.693a0.739,0.739,0,0,1,.75-0.72h5.79a0.739,0.739,0,0,1,.75.72v0.231a3.3,3.3,0,0,0-.47.513h-6.82v-0.744h0Zm0,2.157h1.61a2.191,2.191,0,0,0,4.08,0h0.49a3.1,3.1,0,0,0-.07.685,3.471,3.471,0,0,0,1.11,2.544,18.98,18.98,0,0,0-7.22.011v-3.24h0Zm-4.1,3.682a2.15,2.15,0,1,1-2.22,2.149A2.185,2.185,0,0,1,1275.73,679.327ZM1292,713.8a1.973,1.973,0,0,1-1.65.49H1276.6a1.973,1.973,0,0,1-1.65-.49,11.243,11.243,0,0,1-3.37-8.023,21.913,21.913,0,0,1,.27-3.752h1.61a0.707,0.707,0,1,0,0-1.413h-1.29c0.15-.576.33-1.107,0.51-1.662a2.194,2.194,0,0,0,.08-0.241h1.08a0.706,0.706,0,1,0,0-1.412h-0.63c0.16-.564.32-1.184,0.46-1.9h0.95a0.707,0.707,0,1,0,0-1.413h-0.71c0.08-.574.15-1.2,0.21-1.9h1.42a0.706,0.706,0,1,0,0-1.412h-1.31c0.06-1.16.1-2.482,0.1-4.01a6.966,6.966,0,0,1,.22-1.808,3.778,3.778,0,0,0,1.18.19,3.625,3.625,0,0,0,3.68-3.561,3.265,3.265,0,0,0-.15-0.992,15.134,15.134,0,0,1,4.22-.54,11.9,11.9,0,0,1,6.56,1.6,5.768,5.768,0,0,1,2.58,5.107c0,1.473.04,2.8,0.11,4.01h-1.32a0.706,0.706,0,1,0,0,1.412h1.42v0.046a3.874,3.874,0,0,0-2.01,3.368,3.949,3.949,0,0,0,3.58,3.871c0.14,0.41.27,0.817,0.39,1.249h-1.3a0.707,0.707,0,1,0,0,1.413h1.61a21.913,21.913,0,0,1,.27,3.752A11.2,11.2,0,0,1,1292,713.8Zm2.85-15.826a2.483,2.483,0,1,1,2.56-2.482A2.528,2.528,0,0,1,1294.85,697.974Z" transform="translate(-1270.13 -671.344)"/>
</svg>
