<svg xmlns="http://www.w3.org/2000/svg" width="25" height="29" viewBox="0 0 25 29">
  <defs>
    <style>
      .cls-1 {
        fill: #008c82;
        fill-rule: evenodd;
      }
    </style>
  </defs>
  <path class="cls-1" d="M1221.71,55.75a0.868,0.868,0,0,1-.32.378c-0.18.114-4.56,2.871-11.88,2.871s-11.7-2.751-11.88-2.871a0.755,0.755,0,0,1-.32-0.378,9.387,9.387,0,0,1-.31-2.72V53.012a0.731,0.731,0,0,0,.01-0.15c0.03-1.183.11-3.964,2.75-4.859,0.02-.006.04-0.012,0.07-0.018a17.633,17.633,0,0,0,5.05-2.27,0.823,0.823,0,0,1,1.14.2,0.805,0.805,0,0,1-.2,1.129,19.241,19.241,0,0,1-5.56,2.5c-1.41.5-1.57,1.994-1.62,3.363v0.15a10.136,10.136,0,0,0,.13,1.855,24.581,24.581,0,0,0,21.46.006,10.138,10.138,0,0,0,.13-1.855,0.727,0.727,0,0,1-.01-0.15c-0.04-1.369-.2-2.864-1.61-3.364a18.911,18.911,0,0,1-5.56-2.5,0.805,0.805,0,0,1-.2-1.129,0.823,0.823,0,0,1,1.14-.2,17.788,17.788,0,0,0,5.05,2.27,0.408,0.408,0,0,1,.06.018c2.65,0.889,2.73,3.669,2.76,4.858,0,0.054.01,0.1,0.01,0.15v0.018A9.922,9.922,0,0,1,1221.71,55.75Zm-12.12-10.125h-0.2a5.624,5.624,0,0,1-4.28-1.832c-2.35-2.606-1.96-7.074-1.91-7.5,0.15-3.225,1.71-4.756,2.99-5.471a6.818,6.818,0,0,1,3.27-.822h0.1a6.871,6.871,0,0,1,3.28.846c1.26,0.715,2.8,2.246,2.95,5.447,0.04,0.426.43,4.894-1.91,7.5A5.661,5.661,0,0,1,1209.59,45.625Zm4.57-9.182a0.074,0.074,0,0,1-.01-0.048c-0.19-4.072-2.98-4.732-4.62-4.768h-0.08c-1.32,0-4.42.462-4.62,4.768,0,0.012-.01.03-0.01,0.048,0,0.036-.42,4.138,1.51,6.276A4,4,0,0,0,1209.46,44h0.06a4.025,4.025,0,0,0,3.14-1.285C1214.59,40.569,1214.16,36.485,1214.16,36.443Z" transform="translate(-1197 -30)"/>
</svg>
