<svg xmlns="http://www.w3.org/2000/svg" width="41" height="50" viewBox="0 0 41 50">
  <defs>
    <style>
      .cls-1 {
        fill: #fff;
        fill-rule: evenodd;
      }
    </style>
  </defs>
  <path id="Forma_1" data-name="Forma 1" class="cls-1" d="M734.306,880.833a6.691,6.691,0,0,0-6.636,5.834h-9.262v-5.105a3.38,3.38,0,0,0,2.1-1.56l10.811-18.21a3.395,3.395,0,0,0-2.933-5.125h-1.9A2.925,2.925,0,0,0,723.847,855c-1.336,0-4.6,1.022-4.6,2.917s3.266,2.916,4.6,2.916a2.92,2.92,0,0,0,2.886-2.5h1.649a1.73,1.73,0,0,1,1.493,2.611l-10.811,18.209a1.74,1.74,0,0,1-2.991-.008l-11.113-18.2a1.7,1.7,0,0,1-.015-1.736,1.719,1.719,0,0,1,1.508-.874h1.956a2.922,2.922,0,0,0,2.887,2.5c1.335,0,4.6-1.022,4.6-2.916S712.631,855,711.3,855a2.925,2.925,0,0,0-2.635,1.667h-2.208a3.4,3.4,0,0,0-2.928,5.134L714.639,880a3.369,3.369,0,0,0,2.1,1.56v5.105H709.2a9.167,9.167,0,1,0,9.2,9.166v-7.5h9.262A6.69,6.69,0,1,0,734.306,880.833Zm-10.459-21.667c-1.033,0-2.81-.824-2.927-1.249,0.117-.426,1.894-1.25,2.927-1.25A1.25,1.25,0,1,1,723.847,859.166Zm-12.551-2.5c1.032,0,2.81.824,2.927,1.25-0.117.425-1.895,1.249-2.927,1.249A1.25,1.25,0,1,1,711.3,856.667Zm5.439,39.166a7.531,7.531,0,1,1-7.531-7.5h7.531v7.5Zm17.571-3.333a5,5,0,1,1,5.02-5A5.015,5.015,0,0,1,734.306,892.5Zm0-8.333a3.333,3.333,0,1,0,3.347,3.333A3.343,3.343,0,0,0,734.306,884.167Zm0,5a1.667,1.667,0,1,1,1.674-1.666A1.671,1.671,0,0,1,734.306,889.166Z" transform="translate(-700 -855)"/>
</svg>
