<svg xmlns="http://www.w3.org/2000/svg" width="76" height="22.344" viewBox="0 0 76 22.344">
  <defs>
    <style>
      .cls-1 {
        fill: #008c82;
        fill-rule: evenodd;
      }
    </style>
  </defs>
  <path id="Shape_722_copy_3" data-name="Shape 722 copy 3" class="cls-1" d="M452.493,463.674c3.791,0.01,10.075.011,13.867,0.009V448.716H452.7a7.481,7.481,0,0,0-.2,14.958M479.888,445H452.77a11.16,11.16,0,0,0-.251,22.316c7.491,0.02,19.879,0,27.369,0A11.135,11.135,0,0,0,491,456.156C491,449.992,486.66,445,479.888,445Zm-43.936,20.465a1.847,1.847,0,1,0,3.693,0h0V446.85h0a1.847,1.847,0,1,0-3.693,0h-0.006V454.3H418.7V446.85H418.7a1.847,1.847,0,1,0-3.693,0h0v18.611h0a1.847,1.847,0,1,0,3.693,0H418.7v-7.445h17.242v7.445h0.006Z" transform="translate(-415 -445)"/>
</svg>
