<svg xmlns="http://www.w3.org/2000/svg" width="25" height="25" viewBox="0 0 25 25">
  <defs>
    <style>
      .cls-1 {
        fill: #f2721c;
        fill-rule: evenodd;
      }
    </style>
  </defs>
  <path id="Rectangle_773_copy" data-name="Rectangle 773 copy" class="cls-1" d="M804.341,446.656a12.5,12.5,0,0,0-20.6,13.087,0.509,0.509,0,1,0,.958-0.345,11.484,11.484,0,1,1,19.127,4.01l-0.073.077c-0.043.046-.086,0.092-0.13,0.137a11.5,11.5,0,0,1-16.242,0l-0.071-.072c0-.047,0-0.094,0-0.139,0-.1,0-0.2.006-0.307,0-.034,0-0.067,0-0.1,0-.068.007-0.135,0.012-0.2,0-.04.007-0.079,0.011-0.119,0-.061.01-0.122,0.017-0.182,0-.043.01-0.085,0.016-0.127,0.007-.058.014-0.115,0.022-0.172l0.021-.13c0.01-.055.018-0.111,0.029-0.166s0.017-.087.026-0.13,0.022-.109.034-0.163,0.02-.087.031-0.13,0.025-.106.039-0.159,0.024-.087.036-0.13,0.028-.1.044-0.156,0.027-.086.041-0.129,0.032-.1.049-0.152,0.03-.085.046-0.128,0.036-.1.055-0.15,0.032-.084.049-0.126,0.04-.1.061-0.147,0.035-.083.054-0.124,0.043-.1.065-0.145,0.039-.081.059-0.122,0.046-.095.071-0.142,0.041-.08.062-0.119,0.05-.094.076-0.14l0.066-.116,0.081-.137c0.024-.039.047-0.077,0.071-0.114s0.057-.09.086-0.134,0.049-.075.074-0.112l0.091-.131,0.078-.108c0.032-.043.064-0.086,0.1-0.128s0.053-.07.081-0.105,0.067-.084.1-0.125l0.085-.1c0.035-.041.071-0.081,0.107-0.122l0.087-.1c0.037-.04.074-0.08,0.112-0.119l0.09-.094c0.039-.04.078-0.078,0.118-0.116s0.061-.061.093-0.091,0.082-.075.123-0.113l0.1-.086c0.042-.037.086-0.074,0.13-0.11l0.095-.081c0.045-.037.091-0.073,0.137-0.108l0.1-.076,0.148-.108c0.031-.022.061-0.045,0.093-0.067,0.054-.039.11-0.076,0.166-0.112l0.081-.056c0.073-.047.146-0.092,0.221-0.137l0.034-.022c0.086-.051.173-0.1,0.261-0.149l0.091-.049c0.059-.031.117-0.062,0.177-0.092l0.115-.056,0.146-.07a4.951,4.951,0,0,0,6.859,0A8.285,8.285,0,0,1,803,460.115a0.509,0.509,0,1,0,.932-0.41,9.178,9.178,0,0,0-4.327-4.538,4.966,4.966,0,0,0-4.108-7.762,0.509,0.509,0,0,0,0,1.018,3.949,3.949,0,0,1,2.933,6.6h0a3.937,3.937,0,0,1-5.865,0h0a3.946,3.946,0,0,1,.153-5.453,0.509,0.509,0,0,0-.715-0.724,4.963,4.963,0,0,0-.615,6.323l-0.014.007c-0.04.02-.079,0.041-0.118,0.062-0.06.031-.121,0.062-0.18,0.094l-0.125.071c-0.056.031-.111,0.063-0.166,0.1s-0.084.051-.127,0.077l-0.157.1-0.125.083-0.15.1-0.124.088c-0.048.035-.1,0.07-0.144,0.106l-0.122.093c-0.046.036-.092,0.072-0.138,0.11l-0.118.1c-0.046.037-.09,0.076-0.134,0.114s-0.077.067-.115,0.1-0.087.079-.129,0.119l-0.111.1-0.125.124-0.106.107-0.122.13c-0.033.036-.067,0.072-0.1,0.109s-0.08.091-.119,0.136-0.064.073-.095,0.11-0.078.1-.117,0.145-0.059.072-.087,0.109c-0.041.052-.081,0.106-0.12,0.159-0.025.034-.051,0.067-0.075,0.1-0.05.069-.1,0.14-0.147,0.211l-0.039.055c-0.06.09-.118,0.181-0.175,0.272l-0.057.1c-0.037.061-.074,0.122-0.109,0.184-0.022.038-.043,0.078-0.064,0.117-0.031.056-.062,0.111-0.092,0.168-0.022.042-.043,0.085-0.064,0.127s-0.056.109-.082,0.164-0.042.089-.062,0.133-0.05.109-.074,0.164-0.039.091-.058,0.137-0.046.11-.068,0.165l-0.054.14c-0.02.055-.041,0.111-0.061,0.167s-0.033.1-.049,0.143-0.037.112-.055,0.169l-0.045.144-0.049.172-0.039.146c-0.015.058-.029,0.117-0.043,0.175s-0.023.1-.034,0.147-0.025.119-.037,0.179-0.02.1-.029,0.146-0.021.122-.031,0.184-0.016.1-.023,0.145c-0.009.063-.017,0.127-0.025,0.191-0.006.047-.012,0.094-0.017,0.141-0.008.067-.013,0.134-0.019,0.2,0,0.045-.009.089-0.012,0.134,0,0.075-.009.15-0.012,0.226,0,0.037,0,.074-0.006.112,0,0.113-.007.226-0.007,0.34s0,0.239.009,0.367a0.608,0.608,0,0,0,.012.087,0.017,0.017,0,0,0,0,.007,0.467,0.467,0,0,0,.026.08l0,0.008a0.617,0.617,0,0,0,.038.072l0.006,0.009a0.523,0.523,0,0,0,.05.064,0.015,0.015,0,0,1,0,0l0.067,0.072c0.051,0.054.1,0.108,0.155,0.161a12.514,12.514,0,0,0,17.681,0c0.053-.053.1-0.107,0.154-0.161l0.067-.072A12.506,12.506,0,0,0,804.341,446.656ZM795,459h1v5h-1v-5Zm-2,2h5v1h-5v-1Z" transform="translate(-783 -443)"/>
</svg>
