<?xml version="1.0" encoding="utf-8"?>
<!-- Generator: Adobe Illustrator 20.1.0, SVG Export Plug-In . SVG Version: 6.00 Build 0)  -->
<svg version="1.1" id="Слой_1" xmlns="http://www.w3.org/2000/svg" xmlns:xlink="http://www.w3.org/1999/xlink" x="0px" y="0px"
	 viewBox="0 0 185.8 374.8" style="enable-background:new 0 0 185.8 374.8;" xml:space="preserve">
<style type="text/css">
	.st0{fill-rule:evenodd;clip-rule:evenodd;fill:#F26722;}
	.st1{fill-rule:evenodd;clip-rule:evenodd;fill:#00d2c7;}
</style>
<path class="st0" d="M140,339.5c1.3-0.7,3-0.2,3.7,1c0.8,1.3,0.3,3-1,3.8l-4.4,2.5l-2.8-4.8C136.8,341.4,138.8,340.2,140,339.5
	 M125.2,329.9c1.5,0,2.8,1.2,2.8,2.8v5.1h-5.5c0-1.4,0-3.7,0-5.1C122.4,331,123.7,329.9,125.2,329.9z M125.2,346.9
	c-2.3,0-4.1-1.9-4.1-4.1c0-2.8,0-7.4,0-10.2c0-2.2,1.9-4,4.1-4c2.3,0,4.1,1.9,4.1,4.1c0,2.8,0,7.6,0,10.1
	C129.3,345.3,127.5,346.9,125.2,346.9z M106.6,340.6c0.8-1.3,2.5-1.8,3.8-1l4.4,2.5l-2.8,4.8c-1.2-0.7-3.2-1.9-4.5-2.6
	C106.3,343.5,105.9,341.9,106.6,340.6z M121.3,349.1c-1.1,2-3.7,2.7-5.7,1.5c-2.4-1.4-6.4-3.7-8.8-5.1c-1.9-1.2-2.6-3.7-1.4-5.6
	c1.1-2,3.7-2.7,5.7-1.5c2.4,1.4,6.6,3.8,8.8,5.1C122,344.7,122.5,347.1,121.3,349.1z M106.6,362c-0.8-1.3-0.3-3,1-3.8l4.4-2.5
	l2.8,4.8c-1.2,0.7-3.2,1.9-4.5,2.6C109,363.8,107.4,363.3,106.6,362z M121.3,353.5c1.1,2,0.5,4.5-1.5,5.7c-2.4,1.4-6.4,3.7-8.8,5.1
	c-2,1.1-4.4,0.4-5.6-1.6c-1.1-2-0.5-4.5,1.5-5.7c2.4-1.4,6.6-3.8,8.8-5.1C117.9,350.7,120.2,351.5,121.3,353.5z M125.2,372.7
	c-1.5,0-2.8-1.2-2.8-2.8v-5.1h5.5c0,1.4,0,3.7,0,5.1C127.9,371.5,126.7,372.7,125.2,372.7z M125.2,355.7c2.3,0,4.1,1.9,4.1,4.1
	c0,2.8,0,7.4,0,10.2c0,2.2-1.9,4-4.1,4c-2.3,0-4.1-1.9-4.1-4.1c0-2.8,0-7.6,0-10.1C121,357.3,122.9,355.7,125.2,355.7z M143.7,362
	c-0.8,1.3-2.5,1.8-3.8,1l-4.4-2.5l2.8-4.8c1.2,0.7,3.2,1.9,4.5,2.6C144.1,359.1,144.5,360.7,143.7,362z M129,353.5
	c1.1-2,3.7-2.7,5.7-1.5c2.4,1.4,6.4,3.7,8.8,5.1c1.9,1.2,2.6,3.7,1.4,5.6c-1.1,2-3.7,2.7-5.7,1.5c-2.4-1.4-6.6-3.8-8.8-5.1
	C128.3,357.9,127.9,355.5,129,353.5z M129,349.1c-1.1-2-0.5-4.5,1.5-5.7c2.4-1.4,6.4-3.7,8.8-5.1c2-1.1,4.4-0.4,5.6,1.6
	c1.1,2,0.5,4.5-1.5,5.7c-2.4,1.4-6.6,3.8-8.8,5.1C132.5,351.9,130.1,351.1,129,349.1z"/>
<path class="st1" d="M185.5,294.7c-1.2,0.3-2.1,1.3-2.1,2.6c0,1.4,0,3.7,0,5.1h2.1v9.1c-2-0.3-3.5-2-3.5-4.1c0-2.8,0-7.4,0-10.2
	c0-2,1.6-3.7,3.5-4V294.7z M167.6,305.4c0.8-1.3,2.5-1.8,3.8-1l4.4,2.5l-2.8,4.8c-1.2-0.7-3.2-1.9-4.5-2.6
	C167.2,308.3,166.8,306.7,167.6,305.4z M182.3,313.9c-1.1,2-3.7,2.7-5.7,1.5c-2.4-1.4-6.4-3.7-8.8-5.1c-1.9-1.2-2.6-3.7-1.4-5.6
	c1.1-2,3.7-2.7,5.7-1.5c2.4,1.4,6.6,3.8,8.8,5.1C183,309.5,183.4,311.9,182.3,313.9z M167.6,326.8c-0.8-1.3-0.3-3,1-3.8l4.4-2.5
	l2.8,4.8c-1.2,0.7-3.2,1.9-4.5,2.6C170,328.6,168.3,328.1,167.6,326.8z M182.3,318.3c1.1,2,0.5,4.5-1.5,5.7
	c-2.4,1.4-6.4,3.7-8.8,5.1c-2,1.1-4.4,0.4-5.6-1.6c-1.1-2-0.5-4.5,1.5-5.7c2.4-1.4,6.6-3.8,8.8-5.1
	C178.8,315.5,181.2,316.3,182.3,318.3z M185.5,320.6v9.1h-2.1v5.1c0,1.3,0.9,2.4,2.1,2.7v1.4c-2-0.3-3.5-2-3.5-4.1
	c0-2.8,0-7.6,0-10.1C182,322.4,183.5,320.8,185.5,320.6z"/>
<path class="st0" d="M160.4,304.3c1.3-0.7,3-0.2,3.7,1c0.8,1.3,0.3,3-1,3.8l-4.4,2.5l-2.8-4.8C157.1,306.2,159.1,305,160.4,304.3
	 M145.5,294.7c1.5,0,2.8,1.2,2.8,2.8v5.1h-5.5c0-1.4,0-3.7,0-5.1C142.8,295.8,144,294.7,145.5,294.7z M145.5,311.7
	c-2.3,0-4.1-1.9-4.1-4.1c0-2.8,0-7.4,0-10.2c0-2.2,1.9-4,4.1-4c2.3,0,4.1,1.9,4.1,4.1c0,2.8,0,7.6,0,10.1
	C149.6,310,147.8,311.7,145.5,311.7z M126.9,305.4c0.8-1.3,2.5-1.8,3.8-1l4.4,2.5l-2.8,4.8c-1.2-0.7-3.2-1.9-4.5-2.6
	C126.6,308.3,126.2,306.7,126.9,305.4z M141.7,313.9c-1.1,2-3.7,2.7-5.7,1.5c-2.4-1.4-6.4-3.7-8.8-5.1c-1.9-1.2-2.6-3.7-1.4-5.6
	c1.1-2,3.7-2.7,5.7-1.5c2.4,1.4,6.6,3.8,8.8,5.1C142.3,309.5,142.8,311.9,141.7,313.9z M126.9,326.8c-0.8-1.3-0.3-3,1-3.8l4.4-2.5
	l2.8,4.8c-1.2,0.7-3.2,1.9-4.5,2.6C129.3,328.6,127.7,328.1,126.9,326.8z M141.7,318.3c1.1,2,0.5,4.5-1.5,5.7
	c-2.4,1.4-6.4,3.7-8.8,5.1c-2,1.1-4.4,0.4-5.6-1.6c-1.1-2-0.5-4.5,1.5-5.7c2.4-1.4,6.6-3.8,8.8-5.1
	C138.2,315.5,140.5,316.3,141.7,318.3z M145.5,337.5c-1.5,0-2.8-1.2-2.8-2.8v-5.1h5.5c0,1.4,0,3.7,0,5.1
	C148.2,336.3,147,337.5,145.5,337.5z M145.5,320.5c2.3,0,4.1,1.9,4.1,4.1c0,2.8,0,7.4,0,10.2c0,2.2-1.9,4-4.1,4
	c-2.3,0-4.1-1.9-4.1-4.1c0-2.8,0-7.6,0-10.1C141.4,322.1,143.2,320.5,145.5,320.5z M164.1,326.8c-0.8,1.3-2.5,1.8-3.8,1l-4.4-2.5
	l2.8-4.8c1.2,0.7,3.2,1.9,4.5,2.6C164.4,323.9,164.8,325.5,164.1,326.8z M149.3,318.3c1.1-2,3.7-2.7,5.7-1.5
	c2.4,1.4,6.4,3.7,8.8,5.1c1.9,1.2,2.6,3.7,1.4,5.6c-1.1,2-3.7,2.7-5.7,1.5c-2.4-1.4-6.6-3.8-8.8-5.1
	C148.7,322.7,148.2,320.3,149.3,318.3z M149.3,313.9c-1.1-2-0.5-4.5,1.5-5.7c2.4-1.4,6.4-3.7,8.8-5.1c2-1.1,4.4-0.4,5.6,1.6
	c1.1,2,0.5,4.5-1.5,5.7c-2.4,1.4-6.6,3.8-8.8,5.1C152.8,316.6,150.5,315.9,149.3,313.9z"/>
<path class="st0" d="M140,269.1c1.3-0.7,3-0.2,3.7,1c0.8,1.3,0.3,3-1,3.8l-4.4,2.5l-2.8-4.8C136.8,271,138.8,269.8,140,269.1
	 M125.2,259.5c1.5,0,2.8,1.2,2.8,2.8v5.1h-5.5c0-1.4,0-3.7,0-5.1C122.4,260.6,123.7,259.5,125.2,259.5z M125.2,276.5
	c-2.3,0-4.1-1.9-4.1-4.1c0-2.8,0-7.4,0-10.2c0-2.2,1.9-4,4.1-4c2.3,0,4.1,1.9,4.1,4.1c0,2.8,0,7.6,0,10.1
	C129.3,274.9,127.5,276.5,125.2,276.5z M106.6,270.2c0.8-1.3,2.5-1.8,3.8-1l4.4,2.5l-2.8,4.8c-1.2-0.7-3.2-1.9-4.5-2.6
	C106.3,273.1,105.9,271.5,106.6,270.2z M121.3,278.7c-1.1,2-3.7,2.7-5.7,1.5c-2.4-1.4-6.4-3.7-8.8-5.1c-1.9-1.2-2.6-3.7-1.4-5.6
	c1.1-2,3.7-2.7,5.7-1.5c2.4,1.4,6.6,3.8,8.8,5.1C122,274.3,122.5,276.7,121.3,278.7z M106.6,291.6c-0.8-1.3-0.3-3,1-3.8l4.4-2.5
	l2.8,4.8c-1.2,0.7-3.2,1.9-4.5,2.6C109,293.4,107.4,292.9,106.6,291.6z M121.3,283.1c1.1,2,0.5,4.5-1.5,5.7
	c-2.4,1.4-6.4,3.7-8.8,5.1c-2,1.1-4.4,0.4-5.6-1.6c-1.1-2-0.5-4.5,1.5-5.7c2.4-1.4,6.6-3.8,8.8-5.1
	C117.9,280.3,120.2,281.1,121.3,283.1z M125.2,302.3c-1.5,0-2.8-1.2-2.8-2.8v-5.1h5.5c0,1.4,0,3.7,0,5.1
	C127.9,301.1,126.7,302.3,125.2,302.3z M125.2,285.3c2.3,0,4.1,1.9,4.1,4.1c0,2.8,0,7.4,0,10.2c0,2.2-1.9,4-4.1,4
	c-2.3,0-4.1-1.9-4.1-4.1c0-2.8,0-7.6,0-10.1C121,286.9,122.9,285.3,125.2,285.3z M143.7,291.6c-0.8,1.3-2.5,1.8-3.8,1l-4.4-2.5
	l2.8-4.8c1.2,0.7,3.2,1.9,4.5,2.6C144.1,288.7,144.5,290.3,143.7,291.6z M129,283.1c1.1-2,3.7-2.7,5.7-1.5c2.4,1.4,6.4,3.7,8.8,5.1
	c1.9,1.2,2.6,3.7,1.4,5.6c-1.1,2-3.7,2.7-5.7,1.5c-2.4-1.4-6.6-3.8-8.8-5.1C128.3,287.5,127.9,285.1,129,283.1z M129,278.7
	c-1.1-2-0.5-4.5,1.5-5.7c2.4-1.4,6.4-3.7,8.8-5.1c2-1.1,4.4-0.4,5.6,1.6c1.1,2,0.5,4.5-1.5,5.7c-2.4,1.4-6.6,3.8-8.8,5.1
	C132.5,281.5,130.1,280.7,129,278.7z"/>
<path class="st1" d="M185.5,224.4c-1.2,0.3-2.1,1.3-2.1,2.6c0,1.4,0,3.7,0,5.1h2.1v9.1c-2-0.3-3.5-2-3.5-4.1c0-2.8,0-7.4,0-10.2
	c0-2,1.6-3.7,3.5-4V224.4z M167.6,235c0.8-1.3,2.5-1.8,3.8-1l4.4,2.5l-2.8,4.8c-1.2-0.7-3.2-1.9-4.5-2.6
	C167.2,238,166.8,236.3,167.6,235z M182.3,243.5c-1.1,2-3.7,2.7-5.7,1.5c-2.4-1.4-6.4-3.7-8.8-5.1c-1.9-1.2-2.6-3.7-1.4-5.6
	c1.1-2,3.7-2.7,5.7-1.5c2.4,1.4,6.6,3.8,8.8,5.1C183,239.2,183.4,241.6,182.3,243.5z M167.6,256.5c-0.8-1.3-0.3-3,1-3.8l4.4-2.5
	l2.8,4.8c-1.2,0.7-3.2,1.9-4.5,2.6C170,258.2,168.3,257.8,167.6,256.5z M182.3,248c1.1,2,0.5,4.5-1.5,5.7c-2.4,1.4-6.4,3.7-8.8,5.1
	c-2,1.1-4.4,0.4-5.6-1.6c-1.1-2-0.5-4.5,1.5-5.7c2.4-1.4,6.6-3.8,8.8-5.1C178.8,245.2,181.2,246,182.3,248z M185.5,250.2v9.1h-2.1
	v5.1c0,1.3,0.9,2.4,2.1,2.7v1.4c-2-0.3-3.5-2-3.5-4.1c0-2.8,0-7.6,0-10.1C182,252,183.5,250.5,185.5,250.2z"/>
<path class="st0" d="M160.4,234c1.3-0.7,3-0.2,3.7,1c0.8,1.3,0.3,3-1,3.8l-4.4,2.5l-2.8-4.8C157.1,235.8,159.1,234.7,160.4,234
	 M145.5,224.3c1.5,0,2.8,1.2,2.8,2.8v5.1h-5.5c0-1.4,0-3.7,0-5.1C142.8,225.5,144,224.3,145.5,224.3z M145.5,241.3
	c-2.3,0-4.1-1.9-4.1-4.1c0-2.8,0-7.4,0-10.2c0-2.2,1.9-4,4.1-4c2.3,0,4.1,1.9,4.1,4.1c0,2.8,0,7.6,0,10.1
	C149.6,239.7,147.8,241.3,145.5,241.3z M126.9,235c0.8-1.3,2.5-1.8,3.8-1l4.4,2.5l-2.8,4.8c-1.2-0.7-3.2-1.9-4.5-2.6
	C126.6,238,126.2,236.3,126.9,235z M141.7,243.5c-1.1,2-3.7,2.7-5.7,1.5c-2.4-1.4-6.4-3.7-8.8-5.1c-1.9-1.2-2.6-3.7-1.4-5.6
	c1.1-2,3.7-2.7,5.7-1.5c2.4,1.4,6.6,3.8,8.8,5.1C142.3,239.2,142.8,241.6,141.7,243.5z M126.9,256.5c-0.8-1.3-0.3-3,1-3.8l4.4-2.5
	l2.8,4.8c-1.2,0.7-3.2,1.9-4.5,2.6C129.3,258.2,127.7,257.8,126.9,256.5z M141.7,248c1.1,2,0.5,4.5-1.5,5.7
	c-2.4,1.4-6.4,3.7-8.8,5.1c-2,1.1-4.4,0.4-5.6-1.6c-1.1-2-0.5-4.5,1.5-5.7c2.4-1.4,6.6-3.8,8.8-5.1C138.2,245.2,140.5,246,141.7,248
	z M145.5,267.2c-1.5,0-2.8-1.2-2.8-2.8v-5.1h5.5c0,1.4,0,3.7,0,5.1C148.2,266,147,267.2,145.5,267.2z M145.5,250.2
	c2.3,0,4.1,1.9,4.1,4.1c0,2.8,0,7.4,0,10.2c0,2.2-1.9,4-4.1,4c-2.3,0-4.1-1.9-4.1-4.1c0-2.8,0-7.6,0-10.1
	C141.4,251.8,143.2,250.2,145.5,250.2z M164.1,256.5c-0.8,1.3-2.5,1.8-3.8,1l-4.4-2.5l2.8-4.8c1.2,0.7,3.2,1.9,4.5,2.6
	C164.4,253.5,164.8,255.2,164.1,256.5z M149.3,248c1.1-2,3.7-2.7,5.7-1.5c2.4,1.4,6.4,3.7,8.8,5.1c1.9,1.2,2.6,3.7,1.4,5.6
	c-1.1,2-3.7,2.7-5.7,1.5c-2.4-1.4-6.6-3.8-8.8-5.1C148.7,252.4,148.2,249.9,149.3,248z M149.3,243.5c-1.1-2-0.5-4.5,1.5-5.7
	c2.4-1.4,6.4-3.7,8.8-5.1c2-1.1,4.4-0.4,5.6,1.6c1.1,2,0.5,4.5-1.5,5.7c-2.4,1.4-6.6,3.8-8.8,5.1
	C152.8,246.3,150.5,245.5,149.3,243.5z"/>
<path class="st1" d="M99.4,339.5c1.3-0.7,3-0.2,3.7,1c0.8,1.3,0.3,3-1,3.8l-4.4,2.5l-2.8-4.8C96.2,341.4,98.2,340.2,99.4,339.5
	 M84.6,329.9c1.5,0,2.8,1.2,2.8,2.8v5.1h-5.5c0-1.4,0-3.7,0-5.1C81.8,331,83.1,329.9,84.6,329.9z M84.6,346.9
	c-2.3,0-4.1-1.9-4.1-4.1c0-2.8,0-7.4,0-10.2c0-2.2,1.9-4,4.1-4c2.3,0,4.1,1.9,4.1,4.1c0,2.8,0,7.6,0,10.1
	C88.7,345.3,86.8,346.9,84.6,346.9z M66,340.6c0.8-1.3,2.5-1.8,3.8-1l4.4,2.5l-2.8,4.8c-1.2-0.7-3.2-1.9-4.5-2.6
	C65.7,343.5,65.2,341.9,66,340.6z M80.7,349.1c-1.1,2-3.7,2.7-5.7,1.5c-2.4-1.4-6.4-3.7-8.8-5.1c-1.9-1.2-2.6-3.7-1.4-5.6
	c1.1-2,3.7-2.7,5.7-1.5c2.4,1.4,6.6,3.8,8.8,5.1C81.4,344.7,81.9,347.1,80.7,349.1z M66,362c-0.8-1.3-0.3-3,1-3.8l4.4-2.5l2.8,4.8
	c-1.2,0.7-3.2,1.9-4.5,2.6C68.4,363.8,66.8,363.3,66,362z M80.7,353.5c1.1,2,0.5,4.5-1.5,5.7c-2.4,1.4-6.4,3.7-8.8,5.1
	c-2,1.1-4.4,0.4-5.6-1.6c-1.1-2-0.5-4.5,1.5-5.7c2.4-1.4,6.6-3.8,8.8-5.1C77.3,350.7,79.6,351.5,80.7,353.5z M84.6,372.7
	c-1.5,0-2.8-1.2-2.8-2.8v-5.1h5.5c0,1.4,0,3.7,0,5.1C87.3,371.5,86.1,372.7,84.6,372.7z M84.6,355.7c2.3,0,4.1,1.9,4.1,4.1
	c0,2.8,0,7.4,0,10.2c0,2.2-1.9,4-4.1,4c-2.3,0-4.1-1.9-4.1-4.1c0-2.8,0-7.6,0-10.1C80.4,357.3,82.3,355.7,84.6,355.7z M103.1,362
	c-0.8,1.3-2.5,1.8-3.8,1l-4.4-2.5l2.8-4.8c1.2,0.7,3.2,1.9,4.5,2.6C103.5,359.1,103.9,360.7,103.1,362z M88.4,353.5
	c1.1-2,3.7-2.7,5.7-1.5c2.4,1.4,6.4,3.7,8.8,5.1c1.9,1.2,2.6,3.7,1.4,5.6c-1.1,2-3.7,2.7-5.7,1.5c-2.4-1.4-6.6-3.8-8.8-5.1
	C87.7,357.9,87.3,355.5,88.4,353.5z M88.4,349.1c-1.1-2-0.5-4.5,1.5-5.7c2.4-1.4,6.4-3.7,8.8-5.1c2-1.1,4.5-0.4,5.6,1.6
	c1.1,2,0.5,4.5-1.5,5.7c-2.4,1.4-6.6,3.8-8.8,5.1C91.9,351.9,89.5,351.1,88.4,349.1z"/>
<path class="st1" d="M119.7,304.3c1.3-0.7,3-0.2,3.7,1c0.8,1.3,0.3,3-1,3.8l-4.4,2.5l-2.8-4.8C116.5,306.2,118.5,305,119.7,304.3
	 M104.9,294.7c1.5,0,2.8,1.2,2.8,2.8v5.1h-5.5c0-1.4,0-3.7,0-5.1C102.2,295.8,103.4,294.7,104.9,294.7z M104.9,311.7
	c-2.3,0-4.1-1.9-4.1-4.1c0-2.8,0-7.4,0-10.2c0-2.2,1.9-4,4.1-4c2.3,0,4.1,1.9,4.1,4.1c0,2.8,0,7.6,0,10.1
	C109,310,107.2,311.7,104.9,311.7z M86.3,305.4c0.8-1.3,2.5-1.8,3.8-1l4.4,2.5l-2.8,4.8c-1.2-0.7-3.2-1.9-4.5-2.6
	C86,308.3,85.6,306.7,86.3,305.4z M101.1,313.9c-1.1,2-3.7,2.7-5.7,1.5c-2.4-1.4-6.4-3.7-8.8-5.1c-1.9-1.2-2.6-3.7-1.4-5.6
	c1.1-2,3.7-2.7,5.7-1.5c2.4,1.4,6.6,3.8,8.8,5.1C101.7,309.5,102.2,311.9,101.1,313.9z M86.3,326.8c-0.8-1.3-0.3-3,1-3.8l4.4-2.5
	l2.8,4.8c-1.2,0.7-3.2,1.9-4.5,2.6C88.7,328.6,87.1,328.1,86.3,326.8z M101.1,318.3c1.1,2,0.5,4.5-1.5,5.7c-2.4,1.4-6.4,3.7-8.8,5.1
	c-2,1.1-4.4,0.4-5.6-1.6c-1.1-2-0.5-4.5,1.5-5.7c2.4-1.4,6.6-3.8,8.8-5.1C97.6,315.5,99.9,316.3,101.1,318.3z M104.9,337.5
	c-1.5,0-2.8-1.2-2.8-2.8v-5.1h5.5c0,1.4,0,3.7,0,5.1C107.6,336.3,106.4,337.5,104.9,337.5z M104.9,320.5c2.3,0,4.1,1.9,4.1,4.1
	c0,2.8,0,7.4,0,10.2c0,2.2-1.9,4-4.1,4c-2.3,0-4.1-1.9-4.1-4.1c0-2.8,0-7.6,0-10.1C100.8,322.1,102.6,320.5,104.9,320.5z
	 M123.5,326.8c-0.8,1.3-2.5,1.8-3.8,1l-4.4-2.5l2.8-4.8c1.2,0.7,3.2,1.9,4.5,2.6C123.8,323.9,124.2,325.5,123.5,326.8z M108.7,318.3
	c1.1-2,3.7-2.7,5.7-1.5c2.4,1.4,6.4,3.7,8.8,5.1c1.9,1.2,2.6,3.7,1.4,5.6c-1.1,2-3.7,2.7-5.7,1.5c-2.4-1.4-6.6-3.8-8.8-5.1
	C108.1,322.7,107.6,320.3,108.7,318.3z M108.7,313.9c-1.1-2-0.5-4.5,1.5-5.7c2.4-1.4,6.4-3.7,8.8-5.1c2-1.1,4.5-0.4,5.6,1.6
	c1.1,2,0.5,4.5-1.5,5.7c-2.4,1.4-6.6,3.8-8.8,5.1C112.2,316.6,109.9,315.9,108.7,313.9z"/>
<path class="st0" d="M58.8,339.5c1.3-0.7,3-0.2,3.7,1c0.8,1.3,0.3,3-1,3.8l-4.4,2.5l-2.8-4.8C55.5,341.4,57.6,340.2,58.8,339.5
	 M43.9,329.9c1.5,0,2.8,1.2,2.8,2.8v5.1h-5.5c0-1.4,0-3.7,0-5.1C41.2,331,42.4,329.9,43.9,329.9z M43.9,346.9
	c-2.3,0-4.1-1.9-4.1-4.1c0-2.8,0-7.4,0-10.2c0-2.2,1.9-4,4.1-4c2.3,0,4.1,1.9,4.1,4.1c0,2.8,0,7.6,0,10.1
	C48.1,345.3,46.2,346.9,43.9,346.9z M25.4,340.6c0.8-1.3,2.5-1.8,3.8-1l4.4,2.5l-2.8,4.8c-1.2-0.7-3.2-1.9-4.5-2.6
	C25,343.5,24.6,341.9,25.4,340.6z M40.1,349.1c-1.1,2-3.7,2.7-5.7,1.5c-2.4-1.4-6.4-3.7-8.8-5.1c-1.9-1.2-2.6-3.7-1.4-5.6
	c1.1-2,3.7-2.7,5.7-1.5c2.4,1.4,6.6,3.8,8.8,5.1C40.8,344.7,41.2,347.1,40.1,349.1z M25.4,362c-0.8-1.3-0.3-3,1-3.8l4.4-2.5l2.8,4.8
	c-1.2,0.7-3.2,1.9-4.5,2.6C27.8,363.8,26.1,363.3,25.4,362z M40.1,353.5c1.1,2,0.5,4.5-1.5,5.7c-2.4,1.4-6.4,3.7-8.8,5.1
	c-2,1.1-4.4,0.4-5.6-1.6c-1.1-2-0.5-4.5,1.5-5.7c2.4-1.4,6.6-3.8,8.8-5.1C36.6,350.7,39,351.5,40.1,353.5z M43.9,372.7
	c-1.5,0-2.8-1.2-2.8-2.8v-5.1h5.5c0,1.4,0,3.7,0,5.1C46.7,371.5,45.4,372.7,43.9,372.7z M43.9,355.7c2.3,0,4.1,1.9,4.1,4.1
	c0,2.8,0,7.4,0,10.2c0,2.2-1.9,4-4.1,4c-2.3,0-4.1-1.9-4.1-4.1c0-2.8,0-7.6,0-10.1C39.8,357.3,41.7,355.7,43.9,355.7z M62.5,362
	c-0.8,1.3-2.5,1.8-3.8,1l-4.4-2.5l2.8-4.8c1.2,0.7,3.2,1.9,4.5,2.6C62.8,359.1,63.3,360.7,62.5,362z M47.8,353.5
	c1.1-2,3.7-2.7,5.7-1.5c2.4,1.4,6.4,3.7,8.8,5.1c1.9,1.2,2.6,3.7,1.4,5.6c-1.1,2-3.7,2.7-5.7,1.5c-2.4-1.4-6.6-3.8-8.8-5.1
	C47.1,357.9,46.6,355.5,47.8,353.5z M47.8,349.1c-1.1-2-0.5-4.5,1.5-5.7c2.4-1.4,6.4-3.7,8.8-5.1c2-1.1,4.5-0.4,5.6,1.6
	c1.1,2,0.5,4.5-1.5,5.7c-2.4,1.4-6.6,3.8-8.8,5.1C51.2,351.9,48.9,351.1,47.8,349.1z"/>
<path class="st1" d="M119.6,233.3c1.3-0.7,3-0.2,3.7,1c0.8,1.3,0.3,3-1,3.8l-4.4,2.5l-2.8-4.8C116.4,235.2,118.4,234,119.6,233.3
	 M104.7,223.7c1.5,0,2.8,1.2,2.8,2.8v5.1H102c0-1.4,0-3.7,0-5.1C102,224.9,103.2,223.7,104.7,223.7z M104.7,240.7
	c-2.3,0-4.1-1.9-4.1-4.1c0-2.8,0-7.4,0-10.2c0-2.2,1.9-4,4.1-4c2.3,0,4.1,1.9,4.1,4.1c0,2.8,0,7.6,0,10.1
	C108.9,239.1,107,240.7,104.7,240.7z M86.2,234.4c0.8-1.3,2.5-1.8,3.8-1l4.4,2.5l-2.8,4.8c-1.2-0.7-3.2-1.9-4.5-2.6
	C85.9,237.4,85.4,235.7,86.2,234.4z M100.9,242.9c-1.1,2-3.7,2.7-5.7,1.5c-2.4-1.4-6.4-3.7-8.8-5.1c-1.9-1.2-2.6-3.7-1.4-5.6
	c1.1-2,3.7-2.7,5.7-1.5c2.4,1.4,6.6,3.8,8.8,5.1C101.6,238.5,102.1,240.9,100.9,242.9z M86.2,255.8c-0.8-1.3-0.3-3,1-3.8l4.4-2.5
	l2.8,4.8c-1.2,0.7-3.2,1.9-4.5,2.6C88.6,257.6,86.9,257.1,86.2,255.8z M100.9,247.3c1.1,2,0.5,4.5-1.5,5.7c-2.4,1.4-6.4,3.7-8.8,5.1
	c-2,1.1-4.4,0.4-5.6-1.6c-1.1-2-0.5-4.5,1.5-5.7c2.4-1.4,6.6-3.8,8.8-5.1C97.5,244.6,99.8,245.4,100.9,247.3z M104.8,266.6
	c-1.5,0-2.8-1.2-2.8-2.8v-5.1h5.5c0,1.4,0,3.7,0,5.1C107.5,265.4,106.3,266.6,104.8,266.6z M104.8,249.5c2.3,0,4.1,1.9,4.1,4.1
	c0,2.8,0,7.4,0,10.2c0,2.2-1.9,4-4.1,4c-2.3,0-4.1-1.9-4.1-4.1c0-2.8,0-7.6,0-10.1C100.6,251.2,102.5,249.5,104.8,249.5z
	 M123.3,255.8c-0.8,1.3-2.5,1.8-3.8,1l-4.4-2.5l2.8-4.8c1.2,0.7,3.2,1.9,4.5,2.6C123.7,252.9,124.1,254.5,123.3,255.8z M108.6,247.3
	c1.1-2,3.7-2.7,5.7-1.5c2.4,1.4,6.4,3.7,8.8,5.1c1.9,1.2,2.6,3.7,1.4,5.6c-1.1,2-3.7,2.7-5.7,1.5c-2.4-1.4-6.6-3.8-8.8-5.1
	C107.9,251.7,107.5,249.3,108.6,247.3z M108.6,242.9c-1.1-2-0.5-4.5,1.5-5.7c2.4-1.4,6.4-3.7,8.8-5.1c2-1.1,4.4-0.4,5.6,1.6
	c1.1,2,0.5,4.5-1.5,5.7c-2.4,1.4-6.6,3.8-8.8,5.1C112.1,245.7,109.7,244.9,108.6,242.9z"/>
<path class="st1" d="M99.4,268.9c1.3-0.7,3-0.2,3.7,1c0.8,1.3,0.3,3-1,3.8l-4.4,2.5l-2.8-4.8C96.2,270.7,98.2,269.6,99.4,268.9
	 M84.6,259.2c1.5,0,2.8,1.2,2.8,2.8v5.1h-5.5c0-1.4,0-3.7,0-5.1C81.9,260.4,83.1,259.2,84.6,259.2z M84.6,276.2
	c-2.3,0-4.1-1.9-4.1-4.1c0-2.8,0-7.4,0-10.2c0-2.2,1.9-4,4.1-4c2.3,0,4.1,1.9,4.1,4.1c0,2.8,0,7.6,0,10.1
	C88.7,274.6,86.9,276.2,84.6,276.2z M66,269.9c0.8-1.3,2.4-1.8,3.8-1l4.4,2.5l-2.8,4.8c-1.2-0.7-3.2-1.9-4.5-2.6
	C65.7,272.9,65.3,271.2,66,269.9z M80.7,278.5c-1.1,2-3.7,2.7-5.7,1.5c-2.4-1.4-6.4-3.7-8.8-5.1c-1.9-1.2-2.6-3.7-1.4-5.6
	c1.1-2,3.7-2.7,5.7-1.5c2.4,1.4,6.6,3.8,8.8,5.1C81.4,274.1,81.9,276.5,80.7,278.5z M66,291.4c-0.8-1.3-0.3-3,1-3.8l4.4-2.5l2.8,4.8
	c-1.2,0.7-3.2,1.9-4.5,2.6C68.4,293.2,66.8,292.7,66,291.4z M80.8,282.9c1.1,2,0.5,4.5-1.5,5.7c-2.4,1.4-6.4,3.7-8.8,5.1
	c-2,1.1-4.4,0.4-5.6-1.6c-1.1-2-0.5-4.5,1.5-5.7c2.4-1.4,6.6-3.8,8.8-5.1C77.3,280.1,79.6,280.9,80.8,282.9z M84.6,302.1
	c-1.5,0-2.8-1.2-2.8-2.8v-5.1h5.5c0,1.4,0,3.7,0,5.1C87.3,300.9,86.1,302.1,84.6,302.1z M84.6,285.1c2.3,0,4.1,1.9,4.1,4.1
	c0,2.8,0,7.4,0,10.2c0,2.2-1.9,4-4.1,4c-2.3,0-4.1-1.9-4.1-4.1c0-2.8,0-7.6,0-10.1C80.4,286.7,82.3,285.1,84.6,285.1z M103.2,291.4
	c-0.8,1.3-2.5,1.8-3.8,1l-4.4-2.5l2.8-4.8c1.2,0.7,3.2,1.9,4.5,2.6C103.5,288.4,103.9,290.1,103.2,291.4z M88.4,282.9
	c1.1-2,3.7-2.7,5.7-1.5c2.4,1.4,6.4,3.7,8.8,5.1c1.9,1.2,2.6,3.7,1.4,5.6c-1.1,2-3.7,2.7-5.7,1.5c-2.4-1.4-6.6-3.8-8.8-5.1
	C87.8,287.3,87.3,284.8,88.4,282.9z M88.4,278.4c-1.1-2-0.5-4.5,1.5-5.7c2.4-1.4,6.4-3.7,8.8-5.1c2-1.1,4.5-0.4,5.6,1.6
	c1.1,2,0.5,4.5-1.5,5.7c-2.4,1.4-6.6,3.8-8.8,5.1C91.9,281.2,89.6,280.4,88.4,278.4z"/>
<path class="st0" d="M93.9,14.2c1.3-0.7,3-0.2,3.7,1c0.8,1.3,0.3,3-1,3.8l-4.4,2.5l-2.8-4.8C90.7,16,92.7,14.9,93.9,14.2 M79,4.5
	c1.5,0,2.8,1.2,2.8,2.8v5.1h-5.5c0-1.4,0-3.7,0-5.1C76.3,5.7,77.5,4.5,79,4.5z M79,21.5c-2.3,0-4.1-1.9-4.1-4.1c0-2.8,0-7.4,0-10.2
	c0-2.2,1.9-4,4.1-4c2.3,0,4.1,1.9,4.1,4.1c0,2.8,0,7.6,0,10.1C83.2,19.9,81.3,21.5,79,21.5z M60.5,15.2c0.8-1.3,2.5-1.8,3.8-1
	l4.4,2.5l-2.8,4.8c-1.2-0.7-3.2-1.9-4.5-2.6C60.1,18.2,59.7,16.5,60.5,15.2z M75.2,23.7c-1.1,2-3.7,2.7-5.7,1.5
	c-2.4-1.4-6.4-3.7-8.8-5.1c-1.9-1.2-2.6-3.7-1.4-5.6c1.1-2,3.7-2.7,5.7-1.5c2.4,1.4,6.6,3.8,8.8,5.1C75.9,19.3,76.4,21.8,75.2,23.7z
	 M60.5,36.7c-0.8-1.3-0.3-3,1-3.8l4.4-2.5l2.8,4.8c-1.2,0.7-3.2,1.9-4.5,2.6C62.9,38.4,61.2,38,60.5,36.7z M75.2,28.2
	c1.1,2,0.5,4.5-1.5,5.7c-2.4,1.4-6.4,3.7-8.8,5.1c-2,1.1-4.4,0.4-5.6-1.6c-1.1-2-0.5-4.5,1.5-5.7c2.4-1.4,6.6-3.8,8.8-5.1
	C71.7,25.4,74.1,26.2,75.2,28.2z M79.1,47.4c-1.5,0-2.8-1.2-2.8-2.8v-5.1h5.5c0,1.4,0,3.7,0,5.1C81.8,46.2,80.6,47.4,79.1,47.4z
	 M79.1,30.4c2.3,0,4.1,1.9,4.1,4.1c0,2.8,0,7.4,0,10.2c0,2.2-1.9,4-4.1,4c-2.3,0-4.1-1.9-4.1-4.1c0-2.8,0-7.6,0-10.1
	C74.9,32,76.8,30.4,79.1,30.4z M97.6,36.7c-0.8,1.3-2.5,1.8-3.8,1l-4.4-2.5l2.8-4.8c1.2,0.7,3.2,1.9,4.5,2.6
	C97.9,33.7,98.4,35.4,97.6,36.7z M82.9,28.1c1.1-2,3.7-2.7,5.7-1.5c2.4,1.4,6.4,3.7,8.8,5.1c1.9,1.2,2.6,3.7,1.4,5.6
	c-1.1,2-3.7,2.7-5.7,1.5c-2.4-1.4-6.6-3.8-8.8-5.1C82.2,32.5,81.7,30.1,82.9,28.1z M82.9,23.7c-1.1-2-0.5-4.5,1.5-5.7
	c2.4-1.4,6.4-3.7,8.8-5.1c2-1.1,4.4-0.4,5.6,1.6c1.1,2,0.5,4.5-1.5,5.7c-2.4,1.4-6.6,3.8-8.8,5.1C86.3,26.5,84,25.7,82.9,23.7z"/>
<path class="st1" d="M180.7,339.5c1.3-0.7,3-0.2,3.7,1c0.8,1.3,0.3,3-1,3.8l-4.4,2.5l-2.8-4.8C177.4,341.4,179.4,340.2,180.7,339.5
	 M165.8,329.9c1.5,0,2.8,1.2,2.8,2.8v5.1H163c0-1.4,0-3.7,0-5.1C163.1,331,164.3,329.9,165.8,329.9z M165.8,346.9
	c-2.3,0-4.1-1.9-4.1-4.1c0-2.8,0-7.4,0-10.2c0-2.2,1.9-4,4.1-4c2.3,0,4.1,1.9,4.1,4.1c0,2.8,0,7.6,0,10.1
	C169.9,345.3,168.1,346.9,165.8,346.9z M147.2,340.6c0.8-1.3,2.4-1.8,3.8-1l4.4,2.5l-2.8,4.8c-1.2-0.7-3.2-1.9-4.5-2.6
	C146.9,343.5,146.5,341.9,147.2,340.6z M162,349.1c-1.1,2-3.7,2.7-5.7,1.5c-2.4-1.4-6.4-3.7-8.8-5.1c-1.9-1.2-2.6-3.7-1.4-5.6
	c1.1-2,3.7-2.7,5.7-1.5c2.4,1.4,6.6,3.8,8.8,5.1C162.6,344.7,163.1,347.1,162,349.1z M147.2,362c-0.8-1.3-0.3-3,1-3.8l4.4-2.5
	l2.8,4.8c-1.2,0.7-3.2,1.9-4.5,2.6C149.6,363.8,148,363.3,147.2,362z M162,353.5c1.1,2,0.5,4.5-1.5,5.7c-2.4,1.4-6.4,3.7-8.8,5.1
	c-2,1.1-4.4,0.4-5.6-1.6c-1.1-2-0.5-4.5,1.5-5.7c2.4-1.4,6.6-3.8,8.8-5.1C158.5,350.7,160.8,351.5,162,353.5z M165.8,372.7
	c-1.5,0-2.8-1.2-2.8-2.8v-5.1h5.5c0,1.4,0,3.7,0,5.1C168.5,371.5,167.3,372.7,165.8,372.7z M165.8,355.7c2.3,0,4.1,1.9,4.1,4.1
	c0,2.8,0,7.4,0,10.2c0,2.2-1.9,4-4.1,4c-2.3,0-4.1-1.9-4.1-4.1c0-2.8,0-7.6,0-10.1C161.7,357.3,163.5,355.7,165.8,355.7z M184.4,362
	c-0.8,1.3-2.5,1.8-3.8,1l-4.4-2.5l2.8-4.8c1.2,0.7,3.2,1.9,4.5,2.6C184.7,359.1,185.1,360.7,184.4,362z M169.6,353.5
	c1.1-2,3.7-2.7,5.7-1.5c2.4,1.4,6.4,3.7,8.8,5.1c0.6,0.3,1,0.8,1.4,1.3v4.4c-1.2,1.9-3.6,2.5-5.6,1.4c-2.4-1.4-6.6-3.8-8.8-5.1
	C169,357.9,168.5,355.5,169.6,353.5z M169.6,349.1c-1.1-2-0.5-4.5,1.5-5.7c2.4-1.4,6.4-3.7,8.8-5.1c1.9-1.1,4.3-0.4,5.5,1.4v4.4
	c-0.3,0.6-0.8,1-1.4,1.4c-2.4,1.4-6.6,3.8-8.8,5.1C173.1,351.9,170.8,351.1,169.6,349.1z"/>
<path class="st1" d="M180.7,269.1c1.3-0.7,3-0.2,3.7,1c0.8,1.3,0.3,3-1,3.8l-4.4,2.5l-2.8-4.8C177.4,271,179.4,269.8,180.7,269.1
	 M165.8,259.5c1.5,0,2.8,1.2,2.8,2.8v5.1H163c0-1.4,0-3.7,0-5.1C163.1,260.6,164.3,259.5,165.8,259.5z M165.8,276.5
	c-2.3,0-4.1-1.9-4.1-4.1c0-2.8,0-7.4,0-10.2c0-2.2,1.9-4,4.1-4c2.3,0,4.1,1.9,4.1,4.1c0,2.8,0,7.6,0,10.1
	C169.9,274.9,168.1,276.5,165.8,276.5z M147.2,270.2c0.8-1.3,2.4-1.8,3.8-1l4.4,2.5l-2.8,4.8c-1.2-0.7-3.2-1.9-4.5-2.6
	C146.9,273.1,146.5,271.5,147.2,270.2z M162,278.7c-1.1,2-3.7,2.7-5.7,1.5c-2.4-1.4-6.4-3.7-8.8-5.1c-1.9-1.2-2.6-3.7-1.4-5.6
	c1.1-2,3.7-2.7,5.7-1.5c2.4,1.4,6.6,3.8,8.8,5.1C162.6,274.3,163.1,276.7,162,278.7z M147.2,291.6c-0.8-1.3-0.3-3,1-3.8l4.4-2.5
	l2.8,4.8c-1.2,0.7-3.2,1.9-4.5,2.6C149.6,293.4,148,292.9,147.2,291.6z M162,283.1c1.1,2,0.5,4.5-1.5,5.7c-2.4,1.4-6.4,3.7-8.8,5.1
	c-2,1.1-4.4,0.4-5.6-1.6c-1.1-2-0.5-4.5,1.5-5.7c2.4-1.4,6.6-3.8,8.8-5.1C158.5,280.3,160.8,281.1,162,283.1z M165.8,302.3
	c-1.5,0-2.8-1.2-2.8-2.8v-5.1h5.5c0,1.4,0,3.7,0,5.1C168.5,301.1,167.3,302.3,165.8,302.3z M165.8,285.3c2.3,0,4.1,1.9,4.1,4.1
	c0,2.8,0,7.4,0,10.2c0,2.2-1.9,4-4.1,4c-2.3,0-4.1-1.9-4.1-4.1c0-2.8,0-7.6,0-10.1C161.7,286.9,163.5,285.3,165.8,285.3z
	 M184.4,291.6c-0.8,1.3-2.5,1.8-3.8,1l-4.4-2.5l2.8-4.8c1.2,0.7,3.2,1.9,4.5,2.6C184.7,288.7,185.1,290.3,184.4,291.6z M169.6,283.1
	c1.1-2,3.7-2.7,5.7-1.5c2.4,1.4,6.4,3.7,8.8,5.1c0.6,0.3,1,0.8,1.4,1.3v4.4c-1.2,1.9-3.6,2.5-5.6,1.4c-2.4-1.4-6.6-3.8-8.8-5.1
	C169,287.5,168.5,285.1,169.6,283.1z M169.6,278.7c-1.1-2-0.5-4.5,1.5-5.7c2.4-1.4,6.4-3.7,8.8-5.1c1.9-1.1,4.3-0.4,5.5,1.4v4.4
	c-0.3,0.6-0.8,1-1.4,1.4c-2.4,1.4-6.6,3.8-8.8,5.1C173.1,281.5,170.8,280.7,169.6,278.7z"/>
<path class="st0" d="M111.2,133.1c1.3-0.7,3-0.2,3.7,1c0.8,1.3,0.3,3-1,3.8l-4.4,2.5l-2.8-4.8C107.9,134.9,109.9,133.8,111.2,133.1
	 M96.3,123.4c1.5,0,2.8,1.2,2.8,2.8v5.1h-5.5c0-1.4,0-3.7,0-5.1C93.6,124.6,94.8,123.4,96.3,123.4z M96.3,140.4
	c-2.3,0-4.1-1.9-4.1-4.1c0-2.8,0-7.4,0-10.2c0-2.2,1.9-4,4.1-4c2.3,0,4.1,1.9,4.1,4.1c0,2.8,0,7.6,0,10.1
	C100.4,138.8,98.6,140.4,96.3,140.4z M77.7,134.1c0.8-1.3,2.4-1.8,3.8-1l4.4,2.5l-2.8,4.8c-1.2-0.7-3.2-1.9-4.5-2.6
	C77.4,137.1,77,135.4,77.7,134.1z M92.5,142.6c-1.1,2-3.7,2.7-5.7,1.5c-2.4-1.4-6.4-3.7-8.8-5.1c-1.9-1.2-2.6-3.7-1.4-5.6
	c1.1-2,3.7-2.7,5.7-1.5c2.4,1.4,6.6,3.8,8.8,5.1C93.1,138.2,93.6,140.7,92.5,142.6z M77.7,155.6c-0.8-1.3-0.3-3,1-3.8l4.4-2.5
	l2.8,4.8c-1.2,0.7-3.2,1.9-4.5,2.6C80.1,157.3,78.5,156.9,77.7,155.6z M92.5,147.1c1.1,2,0.5,4.5-1.5,5.7c-2.4,1.4-6.4,3.7-8.8,5.1
	c-2,1.1-4.4,0.4-5.6-1.6c-1.1-2-0.5-4.5,1.5-5.7c2.4-1.4,6.6-3.8,8.8-5.1C89,144.3,91.3,145.1,92.5,147.1z M96.3,166.3
	c-1.5,0-2.8-1.2-2.8-2.8v-5.1h5.5c0,1.4,0,3.7,0,5.1C99,165.1,97.8,166.3,96.3,166.3z M96.3,149.3c2.3,0,4.1,1.9,4.1,4.1
	c0,2.8,0,7.4,0,10.2c0,2.2-1.9,4-4.1,4c-2.3,0-4.1-1.9-4.1-4.1c0-2.8,0-7.6,0-10.1C92.2,150.9,94,149.3,96.3,149.3z M114.9,155.6
	c-0.8,1.3-2.5,1.8-3.8,1l-4.4-2.5l2.8-4.8c1.2,0.7,3.2,1.9,4.5,2.6C115.2,152.6,115.6,154.3,114.9,155.6z M100.1,147
	c1.1-2,3.7-2.7,5.7-1.5c2.4,1.4,6.4,3.7,8.8,5.1c1.9,1.2,2.6,3.7,1.4,5.6c-1.1,2-3.7,2.7-5.7,1.5c-2.4-1.4-6.6-3.8-8.8-5.1
	C99.5,151.4,99,149,100.1,147z M100.1,142.6c-1.1-2-0.5-4.5,1.5-5.7c2.4-1.4,6.4-3.7,8.8-5.1c2-1.1,4.5-0.4,5.6,1.6
	c1.1,2,0.5,4.5-1.5,5.7c-2.4,1.4-6.6,3.8-8.8,5.1C103.6,145.4,101.3,144.6,100.1,142.6z"/>
<path class="st1" d="M100.5,197.8c1.3-0.7,3-0.2,3.7,1c0.8,1.3,0.3,3-1,3.8l-4.4,2.5l-2.8-4.8C97.2,199.7,99.3,198.5,100.5,197.8
	 M85.6,188.1c1.5,0,2.8,1.2,2.8,2.8v5.1h-5.5c0-1.4,0-3.7,0-5.1C82.9,189.3,84.1,188.1,85.6,188.1z M85.6,205.1
	c-2.3,0-4.1-1.9-4.1-4.1c0-2.8,0-7.4,0-10.2c0-2.2,1.9-4,4.1-4c2.3,0,4.1,1.9,4.1,4.1c0,2.8,0,7.6,0,10.1
	C89.8,203.5,87.9,205.1,85.6,205.1z M67,198.9c0.8-1.3,2.5-1.8,3.8-1l4.4,2.5l-2.8,4.8c-1.2-0.7-3.2-1.9-4.5-2.6
	C66.7,201.8,66.3,200.2,67,198.9z M67.1,220.3c-0.8-1.3-0.3-3,1-3.8l4.4-2.5l2.8,4.8c-1.2,0.7-3.2,1.9-4.5,2.6
	C69.5,222.1,67.8,221.6,67.1,220.3z M85.6,231c-1.5,0-2.8-1.2-2.8-2.8v-5.1h5.5c0,1.4,0,3.7,0,5.1C88.4,229.8,87.1,231,85.6,231z
	 M85.6,214c2.3,0,4.1,1.9,4.1,4.1c0,2.8,0,7.4,0,10.2c0,2.2-1.9,4-4.1,4c-2.3,0-4.1-1.9-4.1-4.1c0-2.8,0-7.6,0-10.1
	C81.5,215.6,83.3,214,85.6,214z M104.2,220.3c-0.8,1.3-2.5,1.8-3.8,1l-4.4-2.5l2.8-4.8c1.2,0.7,3.2,1.9,4.5,2.6
	C104.5,217.3,104.9,219,104.2,220.3z M89.5,211.8c1.1-2,3.7-2.7,5.7-1.5c2.4,1.4,6.4,3.7,8.8,5.1c1.9,1.2,2.6,3.7,1.4,5.6
	c-1.1,2-3.7,2.7-5.7,1.5c-2.4-1.4-6.6-3.8-8.8-5.1C88.8,216.2,88.3,213.8,89.5,211.8z M67.4,215.3c2.4-1.4,6.6-3.8,8.8-5.1
	c2.2-1.3,4.5-0.5,5.7,1.5c1.1,2,0.5,4.5-1.5,5.7c-2.4,1.4-6.4,3.7-8.8,5.1c-2,1.1-4.4,0.4-5.6-1.6c-0.3-0.4-0.4-0.9-0.5-1.4v-1.3
	C65.6,217.1,66.3,216,67.4,215.3z M65.9,198.2c1.1-2,3.7-2.7,5.7-1.5c2.4,1.4,6.6,3.8,8.8,5.1c2.2,1.3,2.7,3.7,1.5,5.7
	c-1.1,2-3.7,2.7-5.7,1.5c-2.4-1.4-6.4-3.7-8.8-5.1c-1.1-0.6-1.7-1.7-1.9-2.8v-1.5C65.4,199,65.6,198.6,65.9,198.2z M89.5,207.3
	c-1.1-2-0.5-4.5,1.5-5.7c2.4-1.4,6.4-3.7,8.8-5.1c2-1.1,4.5-0.4,5.6,1.6c1.1,2,0.5,4.5-1.5,5.7c-2.4,1.4-6.6,3.8-8.8,5.1
	C92.9,210.1,90.6,209.3,89.5,207.3z"/>
<path class="st1" d="M180.7,198.9c1.3-0.7,3-0.2,3.7,1c0.8,1.3,0.3,3-1,3.8l-4.4,2.5l-2.8-4.8C177.4,200.7,179.4,199.6,180.7,198.9
	 M165.8,189.2c1.5,0,2.8,1.2,2.8,2.8v5.1H163c0-1.4,0-3.7,0-5.1C163.1,190.4,164.3,189.2,165.8,189.2z M165.8,206.2
	c-2.3,0-4.1-1.9-4.1-4.1c0-2.8,0-7.4,0-10.2c0-2.2,1.9-4,4.1-4c2.3,0,4.1,1.9,4.1,4.1c0,2.8,0,7.6,0,10.1
	C169.9,204.6,168.1,206.2,165.8,206.2z M147.2,199.9c0.8-1.3,2.4-1.8,3.8-1l4.4,2.5l-2.8,4.8c-1.2-0.7-3.2-1.9-4.5-2.6
	C146.9,202.9,146.5,201.2,147.2,199.9z M162,208.5c-1.1,2-3.7,2.7-5.7,1.5c-2.4-1.4-6.4-3.7-8.8-5.1c-1.9-1.2-2.6-3.7-1.4-5.6
	c1.1-2,3.7-2.7,5.7-1.5c2.4,1.4,6.6,3.8,8.8,5.1C162.6,204.1,163.1,206.5,162,208.5z M147.2,221.4c-0.8-1.3-0.3-3,1-3.8l4.4-2.5
	l2.8,4.8c-1.2,0.7-3.2,1.9-4.5,2.6C149.6,223.1,148,222.7,147.2,221.4z M162,212.9c1.1,2,0.5,4.5-1.5,5.7c-2.4,1.4-6.4,3.7-8.8,5.1
	c-2,1.1-4.4,0.4-5.6-1.6c-1.1-2-0.5-4.5,1.5-5.7c2.4-1.4,6.6-3.8,8.8-5.1C158.5,210.1,160.8,210.9,162,212.9z M165.8,232.1
	c-1.5,0-2.8-1.2-2.8-2.8v-5.1h5.5c0,1.4,0,3.7,0,5.1C168.5,230.9,167.3,232.1,165.8,232.1z M165.8,215.1c2.3,0,4.1,1.9,4.1,4.1
	c0,2.8,0,7.4,0,10.2c0,2.2-1.9,4-4.1,4c-2.3,0-4.1-1.9-4.1-4.1c0-2.8,0-7.6,0-10.1C161.7,216.7,163.5,215.1,165.8,215.1z
	 M184.4,221.4c-0.8,1.3-2.5,1.8-3.8,1l-4.4-2.5l2.8-4.8c1.2,0.7,3.2,1.9,4.5,2.6C184.7,218.4,185.1,220.1,184.4,221.4z M169.6,212.9
	c1.1-2,3.7-2.7,5.7-1.5c2.4,1.4,6.4,3.7,8.8,5.1c0.6,0.3,1,0.8,1.4,1.3v4.4c-1.2,1.9-3.6,2.5-5.6,1.4c-2.4-1.4-6.6-3.8-8.8-5.1
	C169,217.3,168.5,214.8,169.6,212.9z M169.6,208.4c-1.1-2-0.5-4.5,1.5-5.7c2.4-1.4,6.4-3.7,8.8-5.1c1.9-1.1,4.3-0.4,5.5,1.4v4.4
	c-0.3,0.6-0.8,1-1.4,1.4c-2.4,1.4-6.6,3.8-8.8,5.1C173.1,211.2,170.8,210.4,169.6,208.4z"/>
<path class="st0" d="M160.4,163.7c1.3-0.7,3-0.2,3.7,1c0.8,1.3,0.3,3-1,3.8l-4.4,2.5l-2.8-4.8C157.1,165.6,159.1,164.4,160.4,163.7
	 M145.5,154c1.5,0,2.8,1.2,2.8,2.8v5.1h-5.5c0-1.4,0-3.7,0-5.1C142.8,155.2,144,154,145.5,154z M145.5,171c-2.3,0-4.1-1.9-4.1-4.1
	c0-2.8,0-7.4,0-10.2c0-2.2,1.9-4,4.1-4c2.3,0,4.1,1.9,4.1,4.1c0,2.8,0,7.6,0,10.1C149.6,169.4,147.8,171,145.5,171z M126.9,164.8
	c0.8-1.3,2.5-1.8,3.8-1l4.4,2.5l-2.8,4.8c-1.2-0.7-3.2-1.9-4.5-2.6C126.6,167.7,126.2,166.1,126.9,164.8z M141.7,173.3
	c-1.1,2-3.7,2.7-5.7,1.5c-2.4-1.4-6.4-3.7-8.8-5.1c-1.9-1.2-2.6-3.7-1.4-5.6c1.1-2,3.7-2.7,5.7-1.5c2.4,1.4,6.6,3.8,8.8,5.1
	C142.3,168.9,142.8,171.3,141.7,173.3z M126.9,186.2c-0.8-1.3-0.3-3,1-3.8l4.4-2.5l2.8,4.8c-1.2,0.7-3.2,1.9-4.5,2.6
	C129.3,188,127.7,187.5,126.9,186.2z M141.7,177.7c1.1,2,0.5,4.5-1.5,5.7c-2.4,1.4-6.4,3.7-8.8,5.1c-2,1.1-4.4,0.4-5.6-1.6
	c-1.1-2-0.5-4.5,1.5-5.7c2.4-1.4,6.6-3.8,8.8-5.1C138.2,174.9,140.5,175.7,141.7,177.7z M145.5,196.9c-1.5,0-2.8-1.2-2.8-2.8v-5.1
	h5.5c0,1.4,0,3.7,0,5.1C148.2,195.7,147,196.9,145.5,196.9z M145.5,179.9c2.3,0,4.1,1.9,4.1,4.1c0,2.8,0,7.4,0,10.2
	c0,2.2-1.9,4-4.1,4c-2.3,0-4.1-1.9-4.1-4.1c0-2.8,0-7.6,0-10.1C141.4,181.5,143.2,179.9,145.5,179.9z M164.1,186.2
	c-0.8,1.3-2.5,1.8-3.8,1l-4.4-2.5l2.8-4.8c1.2,0.7,3.2,1.9,4.5,2.6C164.4,183.2,164.8,184.9,164.1,186.2z M149.3,177.7
	c1.1-2,3.7-2.7,5.7-1.5c2.4,1.4,6.4,3.7,8.8,5.1c1.9,1.2,2.6,3.7,1.4,5.6c-1.1,2-3.7,2.7-5.7,1.5c-2.4-1.4-6.6-3.8-8.8-5.1
	C148.7,182.1,148.2,179.7,149.3,177.7z M149.3,173.3c-1.1-2-0.5-4.5,1.5-5.7c2.4-1.4,6.4-3.7,8.8-5.1c2-1.1,4.4-0.4,5.6,1.6
	c1.1,2,0.5,4.5-1.5,5.7c-2.4,1.4-6.6,3.8-8.8,5.1C152.8,176,150.5,175.2,149.3,173.3z"/>
<path class="st1" d="M164.2,64.3c1.3-0.7,3-0.2,3.7,1c0.8,1.3,0.3,3-1,3.8l-4.4,2.5l-2.8-4.8C161,66.2,163,65,164.2,64.3
	 M149.4,54.7c1.5,0,2.8,1.2,2.8,2.8v5.1h-5.5c0-1.4,0-3.7,0-5.1C146.7,55.9,147.9,54.7,149.4,54.7z M149.4,71.7
	c-2.3,0-4.1-1.9-4.1-4.1c0-2.8,0-7.4,0-10.2c0-2.2,1.9-4,4.1-4c2.3,0,4.1,1.9,4.1,4.1c0,2.8,0,7.6,0,10.1
	C153.5,70.1,151.7,71.7,149.4,71.7z M130.8,65.4c0.8-1.3,2.5-1.8,3.8-1l4.4,2.5l-2.8,4.8c-1.2-0.7-3.2-1.9-4.5-2.6
	C130.5,68.4,130.1,66.7,130.8,65.4z M145.5,73.9c-1.1,2-3.7,2.7-5.7,1.5c-2.4-1.4-6.4-3.7-8.8-5.1c-1.9-1.2-2.6-3.7-1.4-5.6
	c1.1-2,3.7-2.7,5.7-1.5c2.4,1.4,6.6,3.8,8.8,5.1C146.2,69.5,146.7,71.9,145.5,73.9z M130.8,86.9c-0.8-1.3-0.3-3,1-3.8l4.4-2.5
	l2.8,4.8c-1.2,0.7-3.2,1.9-4.5,2.6C133.2,88.6,131.6,88.2,130.8,86.9z M145.6,78.3c1.1,2,0.5,4.5-1.5,5.7c-2.4,1.4-6.4,3.7-8.8,5.1
	c-2,1.1-4.4,0.4-5.6-1.6c-1.1-2-0.5-4.5,1.5-5.7c2.4-1.4,6.6-3.8,8.8-5.1C142.1,75.6,144.4,76.4,145.6,78.3z M149.4,97.6
	c-1.5,0-2.8-1.2-2.8-2.8v-5.1h5.5c0,1.4,0,3.7,0,5.1C152.1,96.4,150.9,97.6,149.4,97.6z M149.4,80.6c2.3,0,4.1,1.9,4.1,4.1
	c0,2.8,0,7.4,0,10.2c0,2.2-1.9,4-4.1,4c-2.3,0-4.1-1.9-4.1-4.1c0-2.8,0-7.6,0-10.1C145.2,82.2,147.1,80.6,149.4,80.6z M168,86.8
	c-0.8,1.3-2.5,1.8-3.8,1l-4.4-2.5l2.8-4.8c1.2,0.7,3.2,1.9,4.5,2.6C168.3,83.9,168.7,85.5,168,86.8z M153.2,78.3
	c1.1-2,3.7-2.7,5.7-1.5c2.4,1.4,6.4,3.7,8.8,5.1c1.9,1.2,2.6,3.7,1.4,5.6c-1.1,2-3.7,2.7-5.7,1.5c-2.4-1.4-6.6-3.8-8.8-5.1
	C152.5,82.7,152.1,80.3,153.2,78.3z M153.2,73.9c-1.1-2-0.5-4.5,1.5-5.7c2.4-1.4,6.4-3.7,8.8-5.1c2-1.1,4.5-0.4,5.6,1.6
	c1.1,2,0.5,4.5-1.5,5.7c-2.4,1.4-6.6,3.8-8.8,5.1C156.7,76.7,154.4,75.9,153.2,73.9z"/>
<path class="st1" d="M75.9,79.1c1.3-0.7,3-0.2,3.7,1c0.8,1.3,0.3,3-1,3.8l-4.4,2.5l-2.8-4.8C72.7,81,74.7,79.8,75.9,79.1 M61.1,69.5
	c1.5,0,2.8,1.2,2.8,2.8v5.1h-5.5c0-1.4,0-3.7,0-5.1C58.3,70.7,59.6,69.5,61.1,69.5z M61.1,86.5c-2.3,0-4.1-1.9-4.1-4.1
	c0-2.8,0-7.4,0-10.2c0-2.2,1.9-4,4.1-4c2.3,0,4.1,1.9,4.1,4.1c0,2.8,0,7.6,0,10.1C65.2,84.9,63.3,86.5,61.1,86.5z M42.5,80.2
	c0.8-1.3,2.5-1.8,3.8-1l4.4,2.5l-2.8,4.8c-1.2-0.7-3.2-1.9-4.5-2.6C42.2,83.1,41.7,81.5,42.5,80.2z M57.2,88.7
	c-1.1,2-3.7,2.7-5.7,1.5c-2.4-1.4-6.4-3.7-8.8-5.1c-1.9-1.2-2.6-3.7-1.4-5.6c1.1-2,3.7-2.7,5.7-1.5c2.4,1.4,6.6,3.8,8.8,5.1
	C57.9,84.3,58.4,86.7,57.2,88.7z M42.5,101.6c-0.8-1.3-0.3-3,1-3.8l4.4-2.5l2.8,4.8c-1.2,0.7-3.2,1.9-4.5,2.6
	C44.9,103.4,43.2,102.9,42.5,101.6z M57.2,93.1c1.1,2,0.5,4.5-1.5,5.7c-2.4,1.4-6.4,3.7-8.8,5.1c-2,1.1-4.4,0.4-5.6-1.6
	c-1.1-2-0.5-4.5,1.5-5.7c2.4-1.4,6.6-3.8,8.8-5.1C53.8,90.4,56.1,91.1,57.2,93.1z M61.1,112.3c-1.5,0-2.8-1.2-2.8-2.8v-5.1h5.5
	c0,1.4,0,3.7,0,5.1C63.8,111.2,62.6,112.3,61.1,112.3z M61.1,95.3c2.3,0,4.1,1.9,4.1,4.1c0,2.8,0,7.4,0,10.2c0,2.2-1.9,4-4.1,4
	c-2.3,0-4.1-1.9-4.1-4.1c0-2.8,0-7.6,0-10.1C56.9,97,58.8,95.3,61.1,95.3z M79.6,101.6c-0.8,1.3-2.5,1.8-3.8,1l-4.4-2.5l2.8-4.8
	c1.2,0.7,3.2,1.9,4.5,2.6C80,98.7,80.4,100.3,79.6,101.6z M64.9,93.1c1.1-2,3.7-2.7,5.7-1.5c2.4,1.4,6.4,3.7,8.8,5.1
	c1.9,1.2,2.6,3.7,1.4,5.6c-1.1,2-3.7,2.7-5.7,1.5c-2.4-1.4-6.6-3.8-8.8-5.1C64.2,97.5,63.8,95.1,64.9,93.1z M64.9,88.7
	c-1.1-2-0.5-4.5,1.5-5.7c2.4-1.4,6.4-3.7,8.8-5.1c2-1.1,4.4-0.4,5.6,1.6c1.1,2,0.5,4.5-1.5,5.7c-2.4,1.4-6.6,3.8-8.8,5.1
	C68.4,91.5,66,90.7,64.9,88.7z"/>
<path class="st1" d="M180.7,128.6c1.3-0.7,3-0.2,3.7,1c0.8,1.3,0.3,3-1,3.8L179,136l-2.8-4.8C177.4,130.5,179.4,129.3,180.7,128.6
	 M165.8,118.9c1.5,0,2.8,1.2,2.8,2.8v5.1H163c0-1.4,0-3.7,0-5.1C163.1,120.1,164.3,118.9,165.8,118.9z M165.8,135.9
	c-2.3,0-4.1-1.9-4.1-4.1c0-2.8,0-7.4,0-10.2c0-2.2,1.9-4,4.1-4c2.3,0,4.1,1.9,4.1,4.1c0,2.8,0,7.6,0,10.1
	C169.9,134.3,168.1,135.9,165.8,135.9z M147.2,129.7c0.8-1.3,2.4-1.8,3.8-1l4.4,2.5l-2.8,4.8c-1.2-0.7-3.2-1.9-4.5-2.6
	C146.9,132.6,146.5,131,147.2,129.7z M162,138.2c-1.1,2-3.7,2.7-5.7,1.5c-2.4-1.4-6.4-3.7-8.8-5.1c-1.9-1.2-2.6-3.7-1.4-5.6
	c1.1-2,3.7-2.7,5.7-1.5c2.4,1.4,6.6,3.8,8.8,5.1C162.6,133.8,163.1,136.2,162,138.2z M147.2,151.1c-0.8-1.3-0.3-3,1-3.8l4.4-2.5
	l2.8,4.8c-1.2,0.7-3.2,1.9-4.5,2.6C149.6,152.9,148,152.4,147.2,151.1z M162,142.6c1.1,2,0.5,4.5-1.5,5.7c-2.4,1.4-6.4,3.7-8.8,5.1
	c-2,1.1-4.4,0.4-5.6-1.6c-1.1-2-0.5-4.5,1.5-5.7c2.4-1.4,6.6-3.8,8.8-5.1C158.5,139.8,160.8,140.6,162,142.6z M165.8,161.8
	c-1.5,0-2.8-1.2-2.8-2.8V154h5.5c0,1.4,0,3.7,0,5.1C168.5,160.6,167.3,161.8,165.8,161.8z M165.8,144.8c2.3,0,4.1,1.9,4.1,4.1
	c0,2.8,0,7.4,0,10.2c0,2.2-1.9,4-4.1,4c-2.3,0-4.1-1.9-4.1-4.1c0-2.8,0-7.6,0-10.1C161.7,146.4,163.5,144.8,165.8,144.8z
	 M184.4,151.1c-0.8,1.3-2.5,1.8-3.8,1l-4.4-2.5l2.8-4.8c1.2,0.7,3.2,1.9,4.5,2.6C184.7,148.1,185.1,149.8,184.4,151.1z M169.6,142.6
	c1.1-2,3.7-2.7,5.7-1.5c2.4,1.4,6.4,3.7,8.8,5.1c0.6,0.3,1,0.8,1.4,1.3v4.4c-1.2,1.9-3.6,2.5-5.6,1.4c-2.4-1.4-6.6-3.8-8.8-5.1
	C169,147,168.5,144.6,169.6,142.6z M169.6,138.2c-1.1-2-0.5-4.5,1.5-5.7c2.4-1.4,6.4-3.7,8.8-5.1c1.9-1.1,4.3-0.4,5.5,1.4v4.4
	c-0.3,0.6-0.8,1-1.4,1.4c-2.4,1.4-6.6,3.8-8.8,5.1C173.1,140.9,170.8,140.1,169.6,138.2z"/>
<path class="st0" d="M52.4,281.5c1.3-0.7,3-0.2,3.7,1c0.8,1.3,0.3,3-1,3.8l-4.4,2.5l-2.8-4.8C49.2,283.4,51.2,282.2,52.4,281.5
	 M37.5,271.8c1.5,0,2.8,1.2,2.8,2.8v5.1h-5.5c0-1.4,0-3.7,0-5.1C34.8,273,36,271.8,37.5,271.8z M37.5,288.8c-2.3,0-4.1-1.9-4.1-4.1
	c0-2.8,0-7.4,0-10.2c0-2.2,1.9-4,4.1-4c2.3,0,4.1,1.9,4.1,4.1c0,2.8,0,7.6,0,10.1C41.7,287.2,39.8,288.8,37.5,288.8z M19,282.6
	c0.8-1.3,2.4-1.8,3.8-1l4.4,2.5l-2.8,4.8c-1.2-0.7-3.2-1.9-4.5-2.6C18.7,285.5,18.2,283.9,19,282.6z M33.7,291.1
	c-1.1,2-3.7,2.7-5.7,1.5c-2.4-1.4-6.4-3.7-8.8-5.1c-1.9-1.2-2.6-3.7-1.4-5.6c1.1-2,3.7-2.7,5.7-1.5c2.4,1.4,6.6,3.8,8.8,5.1
	C34.4,286.7,34.9,289.1,33.7,291.1z M19,304c-0.8-1.3-0.3-3,1-3.8l4.4-2.5l2.8,4.8c-1.2,0.7-3.2,1.9-4.5,2.6
	C21.4,305.8,19.7,305.3,19,304z M33.7,295.5c1.1,2,0.5,4.5-1.5,5.7c-2.4,1.4-6.4,3.7-8.8,5.1c-2,1.1-4.4,0.4-5.6-1.6
	c-1.1-2-0.5-4.5,1.5-5.7c2.4-1.4,6.6-3.8,8.8-5.1C30.3,292.7,32.6,293.5,33.7,295.5z M37.6,314.7c-1.5,0-2.8-1.2-2.8-2.8v-5.1h5.5
	c0,1.4,0,3.7,0,5.1C40.3,313.5,39.1,314.7,37.6,314.7z M37.6,297.7c2.3,0,4.1,1.9,4.1,4.1c0,2.8,0,7.4,0,10.2c0,2.2-1.9,4-4.1,4
	c-2.3,0-4.1-1.9-4.1-4.1c0-2.8,0-7.6,0-10.1C33.4,299.3,35.3,297.7,37.6,297.7z M56.1,304c-0.8,1.3-2.5,1.8-3.8,1l-4.4-2.5l2.8-4.8
	c1.2,0.7,3.2,1.9,4.5,2.6C56.5,301,56.9,302.7,56.1,304z M41.4,295.5c1.1-2,3.7-2.7,5.7-1.5c2.4,1.4,6.4,3.7,8.8,5.1
	c1.9,1.2,2.6,3.7,1.4,5.6c-1.1,2-3.7,2.7-5.7,1.5c-2.4-1.4-6.6-3.8-8.8-5.1C40.7,299.9,40.3,297.5,41.4,295.5z M41.4,291.1
	c-1.1-2-0.5-4.5,1.5-5.7c2.4-1.4,6.4-3.7,8.8-5.1c2-1.1,4.4-0.4,5.6,1.6c1.1,2,0.5,4.5-1.5,5.7c-2.4,1.4-6.6,3.8-8.8,5.1
	C44.9,293.8,42.5,293,41.4,291.1z"/>
<path class="st0" d="M37.1,188.2c1.3-0.7,3-0.2,3.7,1c0.8,1.3,0.3,3-1,3.8l-4.4,2.5l-2.8-4.8C33.9,190.1,35.9,188.9,37.1,188.2
	 M22.2,178.5c1.5,0,2.8,1.2,2.8,2.8v5.1h-5.5c0-1.4,0-3.7,0-5.1C19.5,179.7,20.7,178.5,22.2,178.5z M22.2,195.6
	c-2.3,0-4.1-1.9-4.1-4.1c0-2.8,0-7.4,0-10.2c0-2.2,1.9-4,4.1-4c2.3,0,4.1,1.9,4.1,4.1c0,2.8,0,7.6,0,10.1
	C26.4,193.9,24.5,195.6,22.2,195.6z M3.7,189.3c0.8-1.3,2.4-1.8,3.8-1l4.4,2.5l-2.8,4.8c-1.2-0.7-3.2-1.9-4.5-2.6
	C3.3,192.2,2.9,190.6,3.7,189.3z M18.4,197.8c-1.1,2-3.7,2.7-5.7,1.5c-2.4-1.4-6.4-3.7-8.8-5.1c-1.9-1.2-2.6-3.7-1.4-5.6
	c1.1-2,3.7-2.7,5.7-1.5c2.4,1.4,6.6,3.8,8.8,5.1C19.1,193.4,19.6,195.8,18.4,197.8z M3.7,210.7c-0.8-1.3-0.3-3,1-3.8l4.4-2.5
	l2.8,4.8c-1.2,0.7-3.2,1.9-4.5,2.6C6.1,212.5,4.4,212,3.7,210.7z M18.4,202.2c1.1,2,0.5,4.5-1.5,5.7c-2.4,1.4-6.4,3.7-8.8,5.1
	c-2,1.1-4.4,0.4-5.6-1.6c-1.1-2-0.5-4.5,1.5-5.7c2.4-1.4,6.6-3.8,8.8-5.1C14.9,199.4,17.3,200.2,18.4,202.2z M22.3,221.4
	c-1.5,0-2.8-1.2-2.8-2.8v-5.1H25c0,1.4,0,3.7,0,5.1C25,220.2,23.8,221.4,22.3,221.4z M22.3,204.4c2.3,0,4.1,1.9,4.1,4.1
	c0,2.8,0,7.4,0,10.2c0,2.2-1.9,4-4.1,4c-2.3,0-4.1-1.9-4.1-4.1c0-2.8,0-7.6,0-10.1C18.1,206,20,204.4,22.3,204.4z M40.8,210.7
	c-0.8,1.3-2.5,1.8-3.8,1l-4.4-2.5l2.8-4.8c1.2,0.7,3.2,1.9,4.5,2.6C41.2,207.7,41.6,209.4,40.8,210.7z M26.1,202.2
	c1.1-2,3.7-2.7,5.7-1.5c2.4,1.4,6.4,3.7,8.8,5.1c1.9,1.2,2.6,3.7,1.4,5.6c-1.1,2-3.7,2.7-5.7,1.5c-2.4-1.4-6.6-3.8-8.8-5.1
	C25.4,206.6,24.9,204.2,26.1,202.2z M26.1,197.8c-1.1-2-0.5-4.5,1.5-5.7c2.4-1.4,6.4-3.7,8.8-5.1c2-1.1,4.5-0.4,5.6,1.6
	c1.1,2,0.5,4.5-1.5,5.7c-2.4,1.4-6.6,3.8-8.8,5.1C29.6,200.5,27.2,199.7,26.1,197.8z"/>
</svg>
