<svg id="Слой_1" data-name="Слой 1" xmlns="http://www.w3.org/2000/svg" viewBox="0 0 371 183.56"><defs><style>.cls-1{fill:#f26722;}.cls-1,.cls-2{fill-rule:evenodd;}.cls-2{fill:#088b82;}</style></defs><title>Пилюльки правые</title><path class="cls-1" d="M336.9,138.75l2.57-4.45,4.79,2.76-2.53,4.39a2.76,2.76,0,0,1-4.82-2.7m-7-17.63h5.14v5.53H330a2.76,2.76,0,0,1-.08-5.52Zm10.19,6.9H330a4.14,4.14,0,0,1-.09-8.28h10.2a4.14,4.14,0,0,1,4.14,4.14A4,4,0,0,1,340.11,128Zm1.59-21.76,2.57,4.45-4.78,2.76L337,109.09a2.76,2.76,0,0,1,4.74-2.83Zm-.88,12.27-5.06-8.76a4.14,4.14,0,0,1,7.13-4.22c1.4,2.41,3.71,6.42,5.1,8.84a4.14,4.14,0,0,1-1.52,5.66A4,4,0,0,1,340.82,118.53Zm19.64-9.5-2.57,4.46-4.78-2.76,2.53-4.39a2.76,2.76,0,0,1,4.82,2.69Zm-11.07,5.37,5.06-8.76a4.14,4.14,0,0,1,7.22,4.06c-1.39,2.42-3.71,6.42-5.1,8.84a4.14,4.14,0,0,1-5.66,1.52A4,4,0,0,1,349.38,114.4Zm18,12.26h-5.14v-5.53h5.06a2.76,2.76,0,0,1,.08,5.52Zm-10.19-6.9h10.11a4.14,4.14,0,0,1,.09,8.28H357.25a4.14,4.14,0,0,1-4.14-4.14A4,4,0,0,1,357.25,119.76Zm-1.59,21.76-2.57-4.45,4.78-2.76,2.53,4.39a2.76,2.76,0,0,1-4.75,2.83Zm.89-12.27L361.6,138a4.14,4.14,0,0,1-7.13,4.22c-1.4-2.42-3.71-6.42-5.1-8.84a4.14,4.14,0,0,1,1.52-5.66A4,4,0,0,1,356.54,129.24ZM348,133.38l-5.06,8.76a4.14,4.14,0,0,1-7.22-4.06c1.39-2.42,3.7-6.42,5.1-8.84a4.14,4.14,0,0,1,5.66-1.52A4,4,0,0,1,348,133.38Z" transform="translate(-0.5 -0.64)"/><path class="cls-2" d="M290.7,184.2a4.14,4.14,0,0,1,4-3.51h10.2A4.14,4.14,0,0,1,309,184.2h-9.14v-2.13h-5.14a2.76,2.76,0,0,0-2.61,2.13Zm15.8-17,2.57,4.45-4.78,2.76L301.75,170a2.76,2.76,0,0,1,4.74-2.83Zm-.88,12.27-5.06-8.76a4.14,4.14,0,0,1,7.13-4.22c1.4,2.41,3.71,6.42,5.1,8.84a4.14,4.14,0,0,1-1.52,5.66A4,4,0,0,1,305.61,179.48Zm19.64-9.5-2.57,4.45-4.78-2.76,2.53-4.39a2.76,2.76,0,0,1,4.82,2.7Zm-11.07,5.37,5.06-8.76a4.14,4.14,0,0,1,7.22,4.06c-1.39,2.42-3.71,6.42-5.1,8.84A4.14,4.14,0,0,1,315.7,181,4,4,0,0,1,314.18,175.35Zm7.86,5.35h10.11a4.14,4.14,0,0,1,4.09,3.49h-1.41a2.76,2.76,0,0,0-2.68-2.11h-5.06v2.11h-9.14A4,4,0,0,1,322,180.71Z" transform="translate(-0.5 -0.64)"/><path class="cls-1" d="M301.7,159.07l2.57-4.45,4.79,2.76-2.53,4.39a2.76,2.76,0,0,1-4.82-2.7m-7-17.63h5.14V147h-5.07a2.76,2.76,0,0,1-.08-5.52Zm10.19,6.9H294.79a4.14,4.14,0,0,1-.09-8.28h10.2A4.14,4.14,0,0,1,309,144.2,4,4,0,0,1,304.9,148.34Zm1.59-21.76,2.57,4.45-4.78,2.76-2.53-4.39a2.76,2.76,0,0,1,4.74-2.83Zm-.88,12.27-5.06-8.76a4.14,4.14,0,0,1,7.13-4.22c1.4,2.41,3.71,6.42,5.1,8.84a4.14,4.14,0,0,1-1.52,5.66A4,4,0,0,1,305.61,138.86Zm19.64-9.5-2.57,4.46L317.9,131l2.53-4.39a2.76,2.76,0,0,1,4.82,2.69Zm-11.07,5.37,5.06-8.76a4.14,4.14,0,0,1,7.22,4.06c-1.39,2.42-3.71,6.42-5.1,8.84a4.14,4.14,0,0,1-5.66,1.52A4,4,0,0,1,314.18,134.72Zm18,12.26h-5.14v-5.53h5.06a2.76,2.76,0,0,1,.08,5.52ZM322,140.08h10.11a4.14,4.14,0,0,1,.09,8.28H322a4.14,4.14,0,0,1-4.14-4.14A4,4,0,0,1,322,140.08Zm-1.59,21.76-2.57-4.45,4.78-2.76L325.2,159a2.76,2.76,0,0,1-4.75,2.83Zm.89-12.27,5.05,8.76a4.14,4.14,0,0,1-7.13,4.22c-1.4-2.42-3.71-6.42-5.1-8.84a4.14,4.14,0,0,1,1.52-5.66A4,4,0,0,1,321.34,149.57Zm-8.57,4.13-5.06,8.76a4.14,4.14,0,0,1-7.22-4.06c1.39-2.42,3.7-6.42,5.1-8.84a4.14,4.14,0,0,1,5.66-1.52A4,4,0,0,1,312.77,153.7Z" transform="translate(-0.5 -0.64)"/><path class="cls-1" d="M266.5,138.75l2.57-4.45,4.79,2.76-2.53,4.39a2.76,2.76,0,0,1-4.82-2.7m-7-17.63h5.14v5.53H259.6a2.76,2.76,0,0,1-.08-5.52Zm10.19,6.9H259.6a4.14,4.14,0,0,1-.09-8.28h10.2a4.14,4.14,0,0,1,4.14,4.14A4,4,0,0,1,269.71,128Zm1.59-21.76,2.57,4.45-4.78,2.76-2.53-4.39a2.76,2.76,0,0,1,4.74-2.83Zm-.88,12.27-5.06-8.76a4.14,4.14,0,0,1,7.13-4.22c1.4,2.41,3.71,6.42,5.1,8.84a4.14,4.14,0,0,1-1.52,5.66A4,4,0,0,1,270.41,118.53Zm19.64-9.5-2.57,4.46-4.78-2.76,2.53-4.39a2.76,2.76,0,0,1,4.82,2.69ZM279,114.4l5.06-8.76a4.14,4.14,0,0,1,7.22,4.06c-1.39,2.42-3.71,6.42-5.1,8.84a4.14,4.14,0,0,1-5.66,1.52A4,4,0,0,1,279,114.4Zm18,12.26h-5.14v-5.53H297a2.76,2.76,0,0,1,.08,5.52Zm-10.19-6.9H297a4.14,4.14,0,0,1,.09,8.28H286.85a4.14,4.14,0,0,1-4.14-4.14A4,4,0,0,1,286.85,119.76Zm-1.59,21.76-2.57-4.45,4.78-2.76,2.53,4.39a2.76,2.76,0,0,1-4.75,2.83Zm.89-12.27,5.05,8.76a4.14,4.14,0,0,1-7.13,4.22c-1.4-2.42-3.71-6.42-5.1-8.84a4.14,4.14,0,0,1,1.52-5.66A4,4,0,0,1,286.14,129.24Zm-8.57,4.13-5.06,8.76a4.14,4.14,0,0,1-7.22-4.06c1.39-2.42,3.7-6.42,5.1-8.84a4.14,4.14,0,0,1,5.66-1.52A4,4,0,0,1,277.57,133.38Z" transform="translate(-0.5 -0.64)"/><path class="cls-2" d="M220.36,184.2a4.14,4.14,0,0,1,4-3.51h10.2a4.14,4.14,0,0,1,4.09,3.51h-9.14v-2.13h-5.14a2.76,2.76,0,0,0-2.61,2.13Zm15.8-17,2.57,4.45-4.78,2.76L231.41,170a2.76,2.76,0,0,1,4.74-2.83Zm-.88,12.27-5.06-8.76a4.14,4.14,0,0,1,7.13-4.22c1.4,2.41,3.71,6.42,5.1,8.84a4.14,4.14,0,0,1-1.52,5.66A4,4,0,0,1,235.27,179.48Zm19.64-9.5-2.57,4.45-4.78-2.76,2.53-4.39a2.76,2.76,0,0,1,4.82,2.7Zm-11.07,5.37,5.06-8.76a4.14,4.14,0,0,1,7.22,4.06c-1.39,2.42-3.71,6.42-5.1,8.84a4.14,4.14,0,0,1-5.66,1.52A4,4,0,0,1,243.84,175.35Zm7.86,5.35h10.11a4.15,4.15,0,0,1,4.09,3.49H264.5a2.76,2.76,0,0,0-2.68-2.11h-5.06v2.11h-9.14A4,4,0,0,1,251.71,180.71Z" transform="translate(-0.5 -0.64)"/><path class="cls-1" d="M231.36,159.07l2.57-4.45,4.79,2.76-2.53,4.39a2.76,2.76,0,0,1-4.82-2.7m-7-17.63h5.14V147h-5.07a2.76,2.76,0,0,1-.08-5.52Zm10.19,6.9H224.46a4.14,4.14,0,0,1-.09-8.28h10.2a4.14,4.14,0,0,1,4.14,4.14A4,4,0,0,1,234.57,148.34Zm1.59-21.76,2.57,4.45-4.78,2.76-2.53-4.39a2.76,2.76,0,0,1,4.74-2.83Zm-.88,12.27-5.06-8.76a4.14,4.14,0,0,1,7.13-4.22c1.4,2.41,3.71,6.42,5.1,8.84a4.14,4.14,0,0,1-1.52,5.66A4,4,0,0,1,235.27,138.86Zm19.64-9.5-2.57,4.46L247.56,131l2.53-4.39a2.76,2.76,0,0,1,4.82,2.69Zm-11.07,5.37L248.9,126a4.14,4.14,0,0,1,7.22,4.06c-1.39,2.42-3.71,6.42-5.1,8.84a4.14,4.14,0,0,1-5.66,1.52A4,4,0,0,1,243.84,134.72Zm18,12.26h-5.14v-5.53h5.06a2.76,2.76,0,0,1,.08,5.52Zm-10.19-6.9h10.11a4.14,4.14,0,0,1,.09,8.28H251.71a4.14,4.14,0,0,1-4.14-4.14A4,4,0,0,1,251.71,140.08Zm-1.59,21.76-2.57-4.45,4.78-2.76,2.53,4.39a2.76,2.76,0,0,1-4.75,2.83Zm.89-12.27,5.05,8.76a4.14,4.14,0,0,1-7.13,4.22c-1.4-2.42-3.71-6.42-5.1-8.84a4.14,4.14,0,0,1,1.52-5.66A4,4,0,0,1,251,149.57Zm-8.57,4.13-5.05,8.76a4.14,4.14,0,0,1-7.22-4.06c1.39-2.42,3.7-6.42,5.1-8.84a4.14,4.14,0,0,1,5.66-1.52A4,4,0,0,1,242.43,153.7Z" transform="translate(-0.5 -0.64)"/><path class="cls-2" d="M336.9,98.14l2.57-4.45,4.79,2.76-2.53,4.39a2.76,2.76,0,0,1-4.82-2.7m-7-17.63h5.14V86H330a2.76,2.76,0,0,1-.08-5.52Zm10.19,6.9H330a4.14,4.14,0,0,1-.09-8.28h10.2a4.14,4.14,0,0,1,4.14,4.14A4,4,0,0,1,340.11,87.41Zm1.59-21.76,2.57,4.45-4.78,2.76L337,68.48a2.76,2.76,0,0,1,4.74-2.83Zm-.88,12.27-5.06-8.76a4.14,4.14,0,0,1,7.13-4.22c1.4,2.41,3.71,6.42,5.1,8.84a4.14,4.14,0,0,1-1.52,5.66A4,4,0,0,1,340.82,77.93Zm19.64-9.5-2.57,4.46-4.78-2.76,2.53-4.39a2.76,2.76,0,0,1,4.82,2.69Zm-11.07,5.37L354.44,65a4.14,4.14,0,0,1,7.22,4.06c-1.39,2.42-3.71,6.42-5.1,8.84a4.14,4.14,0,0,1-5.66,1.52A4,4,0,0,1,349.38,73.79Zm18,12.26h-5.14V80.53h5.06a2.76,2.76,0,0,1,.08,5.52Zm-10.19-6.9h10.11a4.14,4.14,0,0,1,.09,8.28H357.25a4.14,4.14,0,0,1-4.14-4.14A4,4,0,0,1,357.25,79.15Zm-1.59,21.76-2.57-4.45,4.78-2.76,2.53,4.39a2.76,2.76,0,0,1-4.75,2.83Zm.89-12.27,5.05,8.76a4.14,4.14,0,0,1-7.13,4.22c-1.4-2.42-3.71-6.42-5.1-8.84a4.14,4.14,0,0,1,1.52-5.66A4,4,0,0,1,356.54,88.64ZM348,92.77l-5.06,8.76a4.14,4.14,0,0,1-7.22-4.06c1.39-2.42,3.7-6.42,5.1-8.83a4.14,4.14,0,0,1,5.66-1.52A4,4,0,0,1,348,92.77Z" transform="translate(-0.5 -0.64)"/><path class="cls-2" d="M301.7,118.46l2.57-4.45,4.79,2.76-2.53,4.39a2.76,2.76,0,0,1-4.82-2.7m-7-17.63h5.14v5.52h-5.07a2.76,2.76,0,0,1-.08-5.52Zm10.19,6.9H294.79a4.14,4.14,0,0,1-.09-8.28h10.2a4.14,4.14,0,0,1,4.14,4.14A4,4,0,0,1,304.9,107.74ZM306.49,86l2.57,4.45-4.78,2.76-2.53-4.39A2.76,2.76,0,0,1,306.49,86Zm-.88,12.27-5.06-8.76a4.14,4.14,0,0,1,7.13-4.22c1.4,2.41,3.71,6.42,5.1,8.84a4.14,4.14,0,0,1-1.52,5.66A4,4,0,0,1,305.61,98.25Zm19.64-9.5-2.57,4.45-4.78-2.76,2.53-4.39a2.76,2.76,0,0,1,4.82,2.7Zm-11.07,5.37,5.06-8.76a4.14,4.14,0,0,1,7.22,4.06c-1.39,2.42-3.71,6.42-5.1,8.84a4.14,4.14,0,0,1-5.66,1.52A4,4,0,0,1,314.18,94.12Zm18,12.26h-5.14v-5.53h5.06a2.76,2.76,0,0,1,.08,5.52ZM322,99.47h10.11a4.14,4.14,0,0,1,.09,8.28H322a4.14,4.14,0,0,1-4.14-4.14A4,4,0,0,1,322,99.47Zm-1.59,21.76-2.57-4.45,4.78-2.76,2.53,4.39a2.76,2.76,0,0,1-4.75,2.83Zm.89-12.27,5.05,8.76a4.14,4.14,0,0,1-7.13,4.22c-1.4-2.42-3.71-6.42-5.1-8.84a4.14,4.14,0,0,1,1.52-5.66A4,4,0,0,1,321.34,109Zm-8.57,4.13-5.06,8.76a4.14,4.14,0,0,1-7.22-4.06c1.39-2.42,3.7-6.42,5.1-8.84a4.14,4.14,0,0,1,5.66-1.52A4,4,0,0,1,312.77,113.09Z" transform="translate(-0.5 -0.64)"/><path class="cls-1" d="M336.9,57.5,339.47,53l4.79,2.76-2.53,4.39a2.76,2.76,0,0,1-4.82-2.7m-7-17.63h5.14v5.52H330a2.76,2.76,0,0,1-.08-5.52Zm10.19,6.9H330a4.14,4.14,0,0,1-.09-8.28h10.2a4.14,4.14,0,0,1,4.14,4.14A4,4,0,0,1,340.11,46.77ZM341.7,25l2.57,4.45-4.78,2.76L337,27.84A2.76,2.76,0,0,1,341.7,25Zm-.88,12.27-5.06-8.76a4.14,4.14,0,0,1,7.13-4.22c1.4,2.41,3.71,6.42,5.1,8.84a4.14,4.14,0,0,1-1.52,5.66A4,4,0,0,1,340.82,37.29Zm19.64-9.5-2.57,4.45-4.78-2.76,2.53-4.39a2.76,2.76,0,0,1,4.82,2.7Zm-11.07,5.37,5.06-8.76a4.14,4.14,0,0,1,7.22,4.06c-1.39,2.42-3.71,6.42-5.1,8.84a4.14,4.14,0,0,1-5.66,1.52A4,4,0,0,1,349.38,33.16Zm18,12.26h-5.14V39.89h5.06a2.76,2.76,0,0,1,.08,5.52Zm-10.19-6.9h10.11a4.14,4.14,0,0,1,.09,8.28H357.25a4.14,4.14,0,0,1-4.14-4.14A4,4,0,0,1,357.25,38.51Zm-1.59,21.76-2.57-4.45,4.78-2.76,2.53,4.39a2.76,2.76,0,0,1-4.75,2.83ZM356.54,48l5.05,8.76A4.14,4.14,0,0,1,354.47,61c-1.4-2.42-3.71-6.42-5.1-8.84a4.14,4.14,0,0,1,1.52-5.66A4,4,0,0,1,356.54,48ZM348,52.13l-5.06,8.76a4.14,4.14,0,0,1-7.22-4.06c1.39-2.42,3.7-6.42,5.1-8.83a4.14,4.14,0,0,1,5.66-1.52A4,4,0,0,1,348,52.13Z" transform="translate(-0.5 -0.64)"/><path class="cls-2" d="M230.72,118.33l2.57-4.45,4.79,2.76L235.54,121a2.76,2.76,0,0,1-4.82-2.7m-7-17.63h5.14v5.53h-5.07a2.76,2.76,0,0,1-.08-5.52Zm10.19,6.9H223.82a4.14,4.14,0,0,1-.09-8.28h10.2a4.14,4.14,0,0,1,4.14,4.14A4,4,0,0,1,233.93,107.6Zm1.59-21.76,2.57,4.45-4.78,2.76-2.53-4.39a2.76,2.76,0,0,1,4.74-2.83Zm-.88,12.27-5.06-8.76a4.14,4.14,0,0,1,7.13-4.22c1.4,2.41,3.71,6.42,5.1,8.84a4.14,4.14,0,0,1-1.52,5.66A4,4,0,0,1,234.63,98.11Zm19.64-9.5-2.57,4.45-4.78-2.76,2.53-4.39a2.76,2.76,0,0,1,4.82,2.69ZM243.2,94l5.06-8.76a4.14,4.14,0,0,1,7.22,4.06c-1.39,2.42-3.71,6.42-5.1,8.84a4.14,4.14,0,0,1-5.66,1.52A4,4,0,0,1,243.2,94Zm18,12.26h-5.14v-5.53h5.06a2.76,2.76,0,0,1,.08,5.52Zm-10.19-6.9h10.11a4.14,4.14,0,0,1,.09,8.28H251.07a4.14,4.14,0,0,1-4.14-4.14A4,4,0,0,1,251.07,99.34Zm-1.59,21.76-2.57-4.45,4.78-2.76,2.53,4.39a2.76,2.76,0,0,1-4.75,2.83Zm.89-12.27,5.05,8.76a4.14,4.14,0,0,1-7.13,4.22c-1.4-2.42-3.71-6.42-5.1-8.84a4.14,4.14,0,0,1,1.52-5.66A4,4,0,0,1,250.36,108.82ZM241.79,113l-5.06,8.76a4.14,4.14,0,0,1-7.22-4.06c1.39-2.42,3.7-6.42,5.1-8.84a4.14,4.14,0,0,1,5.66-1.52A4,4,0,0,1,241.79,113Z" transform="translate(-0.5 -0.64)"/><path class="cls-2" d="M266.26,98.15l2.57-4.45,4.79,2.76-2.53,4.39a2.76,2.76,0,0,1-4.82-2.7m-7-17.63h5.14V86h-5.07a2.76,2.76,0,0,1-.08-5.52Zm10.19,6.9H259.36a4.14,4.14,0,0,1-.09-8.28h10.2a4.14,4.14,0,0,1,4.14,4.14A4,4,0,0,1,269.47,87.43Zm1.59-21.76,2.57,4.45-4.78,2.76-2.53-4.39a2.76,2.76,0,0,1,4.74-2.83Zm-.88,12.27-5.06-8.76A4.14,4.14,0,0,1,272.25,65c1.4,2.41,3.71,6.42,5.1,8.84a4.14,4.14,0,0,1-1.52,5.66A4,4,0,0,1,270.18,77.94Zm19.64-9.5-2.57,4.45-4.78-2.76L285,65.74a2.76,2.76,0,0,1,4.82,2.7Zm-11.07,5.37,5.06-8.76A4.14,4.14,0,0,1,291,69.11c-1.39,2.42-3.71,6.42-5.1,8.84a4.14,4.14,0,0,1-5.66,1.52A4,4,0,0,1,278.75,73.81Zm18,12.26h-5.14V80.54h5.06a2.76,2.76,0,0,1,.08,5.52Zm-10.19-6.9h10.11a4.14,4.14,0,0,1,.09,8.28H286.61a4.14,4.14,0,0,1-4.14-4.14A4,4,0,0,1,286.61,79.16ZM285,100.92l-2.57-4.45,4.78-2.76,2.53,4.39a2.76,2.76,0,0,1-4.75,2.83Zm.89-12.27L291,97.41a4.14,4.14,0,0,1-7.13,4.22c-1.4-2.42-3.71-6.42-5.1-8.84a4.14,4.14,0,0,1,1.52-5.66A4,4,0,0,1,285.91,88.65Zm-8.57,4.13-5.06,8.76a4.14,4.14,0,0,1-7.22-4.06c1.39-2.42,3.7-6.42,5.1-8.84a4.14,4.14,0,0,1,5.66-1.52A4,4,0,0,1,277.34,92.78Z" transform="translate(-0.5 -0.64)"/><path class="cls-1" d="M11.55,92.62l2.57-4.45,4.79,2.76-2.53,4.39a2.76,2.76,0,0,1-4.82-2.7M4.57,75H9.71v5.53H4.64A2.76,2.76,0,0,1,4.57,75Zm10.19,6.9H4.64a4.14,4.14,0,0,1-.09-8.28h10.2a4.14,4.14,0,0,1,4.14,4.14A4,4,0,0,1,14.75,81.89Zm1.59-21.76,2.57,4.45-4.78,2.76L11.6,63a2.76,2.76,0,0,1,4.75-2.83ZM15.46,72.4,10.4,63.65a4.14,4.14,0,0,1,7.13-4.22c1.4,2.41,3.71,6.42,5.1,8.84a4.14,4.14,0,0,1-1.52,5.66A4,4,0,0,1,15.46,72.4ZM35.1,62.9l-2.57,4.45-4.78-2.76,2.53-4.39A2.76,2.76,0,0,1,35.1,62.9ZM24,68.27l5.06-8.76a4.14,4.14,0,0,1,7.22,4.06C34.91,66,32.6,70,31.2,72.41a4.14,4.14,0,0,1-5.66,1.52A4,4,0,0,1,24,68.27Zm18,12.26H36.94V75H42a2.76,2.76,0,0,1,.08,5.52Zm-10.19-6.9H42a4.14,4.14,0,0,1,.09,8.28H31.89a4.14,4.14,0,0,1-4.14-4.14A4,4,0,0,1,31.89,73.63ZM30.3,95.39l-2.57-4.45,4.78-2.76L35,92.56a2.76,2.76,0,0,1-4.75,2.83Zm.89-12.27,5.05,8.76a4.14,4.14,0,0,1-7.13,4.22c-1.4-2.42-3.71-6.42-5.1-8.84a4.14,4.14,0,0,1,1.52-5.66A4,4,0,0,1,31.19,83.12Zm-8.57,4.13L17.56,96a4.14,4.14,0,0,1-7.22-4.06c1.39-2.42,3.7-6.42,5.1-8.84a4.14,4.14,0,0,1,5.66-1.52A4,4,0,0,1,22.62,87.25Z" transform="translate(-0.5 -0.64)"/><path class="cls-2" d="M336.9,179.37l2.57-4.45,4.79,2.76-2.53,4.39a2.76,2.76,0,0,1-4.82-2.7m-7-17.63h5.14v5.52H330a2.76,2.76,0,0,1-.08-5.52Zm10.19,6.9H330a4.14,4.14,0,0,1-.09-8.28h10.2a4.14,4.14,0,0,1,4.14,4.14A4,4,0,0,1,340.11,168.64Zm1.59-21.76,2.57,4.45-4.78,2.76L337,149.71a2.76,2.76,0,0,1,4.74-2.83Zm-.88,12.27-5.06-8.76a4.14,4.14,0,0,1,7.13-4.22c1.4,2.41,3.71,6.42,5.1,8.84a4.14,4.14,0,0,1-1.52,5.66A4,4,0,0,1,340.82,159.16Zm19.64-9.5-2.57,4.45-4.78-2.76,2.53-4.39a2.76,2.76,0,0,1,4.82,2.69ZM349.38,155l5.06-8.76a4.14,4.14,0,0,1,7.22,4.06c-1.39,2.42-3.71,6.42-5.1,8.84a4.14,4.14,0,0,1-5.66,1.52A4,4,0,0,1,349.38,155Zm18,12.26h-5.14v-5.53h5.06a2.76,2.76,0,0,1,.08,5.52Zm-10.19-6.9h10.11a4.14,4.14,0,0,1,.09,8.28H357.25a4.14,4.14,0,0,1-4.14-4.14A4,4,0,0,1,357.25,160.38Zm-1.59,21.76-2.57-4.45,4.78-2.76,2.53,4.39a2.76,2.76,0,0,1-4.75,2.83Zm.89-12.27,5.05,8.76a4.14,4.14,0,0,1-1.38,5.57H355.8a4.12,4.12,0,0,1-1.33-1.35c-1.4-2.41-3.71-6.42-5.1-8.84a4.14,4.14,0,0,1,1.52-5.66A4,4,0,0,1,356.54,169.87ZM348,174l-5.06,8.76a4.13,4.13,0,0,1-1.39,1.44h-4.39a4.14,4.14,0,0,1-1.44-5.5c1.39-2.42,3.7-6.42,5.1-8.84a4.14,4.14,0,0,1,5.66-1.52A4,4,0,0,1,348,174Z" transform="translate(-0.5 -0.64)"/><path class="cls-2" d="M266.5,179.37l2.57-4.45,4.79,2.76-2.53,4.39a2.76,2.76,0,0,1-4.82-2.7m-7-17.63h5.14v5.52H259.6a2.76,2.76,0,0,1-.08-5.52Zm10.19,6.9H259.6a4.14,4.14,0,0,1-.09-8.28h10.2a4.14,4.14,0,0,1,4.14,4.14A4,4,0,0,1,269.71,168.64Zm1.59-21.76,2.57,4.45-4.78,2.76-2.53-4.39a2.76,2.76,0,0,1,4.74-2.83Zm-.88,12.27-5.06-8.76a4.14,4.14,0,0,1,7.13-4.22c1.4,2.41,3.71,6.42,5.1,8.84a4.14,4.14,0,0,1-1.52,5.66A4,4,0,0,1,270.41,159.16Zm19.64-9.5-2.57,4.45-4.78-2.76,2.53-4.39a2.76,2.76,0,0,1,4.82,2.69ZM279,155l5.06-8.76a4.14,4.14,0,0,1,7.22,4.06c-1.39,2.42-3.71,6.42-5.1,8.84a4.14,4.14,0,0,1-5.66,1.52A4,4,0,0,1,279,155Zm18,12.26h-5.14v-5.53H297a2.76,2.76,0,0,1,.08,5.52Zm-10.19-6.9H297a4.14,4.14,0,0,1,.09,8.28H286.85a4.14,4.14,0,0,1-4.14-4.14A4,4,0,0,1,286.85,160.38Zm-1.59,21.76-2.57-4.45,4.78-2.76,2.53,4.39a2.76,2.76,0,0,1-4.75,2.83Zm.89-12.27,5.05,8.76a4.14,4.14,0,0,1-1.38,5.57H285.4a4.12,4.12,0,0,1-1.33-1.35c-1.4-2.41-3.71-6.42-5.1-8.84a4.14,4.14,0,0,1,1.52-5.66A4,4,0,0,1,286.14,169.87ZM277.57,174l-5.06,8.76a4.12,4.12,0,0,1-1.39,1.44h-4.39a4.14,4.14,0,0,1-1.44-5.5c1.39-2.42,3.7-6.42,5.1-8.84a4.14,4.14,0,0,1,5.66-1.52A4,4,0,0,1,277.57,174Z" transform="translate(-0.5 -0.64)"/><path class="cls-1" d="M130.45,109.87l2.57-4.45,4.79,2.76-2.53,4.39a2.76,2.76,0,0,1-4.82-2.7m-7-17.63h5.14v5.52h-5.07a2.76,2.76,0,0,1-.08-5.52Zm10.18,6.9H123.55a4.14,4.14,0,0,1-.09-8.28h10.2A4.14,4.14,0,0,1,137.8,95,4,4,0,0,1,133.66,99.15Zm1.59-21.76,2.57,4.45L133,84.6l-2.53-4.39a2.76,2.76,0,0,1,4.75-2.83Zm-.89,12.27-5.06-8.76a4.14,4.14,0,0,1,7.13-4.22c1.4,2.41,3.71,6.42,5.1,8.84A4.14,4.14,0,0,1,140,91.18,4,4,0,0,1,134.36,89.66ZM154,80.16l-2.57,4.45-4.78-2.76,2.53-4.39a2.76,2.76,0,0,1,4.82,2.7Zm-11.07,5.37L148,76.77a4.14,4.14,0,0,1,7.22,4.06c-1.39,2.42-3.71,6.42-5.1,8.84a4.14,4.14,0,0,1-5.66,1.52A4,4,0,0,1,142.93,85.53Zm18,12.26h-5.14V92.27h5.07a2.76,2.76,0,0,1,.08,5.52Zm-10.19-6.9h10.11a4.14,4.14,0,0,1,.09,8.28H150.79A4.14,4.14,0,0,1,146.65,95,4,4,0,0,1,150.79,90.88Zm-1.59,21.76-2.57-4.45,4.78-2.76,2.53,4.39a2.76,2.76,0,0,1-4.75,2.83Zm.89-12.27,5.05,8.76a4.14,4.14,0,0,1-7.13,4.22c-1.4-2.41-3.71-6.42-5.1-8.84a4.14,4.14,0,0,1,1.52-5.66A4,4,0,0,1,150.09,100.37Zm-8.57,4.13-5.05,8.76a4.14,4.14,0,0,1-7.22-4.06c1.39-2.42,3.7-6.42,5.1-8.84A4.14,4.14,0,0,1,140,98.85,4,4,0,0,1,141.52,104.51Z" transform="translate(-0.5 -0.64)"/><path class="cls-2" d="M195.18,99.19l2.57-4.45,4.79,2.76L200,101.89a2.76,2.76,0,0,1-4.82-2.7m-7-17.63h5.14v5.52h-5.07a2.76,2.76,0,0,1-.08-5.52Zm10.19,6.9H188.27a4.14,4.14,0,0,1-.09-8.28h10.2a4.14,4.14,0,0,1,4.14,4.14A4,4,0,0,1,198.38,88.47ZM200,66.71l2.57,4.45-4.78,2.76-2.53-4.39A2.76,2.76,0,0,1,200,66.71Zm18.75,2.77-2.57,4.46-4.78-2.76,2.53-4.39a2.76,2.76,0,0,1,4.82,2.69Zm7,17.63h-5.14V81.58h5.07a2.76,2.76,0,0,1,.08,5.52Zm-10.19-6.9h10.11a4.14,4.14,0,0,1,.09,8.28h-10.2a4.14,4.14,0,0,1-4.14-4.14A4,4,0,0,1,215.52,80.2ZM213.93,102l-2.57-4.45,4.78-2.76,2.53,4.39a2.76,2.76,0,0,1-4.75,2.83Zm.89-12.27,5.05,8.76a4.14,4.14,0,0,1-7.13,4.22c-1.4-2.42-3.71-6.42-5.1-8.84a4.14,4.14,0,0,1,1.52-5.66A4,4,0,0,1,214.82,89.69Zm.81-25.62H217a4.14,4.14,0,0,1,3,6.08c-1.39,2.42-3.71,6.42-5.1,8.84a4.14,4.14,0,0,1-5.66,1.52,4,4,0,0,1-1.52-5.66l5.06-8.76A4.13,4.13,0,0,1,215.63,64.08Zm-18.75,0h1.47A4.13,4.13,0,0,1,201.16,66c1.4,2.41,3.71,6.42,5.1,8.84a4.14,4.14,0,0,1-1.52,5.66A4,4,0,0,1,199.09,79L194,70.22a4.14,4.14,0,0,1,2.85-6.15Zm9.36,29.75-5.05,8.76A4.14,4.14,0,0,1,194,98.52c1.39-2.42,3.7-6.42,5.1-8.84a4.14,4.14,0,0,1,5.66-1.52A4,4,0,0,1,206.25,93.82Z" transform="translate(-0.5 -0.64)"/><path class="cls-2" d="M196.26,179.37l2.57-4.45,4.79,2.76-2.53,4.39a2.76,2.76,0,0,1-4.82-2.7m-7-17.63h5.14v5.52h-5.07a2.76,2.76,0,0,1-.08-5.52Zm10.18,6.9H189.36a4.14,4.14,0,0,1-.09-8.28h10.2a4.14,4.14,0,0,1,4.14,4.14A4,4,0,0,1,199.47,168.64Zm1.59-21.76,2.57,4.45-4.78,2.76-2.53-4.39a2.76,2.76,0,0,1,4.74-2.83Zm-.88,12.27-5.06-8.76a4.14,4.14,0,0,1,7.13-4.22c1.4,2.41,3.71,6.42,5.1,8.84a4.14,4.14,0,0,1-1.52,5.66A4,4,0,0,1,200.18,159.16Zm19.64-9.5-2.57,4.45-4.78-2.76L215,147a2.76,2.76,0,0,1,4.82,2.69ZM208.75,155l5.06-8.76a4.14,4.14,0,0,1,7.22,4.06c-1.39,2.42-3.71,6.42-5.1,8.84a4.14,4.14,0,0,1-5.66,1.52A4,4,0,0,1,208.75,155Zm18,12.26h-5.14v-5.53h5.07a2.76,2.76,0,0,1,.08,5.52Zm-10.19-6.9h10.11a4.14,4.14,0,0,1,.09,8.28h-10.2a4.14,4.14,0,0,1-4.14-4.14A4,4,0,0,1,216.61,160.38ZM215,182.14l-2.57-4.45,4.78-2.76,2.53,4.39a2.76,2.76,0,0,1-4.75,2.83Zm.89-12.27,5.05,8.76a4.14,4.14,0,0,1-1.38,5.57h-4.42a4.11,4.11,0,0,1-1.33-1.35c-1.4-2.41-3.71-6.42-5.1-8.84a4.14,4.14,0,0,1,1.52-5.66A4,4,0,0,1,215.9,169.87ZM207.33,174l-5.05,8.76a4.12,4.12,0,0,1-1.39,1.44h-4.39a4.14,4.14,0,0,1-1.44-5.5c1.39-2.42,3.7-6.42,5.1-8.84a4.14,4.14,0,0,1,5.66-1.52A4,4,0,0,1,207.33,174Z" transform="translate(-0.5 -0.64)"/><path class="cls-1" d="M161.08,159.07l2.57-4.45,4.79,2.76-2.53,4.39a2.76,2.76,0,0,1-4.82-2.7m-7-17.63h5.14V147h-5.07a2.76,2.76,0,0,1-.08-5.52Zm10.19,6.9H154.17a4.14,4.14,0,0,1-.09-8.28h10.2a4.14,4.14,0,0,1,4.14,4.14A4,4,0,0,1,164.28,148.34Zm1.59-21.76,2.57,4.45-4.78,2.76-2.53-4.39a2.76,2.76,0,0,1,4.74-2.83ZM165,138.86l-5.06-8.76a4.14,4.14,0,0,1,7.13-4.22c1.4,2.41,3.71,6.42,5.1,8.84a4.14,4.14,0,0,1-1.52,5.66A4,4,0,0,1,165,138.86Zm19.64-9.5-2.57,4.46L177.28,131l2.53-4.39a2.76,2.76,0,0,1,4.82,2.69Zm-11.07,5.37,5.05-8.76a4.14,4.14,0,0,1,7.22,4.06c-1.39,2.42-3.71,6.42-5.1,8.84a4.14,4.14,0,0,1-5.66,1.52A4,4,0,0,1,173.56,134.72Zm18,12.26h-5.14v-5.53h5.06a2.76,2.76,0,0,1,.08,5.52Zm-10.19-6.9h10.11a4.14,4.14,0,0,1,.09,8.28h-10.2a4.14,4.14,0,0,1-4.14-4.14A4,4,0,0,1,181.42,140.08Zm-1.59,21.76-2.57-4.45,4.78-2.76,2.53,4.39a2.76,2.76,0,0,1-4.75,2.83Zm.89-12.27,5.05,8.76a4.14,4.14,0,0,1-7.13,4.22c-1.4-2.42-3.71-6.42-5.1-8.84a4.14,4.14,0,0,1,1.52-5.66A4,4,0,0,1,180.72,149.57Zm-8.57,4.13-5.06,8.76a4.14,4.14,0,0,1-7.22-4.06c1.39-2.42,3.7-6.42,5.1-8.84a4.14,4.14,0,0,1,5.66-1.52A4,4,0,0,1,172.15,153.7Z" transform="translate(-0.5 -0.64)"/><path class="cls-2" d="M61.73,163l2.57-4.45,4.79,2.76-2.53,4.39a2.76,2.76,0,0,1-4.82-2.7m-7-17.63h5.14v5.52H54.83a2.76,2.76,0,0,1-.08-5.52Zm10.19,6.9H54.83a4.14,4.14,0,0,1-.09-8.28h10.2a4.14,4.14,0,0,1,4.14,4.14A4,4,0,0,1,64.94,152.23Zm1.59-21.76,2.57,4.45-4.78,2.76-2.53-4.39a2.76,2.76,0,0,1,4.75-2.83Zm-.89,12.27L60.59,134a4.14,4.14,0,0,1,7.13-4.22c1.4,2.41,3.71,6.42,5.1,8.84a4.14,4.14,0,0,1-1.52,5.66A4,4,0,0,1,65.64,142.74Zm19.64-9.5-2.57,4.45-4.78-2.76,2.53-4.39a2.76,2.76,0,0,1,4.82,2.7Zm-11.07,5.37,5.05-8.76a4.14,4.14,0,0,1,7.22,4.06c-1.39,2.42-3.71,6.42-5.1,8.84a4.14,4.14,0,0,1-5.66,1.52A4,4,0,0,1,74.21,138.61Zm18,12.26H87.12v-5.53h5.06a2.76,2.76,0,0,1,.08,5.52ZM82.08,144H92.19a4.14,4.14,0,0,1,.09,8.28H82.08a4.14,4.14,0,0,1-4.14-4.14A4,4,0,0,1,82.08,144Zm-1.59,21.76-2.57-4.45,4.78-2.76,2.53,4.39a2.76,2.76,0,0,1-4.75,2.83Zm.89-12.27,5.05,8.76a4.14,4.14,0,0,1-7.13,4.22c-1.4-2.42-3.71-6.42-5.1-8.84a4.14,4.14,0,0,1,1.52-5.66A4,4,0,0,1,81.37,153.45Zm-8.57,4.13-5.06,8.76a4.14,4.14,0,0,1-7.22-4.06c1.39-2.42,3.7-6.42,5.1-8.84a4.14,4.14,0,0,1,5.66-1.52A4,4,0,0,1,72.8,157.58Z" transform="translate(-0.5 -0.64)"/><path class="cls-2" d="M76.51,74.63l2.57-4.45,4.79,2.76-2.53,4.39a2.76,2.76,0,0,1-4.82-2.7M69.53,57h5.14v5.53H69.61A2.76,2.76,0,0,1,69.53,57Zm10.19,6.9H69.61a4.14,4.14,0,0,1-.09-8.28h10.2a4.14,4.14,0,0,1,4.14,4.14A4,4,0,0,1,79.72,63.91Zm1.59-21.76,2.57,4.45L79.1,49.36,76.56,45a2.76,2.76,0,0,1,4.74-2.83Zm-.88,12.27-5.06-8.76a4.14,4.14,0,0,1,7.13-4.22c1.4,2.41,3.71,6.42,5.1,8.84a4.14,4.14,0,0,1-1.52,5.66A4,4,0,0,1,80.42,54.42Zm19.64-9.5L97.5,49.37l-4.78-2.76,2.53-4.39a2.76,2.76,0,0,1,4.82,2.69ZM89,50.29,94,41.53a4.14,4.14,0,0,1,7.22,4.06C99.88,48,97.56,52,96.17,54.43a4.14,4.14,0,0,1-5.66,1.52A4,4,0,0,1,89,50.29Zm18,12.26H101.9V57H107a2.76,2.76,0,0,1,.08,5.52Zm-10.19-6.9H107a4.14,4.14,0,0,1,.09,8.28H96.86a4.14,4.14,0,0,1-4.14-4.14A4,4,0,0,1,96.86,55.64ZM95.27,77.4,92.69,73l4.78-2.76L100,74.58a2.76,2.76,0,0,1-4.75,2.83Zm.89-12.27,5.05,8.76a4.14,4.14,0,0,1-7.13,4.22c-1.4-2.42-3.71-6.42-5.1-8.84a4.14,4.14,0,0,1,1.52-5.66A4,4,0,0,1,96.15,65.13Zm-8.57,4.13L82.53,78A4.14,4.14,0,0,1,75.31,74c1.39-2.42,3.7-6.42,5.1-8.84a4.14,4.14,0,0,1,5.66-1.52A4,4,0,0,1,87.58,69.26Z" transform="translate(-0.5 -0.64)"/><path class="cls-2" d="M126,179.37l2.57-4.45,4.79,2.76-2.53,4.39a2.76,2.76,0,0,1-4.82-2.7m-7-17.63h5.14v5.52h-5.07a2.76,2.76,0,0,1-.08-5.52Zm10.19,6.9H119.08a4.14,4.14,0,0,1-.09-8.28h10.2a4.14,4.14,0,0,1,4.14,4.14A4,4,0,0,1,129.19,168.64Zm1.59-21.76,2.57,4.45-4.78,2.76L126,149.71a2.76,2.76,0,0,1,4.74-2.83Zm-.88,12.27-5.06-8.76a4.14,4.14,0,0,1,7.13-4.22c1.4,2.41,3.71,6.42,5.1,8.84a4.14,4.14,0,0,1-1.52,5.66A4,4,0,0,1,129.89,159.16Zm19.64-9.5L147,154.11l-4.78-2.76,2.53-4.39a2.76,2.76,0,0,1,4.82,2.69ZM138.46,155l5.06-8.76a4.14,4.14,0,0,1,7.22,4.06c-1.39,2.42-3.71,6.42-5.1,8.84a4.14,4.14,0,0,1-5.66,1.52A4,4,0,0,1,138.46,155Zm18,12.26h-5.14v-5.53h5.06a2.76,2.76,0,0,1,.08,5.52Zm-10.19-6.9h10.11a4.14,4.14,0,0,1,.09,8.28H146.33a4.14,4.14,0,0,1-4.14-4.14A4,4,0,0,1,146.33,160.38Zm-1.59,21.76-2.57-4.45,4.78-2.76,2.53,4.39a2.76,2.76,0,0,1-4.75,2.83Zm.89-12.27,5.05,8.76a4.14,4.14,0,0,1-1.38,5.57h-4.42a4.12,4.12,0,0,1-1.33-1.35c-1.4-2.41-3.71-6.42-5.1-8.84a4.14,4.14,0,0,1,1.52-5.66A4,4,0,0,1,145.62,169.87ZM137.05,174,132,182.75a4.12,4.12,0,0,1-1.39,1.44h-4.39a4.14,4.14,0,0,1-1.44-5.5c1.39-2.42,3.7-6.42,5.1-8.84a4.14,4.14,0,0,1,5.66-1.52A4,4,0,0,1,137.05,174Z" transform="translate(-0.5 -0.64)"/><path class="cls-1" d="M278.88,51.12l2.57-4.45,4.79,2.76-2.53,4.39a2.76,2.76,0,0,1-4.82-2.7m-7-17.63H277V39H272a2.76,2.76,0,0,1-.08-5.52Zm10.19,6.9H272a4.14,4.14,0,0,1-.09-8.28h10.2a4.14,4.14,0,0,1,4.14,4.14A4,4,0,0,1,282.09,40.4Zm1.59-21.76,2.57,4.45-4.78,2.76-2.53-4.39a2.76,2.76,0,0,1,4.74-2.83Zm-.88,12.27-5.06-8.76a4.14,4.14,0,0,1,7.13-4.22c1.4,2.41,3.71,6.42,5.1,8.84a4.14,4.14,0,0,1-1.52,5.66A4,4,0,0,1,282.79,30.91Zm19.64-9.5-2.57,4.46-4.78-2.76,2.53-4.39a2.76,2.76,0,0,1,4.82,2.69Zm-11.07,5.37L296.42,18a4.14,4.14,0,0,1,7.22,4.06c-1.39,2.42-3.71,6.42-5.1,8.84a4.14,4.14,0,0,1-5.66,1.52A4,4,0,0,1,291.36,26.78Zm18,12.26h-5.14V33.52h5.06a2.76,2.76,0,0,1,.08,5.52Zm-10.19-6.9h10.11a4.14,4.14,0,0,1,.09,8.28H299.23a4.14,4.14,0,0,1-4.14-4.14A4,4,0,0,1,299.23,32.13ZM297.63,53.9l-2.57-4.45,4.78-2.76,2.53,4.39a2.76,2.76,0,0,1-4.75,2.83Zm.89-12.27,5.05,8.76a4.14,4.14,0,0,1-7.13,4.22c-1.4-2.42-3.71-6.42-5.1-8.84a4.14,4.14,0,0,1,1.52-5.66A4,4,0,0,1,298.52,41.62Zm-8.57,4.13-5.06,8.76a4.14,4.14,0,0,1-7.22-4.06c1.39-2.42,3.7-6.42,5.1-8.84a4.14,4.14,0,0,1,5.66-1.52A4,4,0,0,1,289.95,45.76Z" transform="translate(-0.5 -0.64)"/><path class="cls-1" d="M185.58,35.82l2.57-4.45,4.79,2.76-2.53,4.39a2.76,2.76,0,0,1-4.82-2.7m-7-17.63h5.14v5.52h-5.07a2.76,2.76,0,0,1-.08-5.52Zm10.19,6.9H178.68a4.14,4.14,0,0,1-.09-8.28h10.2A4.14,4.14,0,0,1,192.93,21,4,4,0,0,1,188.79,25.1Zm1.59-21.76L193,7.79l-4.78,2.76-2.53-4.39a2.76,2.76,0,0,1,4.74-2.83Zm-.88,12.27-5.06-8.76a4.14,4.14,0,0,1,7.13-4.22C193,5,195.27,9,196.67,11.47a4.14,4.14,0,0,1-1.52,5.66A4,4,0,0,1,189.5,15.61Zm19.64-9.5-2.57,4.45L201.78,7.8l2.53-4.39a2.76,2.76,0,0,1,4.82,2.7Zm-11.07,5.37,5.06-8.76a4.14,4.14,0,0,1,7.22,4.06c-1.39,2.42-3.71,6.42-5.1,8.84a4.14,4.14,0,0,1-5.66,1.52A4,4,0,0,1,198.07,11.48Zm18,12.26H211V18.21H216a2.76,2.76,0,0,1,.08,5.52Zm-10.19-6.9H216a4.14,4.14,0,0,1,.09,8.28h-10.2A4.14,4.14,0,0,1,201.79,21,4,4,0,0,1,205.93,16.83Zm-1.59,21.76-2.57-4.45,4.78-2.76,2.53,4.39a2.76,2.76,0,0,1-4.75,2.83Zm.89-12.27,5.05,8.76a4.14,4.14,0,0,1-7.13,4.22c-1.4-2.41-3.71-6.42-5.1-8.84a4.14,4.14,0,0,1,1.52-5.66A4,4,0,0,1,205.22,26.32Zm-8.57,4.13-5.06,8.76a4.14,4.14,0,0,1-7.22-4.06c1.39-2.42,3.7-6.42,5.1-8.84a4.14,4.14,0,0,1,5.66-1.52A4,4,0,0,1,196.65,30.45Z" transform="translate(-0.5 -0.64)"/></svg>