<svg xmlns="http://www.w3.org/2000/svg" width="28" height="28" viewBox="0 0 28 28">
  <defs>
    <style>
      .cls-1 {
        fill: #008c82;
        fill-rule: evenodd;
      }
    </style>
  </defs>
  <path class="cls-1" d="M981.046,46.248c-1.174-1.185-2.348-2.353-3.487-3.48a2.82,2.82,0,0,0-4.192-.007l-0.156.157c-0.618.613-1.26,1.249-1.879,1.885-0.127-.064-0.254-0.128-0.376-0.191a8.493,8.493,0,0,1-.792-0.422,21.314,21.314,0,0,1-5.227-4.763,12.125,12.125,0,0,1-1.757-2.757c0.549-.532,1.086-1.075,1.613-1.607l0.4-.4a2.842,2.842,0,0,0,0-4.272c-0.394-.4-0.8-0.8-1.186-1.185l-0.52-.52-0.549-.549c-0.393-.4-0.8-0.81-1.214-1.208a2.837,2.837,0,0,0-4.192,0c-0.295.295-.6,0.59-0.879,0.878-0.417.422-.85,0.856-1.284,1.272a4.3,4.3,0,0,0-1.347,2.89,11.151,11.151,0,0,0,.821,4.671,27.087,27.087,0,0,0,4.811,8.023,29.952,29.952,0,0,0,9.846,7.7,14.591,14.591,0,0,0,5.608,1.625c0.128,0.006.255,0.011,0.376,0.011a4.623,4.623,0,0,0,3.591-1.538c0.393-.439.815-0.85,1.26-1.284,0.226-.219.457-0.445,0.689-0.676A2.827,2.827,0,0,0,981.046,46.248ZM979.924,49.4c-0.22.22-.445,0.439-0.665,0.659-0.445.434-.908,0.884-1.335,1.364a3.133,3.133,0,0,1-2.718,1.012,13.07,13.07,0,0,1-5.013-1.468,28.4,28.4,0,0,1-9.338-7.3,25.522,25.522,0,0,1-4.545-7.56,9.3,9.3,0,0,1-.728-4.006,2.758,2.758,0,0,1,.867-1.873c0.446-.445.885-0.89,1.313-1.318,0.283-.283.572-0.578,0.861-0.867a1.477,1.477,0,0,1,1-.479,1.5,1.5,0,0,1,1.006.479c0.4,0.394.809,0.8,1.2,1.2,0.186,0.185.365,0.37,0.55,0.549l0.52,0.52,1.18,1.179a1.289,1.289,0,0,1,0,2.069c-0.133.139-.272,0.272-0.4,0.41-0.561.567-1.145,1.156-1.729,1.717a1.213,1.213,0,0,0-.289,1.433,13.39,13.39,0,0,0,2.052,3.3,23.067,23.067,0,0,0,5.609,5.1,10.133,10.133,0,0,0,.936.5c0.185,0.086.354,0.173,0.521,0.266a1.269,1.269,0,0,0,.624.168h0a1.259,1.259,0,0,0,.908-0.422c0.653-.676,1.336-1.347,1.989-2l0.156-.156a1.473,1.473,0,0,1,1-.48,1.5,1.5,0,0,1,1,.48c1.133,1.127,2.307,2.295,3.475,3.474A1.3,1.3,0,0,1,979.924,49.4Z" transform="translate(-954 -26)"/>
</svg>
