<svg xmlns="http://www.w3.org/2000/svg" width="14" height="14.281" viewBox="0 0 14 14.281">
  <defs>
    <style>
      .cls-1 {
        fill: #008c82;
        fill-rule: evenodd;
      }
    </style>
  </defs>
  <path class="cls-1" d="M424.367,388.832c1.257,1.274,2.709,2.492,3.281,1.9,0.816-.841,1.32-1.574,3.132-0.095s0.428,2.475-.364,3.29c-0.911.941-4.332,0.066-7.722-3.374s-4.273-6.932-3.358-7.873c0.79-.816,1.753-2.239,3.214-0.4s0.747,2.363-.069,3.2C421.911,386.08,423.109,387.557,424.367,388.832Zm1.821-6.081a0.8,0.8,0,0,0-.645.211,0.763,0.763,0,0,0,0,1.054,0.8,0.8,0,0,0,.407.211,3.309,3.309,0,0,1,1.922,1.008,3.446,3.446,0,0,1,.985,1.965,0.861,0.861,0,0,0,.207.418,0.726,0.726,0,0,0,1.032,0,0.836,0.836,0,0,0,.2-0.658,5.129,5.129,0,0,0-1.394-2.786A4.956,4.956,0,0,0,426.188,382.751Zm3.553,0.578a5.319,5.319,0,0,1,1.769,4.291,0.86,0.86,0,0,0,.194.677,0.726,0.726,0,0,0,1.037,0,0.962,0.962,0,0,0,.216-0.476,6.789,6.789,0,0,0-2.183-5.551,6.474,6.474,0,0,0-5.429-2.231,0.91,0.91,0,0,0-.465.221,0.763,0.763,0,0,0,0,1.059,0.817,0.817,0,0,0,.663.2A5.085,5.085,0,0,1,429.741,383.329Z" transform="translate(-419 -380)"/>
</svg>
