<svg xmlns="http://www.w3.org/2000/svg" width="20" height="17" viewBox="0 0 20 17">
  <defs>
    <style>
      .cls-1 {
        fill: #008c82;
        fill-rule: evenodd;
      }
    </style>
  </defs>
  <path class="cls-1" d="M1288.44,444.67a5.547,5.547,0,0,0-7.89-.045l-0.54.541-0.54-.542a5.548,5.548,0,0,0-7.85,7.843l6.94,6.932a2.05,2.05,0,0,0,2.9,0l6.89-6.886A5.6,5.6,0,0,0,1288.44,444.67Zm-0.82,7.117-6.88,6.886a1.038,1.038,0,0,1-1.46,0l-6.93-6.932a4.519,4.519,0,1,1,6.39-6.391l0.54,0.542-0.83.83a0.515,0.515,0,0,0,.73.726l2.1-2.1a4.521,4.521,0,0,1,6.43.037A4.568,4.568,0,0,1,1287.62,451.787Zm0.59-3.474a3.753,3.753,0,0,0-2.73-3.379,0.514,0.514,0,0,0-.63.357,0.507,0.507,0,0,0,.36.632,2.733,2.733,0,0,1,1.19.7,2.706,2.706,0,0,1,.79,1.755,0.514,0.514,0,0,0,.51.482h0.03A0.507,0.507,0,0,0,1288.21,448.313Z" transform="translate(-1270 -443)"/>
</svg>
